<svg width="747" height="296" viewBox="0 0 747 296" fill="none" xmlns="http://www.w3.org/2000/svg">
<g filter="url(#filter0_d)">
<path d="M168.507 126.146L161.143 117.743L153.949 109.575C154.042 104.494 154.165 99.4134 154.232 94.3325C154.242 93.7896 153.83 93.3389 153.314 93.3321H153.285L145.547 93.1955C144.961 93.1852 144.481 93.6803 144.471 94.2984V94.3325L144.41 98.3105L138.418 91.5701L130.458 82.5761L130.432 82.5488C129.827 81.8966 128.841 81.8898 128.226 82.5283L128.18 82.5761C124.853 86.0453 121.502 89.4907 118.236 93.0247C114.966 96.5554 111.761 100.148 108.6 103.791C107.006 105.597 105.44 107.427 103.874 109.264C102.299 111.091 100.759 112.952 99.2098 114.806C96.13 118.528 93.0729 122.277 90.1349 126.146C90.0833 126.218 90.0833 126.317 90.1381 126.389C90.2025 126.467 90.3153 126.477 90.3894 126.409C93.9588 123.189 97.4154 119.85 100.843 116.486C102.55 114.796 104.264 113.113 105.943 111.395C107.634 109.688 109.322 107.977 110.981 106.239C114.331 102.79 117.633 99.2973 120.874 95.7393C123.748 92.5911 126.554 89.3746 129.366 86.1649L136.447 93.5984L144.697 102.292L144.729 102.323C144.945 102.548 145.245 102.688 145.573 102.681C146.224 102.671 146.739 102.104 146.73 101.418L146.639 95.4525L152.354 95.3535C152.422 100.185 152.538 105.013 152.625 109.845V109.872C152.631 110.04 152.693 110.203 152.812 110.33L160.521 118.381L168.252 126.409C168.317 126.477 168.426 126.481 168.497 126.412C168.568 126.344 168.571 126.225 168.507 126.146Z" fill="#0F0F0F"/>
<path d="M121.673 117.671H128.783V110.145H121.673V117.671Z" fill="black"/>
<path d="M121.673 126.279H128.783V118.754H121.673V126.279Z" fill="#040404"/>
<path d="M129.856 126.279H136.965V118.754H129.856V126.279Z" fill="black"/>
<path d="M129.856 117.671H136.965V110.145H129.856V117.671Z" fill="#0E0E0E"/>
<path d="M145.789 108.363C143.138 105.382 140.445 102.446 137.771 99.4851L129.701 90.6584L129.688 90.6448C129.479 90.4297 129.144 90.4331 128.938 90.6584L120.871 99.4851C118.197 102.446 115.504 105.386 112.853 108.363L104.87 117.282C102.235 120.28 99.577 123.254 96.9677 126.279C99.7478 123.432 102.483 120.533 105.244 117.664L113.436 108.964C116.174 106.072 118.874 103.139 121.593 100.226L129.321 91.8535L137.046 100.226C139.765 103.139 142.464 106.075 145.203 108.967L153.398 117.664C156.159 120.533 158.891 123.432 161.674 126.279C159.065 123.254 156.404 120.28 153.772 117.278L145.789 108.363Z" fill="#0E0E0E"/>
<path d="M89.7387 126.566L83.94 119.891L78.2767 113.406C78.3508 109.37 78.4474 105.338 78.499 101.302C78.5054 100.868 78.18 100.513 77.7774 100.506H77.7516L71.6598 100.397C71.1991 100.39 70.8222 100.783 70.8158 101.274L70.8125 101.302L70.7642 104.46L66.048 99.1061L59.779 91.9662L59.7597 91.9423C59.2829 91.4267 58.5065 91.4199 58.0233 91.9286L57.9879 91.9662C55.3656 94.7218 52.7272 97.4569 50.1565 100.264C47.5825 103.064 45.0569 105.918 42.5699 108.81C41.3135 110.244 40.0797 111.702 38.8491 113.16C37.6056 114.608 36.3943 116.087 35.1734 117.558C32.7509 120.515 30.3444 123.493 28.0314 126.566C27.9895 126.621 27.9895 126.703 28.0314 126.757C28.083 126.819 28.1732 126.826 28.2311 126.774C31.0403 124.217 33.7624 121.567 36.462 118.894C37.8054 117.552 39.1551 116.213 40.476 114.851C41.8096 113.495 43.1369 112.136 44.4448 110.757C47.08 108.018 49.6829 105.242 52.2343 102.418C54.4958 99.9188 56.7057 97.3647 58.9221 94.814L64.4952 100.718L70.9929 107.622L71.0155 107.646C71.1862 107.827 71.4214 107.936 71.6823 107.933C72.1913 107.923 72.6005 107.472 72.594 106.929L72.5199 102.189L77.0203 102.111C77.0751 105.949 77.1653 109.783 77.2329 113.618V113.642C77.2394 113.775 77.2877 113.905 77.3811 114.004L83.4504 120.396L89.539 126.774C89.5905 126.829 89.6743 126.832 89.729 126.778C89.787 126.72 89.7902 126.628 89.7387 126.566Z" fill="#368324"/>
<path d="M52.8625 119.836H58.4614V113.86H52.8625V119.836Z" fill="#368324"/>
<path d="M52.8625 126.669H58.4614V120.693H52.8625V126.669Z" fill="#368324"/>
<path d="M59.3055 126.669H64.9044V120.693H59.3055V126.669Z" fill="#368324"/>
<path d="M59.3055 119.836H64.9044V113.86H59.3055V119.836Z" fill="#368324"/>
<path d="M71.853 112.443C69.7623 110.077 67.6426 107.742 65.5357 105.392L59.183 98.3822L59.1733 98.372C59.009 98.2012 58.7449 98.2047 58.5838 98.3822L52.2311 105.392C50.1242 107.742 48.0045 110.077 45.917 112.443L39.6319 119.525C37.5573 121.909 35.4633 124.268 33.408 126.669C35.5986 124.408 37.7506 122.107 39.9251 119.829L46.3777 112.921C48.5328 110.623 50.659 108.295 52.798 105.983L58.8834 99.3315L64.9688 105.983C67.1078 108.295 69.234 110.627 71.3892 112.921L77.8418 119.829C80.0163 122.107 82.1682 124.408 84.3588 126.669C82.3035 124.268 80.2095 121.905 78.1381 119.522L71.853 112.443Z" fill="#368324"/>
<path d="M92.638 188.175C93.9653 188.175 95.0412 187.035 95.0412 185.628V177.139C95.0412 175.729 93.9653 174.589 92.638 174.589C91.3108 174.589 90.2348 175.729 90.2348 177.139V185.628C90.2348 187.035 91.3108 188.175 92.638 188.175Z" fill="#368324"/>
<path d="M208.724 94.6091C203.041 83.399 195.01 74.2992 184.843 67.5554C178.886 63.6491 171.541 60.5419 163.021 58.3258C154.548 56.12 143.031 55 128.783 55H92.638C91.3108 55 90.2348 56.1439 90.2348 57.5541C90.2348 58.9609 91.3108 60.1014 92.638 60.1014H128.783C142.645 60.1014 153.778 61.1701 161.874 63.2804C169.908 65.3701 176.786 68.269 182.304 71.8885C191.747 78.1508 199.214 86.6087 204.491 97.0266C209.784 107.468 212.464 120.075 212.464 134.495C212.464 147.962 209.668 160.323 204.152 171.246C198.647 182.138 191.234 190.699 182.124 196.684C175.771 200.85 168.581 203.896 160.759 205.75C152.847 207.628 142.22 208.577 129.169 208.577H95.0412V201.561C95.0412 200.154 93.9653 199.01 92.638 199.01C91.3108 199.01 90.2348 200.154 90.2348 201.561V213.679H129.169C142.574 213.679 153.55 212.685 161.803 210.729C170.153 208.755 177.836 205.491 184.65 201.024C194.491 194.554 202.477 185.352 208.385 173.657C214.281 161.986 217.27 148.812 217.27 134.495C217.27 119.221 214.393 105.802 208.724 94.6091Z" fill="#368324"/>
<path d="M171.889 181.237C166.403 184.966 160.292 187.554 153.724 188.923C147.01 190.333 139.011 191.044 129.949 191.044H122.027C120.7 191.044 119.624 192.184 119.624 193.594C119.624 195.005 120.7 196.145 122.027 196.145H129.949C139.324 196.145 147.635 195.401 154.655 193.932C161.813 192.433 168.484 189.606 174.479 185.532C182.018 180.414 187.752 173.571 191.527 165.195C195.264 156.915 197.159 146.48 197.159 134.184C197.159 121.81 195.074 111.183 190.97 102.606C186.818 93.9398 180.549 87.0253 172.331 82.0503C166.426 78.4889 160.07 75.9826 153.44 74.5963C146.907 73.2304 139.005 72.5373 129.949 72.5373C128.619 72.5373 127.546 73.6777 127.546 75.0845C127.546 76.4982 128.619 77.6386 129.949 77.6386C138.695 77.6386 146.285 78.2977 152.509 79.602C158.636 80.8791 164.506 83.1942 169.953 86.4824C177.337 90.9555 182.968 97.1564 186.686 104.914C190.445 112.771 192.352 122.619 192.352 134.184C192.352 145.712 190.616 155.406 187.191 162.996C183.812 170.498 178.661 176.637 171.889 181.237Z" fill="#368324"/>
<path d="M118.909 156.573C118.687 156.734 118.629 157.058 118.78 157.294C118.932 157.533 119.231 157.594 119.454 157.43C120.265 156.833 121.183 156.297 122.176 155.832C126.895 153.633 132.307 153.633 137.027 155.832C138.029 156.3 138.953 156.843 139.775 157.448C139.858 157.509 139.952 157.54 140.048 157.54C140.2 157.54 140.351 157.461 140.448 157.314C140.596 157.075 140.541 156.754 140.322 156.591C139.449 155.949 138.47 155.375 137.413 154.88C132.449 152.568 126.757 152.568 121.792 154.88C120.742 155.368 119.772 155.938 118.909 156.573Z" fill="#272727"/>
<path d="M120.475 163.044V165.516C120.475 166.36 121.116 167.049 121.902 167.049H137.304C138.09 167.049 138.728 166.36 138.728 165.516V163.044C138.728 160.958 140.306 159.261 142.245 159.261H142.909C143.637 159.261 144.227 159.899 144.227 160.681V171.963H114.979V160.681C114.979 159.899 115.568 159.261 116.296 159.261H116.96C118.899 159.261 120.475 160.958 120.475 163.044ZM123.149 163.532H127.414C128.354 163.532 129.118 164.355 129.118 165.366V166.008H121.902C121.647 166.008 121.444 165.789 121.444 165.516V165.366C121.444 164.355 122.208 163.532 123.149 163.532ZM131.792 163.532H136.054C136.998 163.532 137.761 164.355 137.761 165.366V165.516C137.761 165.789 137.555 166.008 137.304 166.008H130.084V165.366C130.084 164.355 130.851 163.532 131.792 163.532ZM116.296 158.223C115.037 158.223 114.012 159.326 114.012 160.681V172.482C114.012 172.769 114.228 173.004 114.492 173.004H144.71C144.977 173.004 145.193 172.769 145.193 172.482V160.681C145.193 159.326 144.169 158.223 142.909 158.223H142.245C139.771 158.223 137.761 160.384 137.761 163.044V163.157C137.297 162.744 136.704 162.491 136.054 162.491H131.792C130.887 162.491 130.088 162.979 129.601 163.72C129.118 162.979 128.319 162.491 127.414 162.491H123.149C122.501 162.491 121.905 162.744 121.444 163.157V163.044C121.444 160.384 119.431 158.223 116.96 158.223H116.296Z" fill="#272727"/>
<path d="M123.529 143.663V136.417C123.529 135.833 123.973 135.359 124.514 135.359H134.736C135.277 135.359 135.719 135.833 135.719 136.417V143.663C135.719 144.25 135.277 144.725 134.736 144.725H124.514C123.973 144.725 123.529 144.25 123.529 143.663ZM134.736 145.763C135.812 145.763 136.685 144.82 136.685 143.663V136.417C136.685 135.26 135.812 134.321 134.736 134.321H124.514C123.438 134.321 122.565 135.26 122.565 136.417V143.663C122.565 144.82 123.438 145.763 124.514 145.763H134.736Z" fill="#272727"/>
<path d="M125.326 143.448H129.273C129.54 143.448 129.756 143.216 129.756 142.929C129.756 142.642 129.54 142.41 129.273 142.41H125.809V137.674H133.441V142.41H132.958C132.694 142.41 132.475 142.642 132.475 142.929C132.475 143.216 132.694 143.448 132.958 143.448H133.924C134.192 143.448 134.408 143.216 134.408 142.929V137.155C134.408 136.868 134.192 136.636 133.924 136.636H125.326C125.059 136.636 124.843 136.868 124.843 137.155V142.929C124.843 143.216 125.059 143.448 125.326 143.448Z" fill="#272727"/>
<path d="M131.573 142.727C131.56 142.697 131.547 142.669 131.528 142.639C131.511 142.611 131.492 142.584 131.47 142.56C131.379 142.464 131.254 142.41 131.128 142.41C130.999 142.41 130.877 142.464 130.787 142.56C130.764 142.584 130.745 142.611 130.725 142.639C130.709 142.669 130.693 142.697 130.68 142.727C130.671 142.761 130.661 142.792 130.655 142.826C130.648 142.86 130.645 142.895 130.645 142.929C130.645 142.963 130.648 142.997 130.655 143.028C130.661 143.062 130.671 143.096 130.68 143.127C130.693 143.158 130.709 143.188 130.725 143.216C130.745 143.243 130.764 143.27 130.787 143.294C130.877 143.393 130.999 143.448 131.128 143.448C131.254 143.448 131.379 143.393 131.47 143.294C131.56 143.199 131.611 143.065 131.611 142.929C131.611 142.895 131.608 142.86 131.602 142.826C131.595 142.792 131.586 142.761 131.573 142.727Z" fill="#272727"/>
<path d="M145.419 154.491C145.419 154.859 145.142 155.156 144.8 155.156C144.459 155.156 144.178 154.859 144.178 154.491C144.178 154.125 144.459 153.825 144.8 153.825C145.142 153.825 145.419 154.125 145.419 154.491ZM144.317 152.131V152.869C143.618 153.108 143.128 153.855 143.225 154.702C143.312 155.477 143.898 156.099 144.616 156.188C145.573 156.3 146.385 155.494 146.385 154.491C146.385 153.732 145.921 153.087 145.283 152.869V152.131C145.283 151.844 145.064 151.612 144.8 151.612C144.533 151.612 144.317 151.844 144.317 152.131Z" fill="#272727"/>
<path d="M144.153 149.905L145.58 145.046C145.721 144.561 146.137 144.233 146.611 144.233H149.967C150.441 144.233 150.856 144.561 150.998 145.046L152.425 149.905H144.153ZM148.791 171.963H147.79V150.943H148.791V171.963ZM153.475 150.731C153.566 150.598 153.591 150.427 153.546 150.267L151.919 144.732C151.652 143.813 150.866 143.195 149.967 143.195H146.611C145.715 143.195 144.929 143.813 144.658 144.732L143.031 150.267C142.986 150.427 143.012 150.598 143.106 150.731C143.196 150.864 143.341 150.943 143.495 150.943H146.823V172.482C146.823 172.769 147.039 173.004 147.306 173.004H149.275C149.539 173.004 149.758 172.769 149.758 172.482V150.943H153.086C153.24 150.943 153.385 150.864 153.475 150.731Z" fill="#272727"/>
<path d="M255.8 115.072C260.536 115.072 264.675 116.011 268.216 117.888C271.757 119.765 274.488 122.411 276.408 125.824C278.371 129.195 279.352 133.099 279.352 137.536C279.352 141.931 278.371 145.835 276.408 149.248C274.488 152.661 271.736 155.307 268.152 157.184C264.611 159.061 260.493 160 255.8 160H238.968V115.072H255.8ZM255.096 150.528C259.235 150.528 262.456 149.397 264.76 147.136C267.064 144.875 268.216 141.675 268.216 137.536C268.216 133.397 267.064 130.176 264.76 127.872C262.456 125.568 259.235 124.416 255.096 124.416H249.912V150.528H255.096ZM319.132 141.568C319.132 142.592 319.068 143.659 318.94 144.768H294.172C294.343 146.987 295.047 148.693 296.284 149.888C297.564 151.04 299.121 151.616 300.956 151.616C303.687 151.616 305.585 150.464 306.652 148.16H318.3C317.703 150.507 316.615 152.619 315.036 154.496C313.5 156.373 311.559 157.845 309.212 158.912C306.865 159.979 304.241 160.512 301.34 160.512C297.841 160.512 294.727 159.765 291.996 158.272C289.265 156.779 287.132 154.645 285.596 151.872C284.06 149.099 283.292 145.856 283.292 142.144C283.292 138.432 284.039 135.189 285.532 132.416C287.068 129.643 289.201 127.509 291.932 126.016C294.663 124.523 297.799 123.776 301.34 123.776C304.796 123.776 307.868 124.501 310.556 125.952C313.244 127.403 315.335 129.472 316.828 132.16C318.364 134.848 319.132 137.984 319.132 141.568ZM307.932 138.688C307.932 136.811 307.292 135.317 306.012 134.208C304.732 133.099 303.132 132.544 301.212 132.544C299.377 132.544 297.82 133.077 296.54 134.144C295.303 135.211 294.535 136.725 294.236 138.688H307.932ZM339.434 160.512C336.319 160.512 333.546 159.979 331.114 158.912C328.682 157.845 326.762 156.395 325.354 154.56C323.946 152.683 323.156 150.592 322.986 148.288H333.802C333.93 149.525 334.506 150.528 335.53 151.296C336.554 152.064 337.812 152.448 339.306 152.448C340.671 152.448 341.716 152.192 342.442 151.68C343.21 151.125 343.594 150.421 343.594 149.568C343.594 148.544 343.06 147.797 341.994 147.328C340.927 146.816 339.199 146.261 336.81 145.664C334.25 145.067 332.116 144.448 330.41 143.808C328.703 143.125 327.231 142.08 325.994 140.672C324.756 139.221 324.138 137.28 324.138 134.848C324.138 132.8 324.692 130.944 325.802 129.28C326.954 127.573 328.618 126.229 330.794 125.248C333.012 124.267 335.636 123.776 338.666 123.776C343.146 123.776 346.666 124.885 349.226 127.104C351.828 129.323 353.322 132.267 353.706 135.936H343.594C343.423 134.699 342.868 133.717 341.93 132.992C341.034 132.267 339.839 131.904 338.346 131.904C337.066 131.904 336.084 132.16 335.402 132.672C334.719 133.141 334.378 133.803 334.378 134.656C334.378 135.68 334.911 136.448 335.978 136.96C337.087 137.472 338.794 137.984 341.098 138.496C343.743 139.179 345.898 139.861 347.562 140.544C349.226 141.184 350.676 142.251 351.914 143.744C353.194 145.195 353.855 147.157 353.898 149.632C353.898 151.723 353.3 153.6 352.106 155.264C350.954 156.885 349.268 158.165 347.05 159.104C344.874 160.043 342.335 160.512 339.434 160.512ZM366.097 120.576C364.177 120.576 362.598 120.021 361.361 118.912C360.166 117.76 359.569 116.352 359.569 114.688C359.569 112.981 360.166 111.573 361.361 110.464C362.598 109.312 364.177 108.736 366.097 108.736C367.974 108.736 369.51 109.312 370.705 110.464C371.942 111.573 372.561 112.981 372.561 114.688C372.561 116.352 371.942 117.76 370.705 118.912C369.51 120.021 367.974 120.576 366.097 120.576ZM371.537 124.288V160H360.593V124.288H371.537ZM393.036 123.776C395.553 123.776 397.751 124.288 399.628 125.312C401.548 126.336 403.02 127.68 404.044 129.344V124.288H414.988V159.936C414.988 163.221 414.327 166.187 413.004 168.832C411.724 171.52 409.74 173.653 407.052 175.232C404.407 176.811 401.1 177.6 397.132 177.6C391.841 177.6 387.553 176.341 384.268 173.824C380.983 171.349 379.105 167.979 378.636 163.712H389.452C389.793 165.077 390.604 166.144 391.884 166.912C393.164 167.723 394.743 168.128 396.62 168.128C398.881 168.128 400.673 167.467 401.996 166.144C403.361 164.864 404.044 162.795 404.044 159.936V154.88C402.977 156.544 401.505 157.909 399.628 158.976C397.751 160 395.553 160.512 393.036 160.512C390.092 160.512 387.425 159.765 385.036 158.272C382.647 156.736 380.748 154.581 379.34 151.808C377.975 148.992 377.292 145.749 377.292 142.08C377.292 138.411 377.975 135.189 379.34 132.416C380.748 129.643 382.647 127.509 385.036 126.016C387.425 124.523 390.092 123.776 393.036 123.776ZM404.044 142.144C404.044 139.413 403.276 137.259 401.74 135.68C400.247 134.101 398.412 133.312 396.236 133.312C394.06 133.312 392.204 134.101 390.668 135.68C389.175 137.216 388.428 139.349 388.428 142.08C388.428 144.811 389.175 146.987 390.668 148.608C392.204 150.187 394.06 150.976 396.236 150.976C398.412 150.976 400.247 150.187 401.74 148.608C403.276 147.029 404.044 144.875 404.044 142.144ZM444.666 123.904C448.847 123.904 452.175 125.269 454.65 128C457.167 130.688 458.426 134.4 458.426 139.136V160H447.546V140.608C447.546 138.219 446.927 136.363 445.69 135.04C444.452 133.717 442.788 133.056 440.698 133.056C438.607 133.056 436.943 133.717 435.706 135.04C434.468 136.363 433.85 138.219 433.85 140.608V160H422.906V124.288H433.85V129.024C434.959 127.445 436.452 126.208 438.33 125.312C440.207 124.373 442.319 123.904 444.666 123.904Z" fill="#498623"/>
<path d="M530.473 115.072V160H519.529V133.056L509.481 160H500.649L490.537 132.992V160H479.593V115.072H492.521L505.129 146.176L517.609 115.072H530.473ZM543.847 120.576C541.927 120.576 540.348 120.021 539.111 118.912C537.916 117.76 537.319 116.352 537.319 114.688C537.319 112.981 537.916 111.573 539.111 110.464C540.348 109.312 541.927 108.736 543.847 108.736C545.724 108.736 547.26 109.312 548.455 110.464C549.692 111.573 550.311 112.981 550.311 114.688C550.311 116.352 549.692 117.76 548.455 118.912C547.26 120.021 545.724 120.576 543.847 120.576ZM549.287 124.288V160H538.343V124.288H549.287ZM578.978 123.904C583.159 123.904 586.487 125.269 588.962 128C591.479 130.688 592.738 134.4 592.738 139.136V160H581.858V140.608C581.858 138.219 581.239 136.363 580.002 135.04C578.765 133.717 577.101 133.056 575.01 133.056C572.919 133.056 571.255 133.717 570.018 135.04C568.781 136.363 568.162 138.219 568.162 140.608V160H557.218V124.288H568.162V129.024C569.271 127.445 570.765 126.208 572.642 125.312C574.519 124.373 576.631 123.904 578.978 123.904ZM634.007 141.568C634.007 142.592 633.943 143.659 633.815 144.768H609.047C609.218 146.987 609.922 148.693 611.159 149.888C612.439 151.04 613.996 151.616 615.831 151.616C618.562 151.616 620.46 150.464 621.527 148.16H633.175C632.578 150.507 631.49 152.619 629.911 154.496C628.375 156.373 626.434 157.845 624.087 158.912C621.74 159.979 619.116 160.512 616.215 160.512C612.716 160.512 609.602 159.765 606.871 158.272C604.14 156.779 602.007 154.645 600.471 151.872C598.935 149.099 598.167 145.856 598.167 142.144C598.167 138.432 598.914 135.189 600.407 132.416C601.943 129.643 604.076 127.509 606.807 126.016C609.538 124.523 612.674 123.776 616.215 123.776C619.671 123.776 622.743 124.501 625.431 125.952C628.119 127.403 630.21 129.472 631.703 132.16C633.239 134.848 634.007 137.984 634.007 141.568ZM622.807 138.688C622.807 136.811 622.167 135.317 620.887 134.208C619.607 133.099 618.007 132.544 616.087 132.544C614.252 132.544 612.695 133.077 611.415 134.144C610.178 135.211 609.41 136.725 609.111 138.688H622.807ZM654.309 160.512C651.194 160.512 648.421 159.979 645.989 158.912C643.557 157.845 641.637 156.395 640.229 154.56C638.821 152.683 638.031 150.592 637.861 148.288H648.677C648.805 149.525 649.381 150.528 650.405 151.296C651.429 152.064 652.687 152.448 654.181 152.448C655.546 152.448 656.591 152.192 657.317 151.68C658.085 151.125 658.469 150.421 658.469 149.568C658.469 148.544 657.935 147.797 656.869 147.328C655.802 146.816 654.074 146.261 651.685 145.664C649.125 145.067 646.991 144.448 645.285 143.808C643.578 143.125 642.106 142.08 640.869 140.672C639.631 139.221 639.013 137.28 639.013 134.848C639.013 132.8 639.567 130.944 640.677 129.28C641.829 127.573 643.493 126.229 645.669 125.248C647.887 124.267 650.511 123.776 653.541 123.776C658.021 123.776 661.541 124.885 664.101 127.104C666.703 129.323 668.197 132.267 668.581 135.936H658.469C658.298 134.699 657.743 133.717 656.805 132.992C655.909 132.267 654.714 131.904 653.221 131.904C651.941 131.904 650.959 132.16 650.277 132.672C649.594 133.141 649.253 133.803 649.253 134.656C649.253 135.68 649.786 136.448 650.853 136.96C651.962 137.472 653.669 137.984 655.973 138.496C658.618 139.179 660.773 139.861 662.437 140.544C664.101 141.184 665.551 142.251 666.789 143.744C668.069 145.195 668.73 147.157 668.773 149.632C668.773 151.723 668.175 153.6 666.981 155.264C665.829 156.885 664.143 158.165 661.925 159.104C659.749 160.043 657.21 160.512 654.309 160.512Z" fill="black"/>
</g>
<defs>
<filter id="filter0_d" x="-4" y="0" width="755" height="304" filterUnits="userSpaceOnUse" color-interpolation-filters="sRGB">
<feFlood flood-opacity="0" result="BackgroundImageFix"/>
<feColorMatrix in="SourceAlpha" type="matrix" values="0 0 0 0 0 0 0 0 0 0 0 0 0 0 0 0 0 0 127 0"/>
<feOffset dy="4"/>
<feGaussianBlur stdDeviation="2"/>
<feColorMatrix type="matrix" values="0 0 0 0 0 0 0 0 0 0 0 0 0 0 0 0 0 0 0.25 0"/>
<feBlend mode="normal" in2="BackgroundImageFix" result="effect1_dropShadow"/>
<feBlend mode="normal" in="SourceGraphic" in2="effect1_dropShadow" result="shape"/>
</filter>
</defs>
</svg>
