<svg width="482" height="132" viewBox="0 0 482 132" fill="none" xmlns="http://www.w3.org/2000/svg">
<g clip-path="url(#clip0)">
<rect x="161" y="34" width="312" height="64" fill="#F2EEEE"/>
<path d="M14.92 93V36.2H35.56C41.7467 36.2 46.92 37.48 51.08 40.04C55.24 42.5467 58.36 45.96 60.44 50.28C62.52 54.5467 63.56 59.2933 63.56 64.52C63.56 70.28 62.4133 75.2933 60.12 79.56C57.8267 83.8267 54.5733 87.1333 50.36 89.48C46.1467 91.8267 41.2133 93 35.56 93H14.92ZM52.44 64.52C52.44 60.84 51.7733 57.6133 50.44 54.84C49.1067 52.0133 47.1867 49.8267 44.68 48.28C42.1733 46.68 39.1333 45.88 35.56 45.88H25.96V83.32H35.56C39.1867 83.32 42.2533 82.52 44.76 80.92C47.2667 79.2667 49.16 77.0267 50.44 74.2C51.7733 71.32 52.44 68.0933 52.44 64.52ZM90.5856 93.8C86.0523 93.8 82.1323 92.8133 78.8256 90.84C75.5723 88.8667 73.039 86.2533 71.2256 83C69.4123 79.6933 68.5056 76.12 68.5056 72.28C68.5056 68.3333 69.3856 64.7067 71.1456 61.4C72.959 58.04 75.519 55.3733 78.8256 53.4C82.1323 51.3733 86.079 50.36 90.6656 50.36C95.2523 50.36 99.1723 51.3733 102.426 53.4C105.679 55.3733 108.159 58.0133 109.866 61.32C111.626 64.5733 112.506 68.0933 112.506 71.88C112.506 73.2667 112.426 74.4667 112.266 75.48H79.8656C80.1323 78.7333 81.3323 81.2933 83.4656 83.16C85.6523 85.0267 88.159 85.96 90.9856 85.96C93.119 85.96 95.119 85.4533 96.9856 84.44C98.9056 83.3733 100.212 81.9867 100.906 80.28L110.106 82.84C108.559 86.04 106.079 88.68 102.666 90.76C99.2523 92.7867 95.2256 93.8 90.5856 93.8ZM79.6256 68.68H101.546C101.226 65.5333 100.026 63 97.9456 61.08C95.919 59.1067 93.439 58.12 90.5056 58.12C87.6256 58.12 85.1456 59.1067 83.0656 61.08C81.039 63 79.8923 65.5333 79.6256 68.68ZM129.144 93L113.704 51.08H124.824L135.384 83.24L146.024 51.08H156.184L140.824 93H129.144Z" fill="#FFFAFA"/>
<path d="M202.329 83.32V93H162.889V36.2H201.609V45.88H173.929V59.56H197.849V68.52H173.929V83.32H202.329ZM225.179 93.8C221.606 93.8 218.193 93.2133 214.939 92.04C211.686 90.8667 208.886 89.1333 206.539 86.84L210.379 79.88C212.886 81.9067 215.339 83.4 217.739 84.36C220.139 85.32 222.486 85.8 224.779 85.8C226.859 85.8 228.513 85.4267 229.739 84.68C231.019 83.9333 231.659 82.8133 231.659 81.32C231.659 79.7733 230.886 78.7333 229.339 78.2C227.793 77.6133 225.633 76.8933 222.859 76.04C219.766 75.08 217.179 74.0933 215.099 73.08C213.019 72.0667 211.446 70.84 210.379 69.4C209.366 67.96 208.859 66.0933 208.859 63.8C208.859 59.6933 210.406 56.4133 213.499 53.96C216.593 51.5067 220.699 50.28 225.819 50.28C228.806 50.28 231.633 50.76 234.299 51.72C236.966 52.6267 239.393 54.12 241.579 56.2L237.259 63C233.153 59.8 229.179 58.2 225.339 58.2C223.633 58.2 222.113 58.52 220.779 59.16C219.499 59.8 218.859 60.92 218.859 62.52C218.859 64.0133 219.473 65.08 220.699 65.72C221.979 66.36 223.899 67.0533 226.459 67.8C229.766 68.8133 232.566 69.8 234.859 70.76C237.206 71.72 238.966 72.9467 240.139 74.44C241.366 75.9333 241.979 77.96 241.979 80.52C241.979 84.68 240.459 87.9333 237.419 90.28C234.379 92.6267 230.299 93.8 225.179 93.8ZM264.711 93.8C261.137 93.8 257.724 93.2133 254.471 92.04C251.217 90.8667 248.417 89.1333 246.071 86.84L249.911 79.88C252.417 81.9067 254.871 83.4 257.271 84.36C259.671 85.32 262.017 85.8 264.311 85.8C266.391 85.8 268.044 85.4267 269.271 84.68C270.551 83.9333 271.191 82.8133 271.191 81.32C271.191 79.7733 270.417 78.7333 268.871 78.2C267.324 77.6133 265.164 76.8933 262.391 76.04C259.297 75.08 256.711 74.0933 254.631 73.08C252.551 72.0667 250.977 70.84 249.911 69.4C248.897 67.96 248.391 66.0933 248.391 63.8C248.391 59.6933 249.937 56.4133 253.031 53.96C256.124 51.5067 260.231 50.28 265.351 50.28C268.337 50.28 271.164 50.76 273.831 51.72C276.497 52.6267 278.924 54.12 281.111 56.2L276.791 63C272.684 59.8 268.711 58.2 264.871 58.2C263.164 58.2 261.644 58.52 260.311 59.16C259.031 59.8 258.391 60.92 258.391 62.52C258.391 64.0133 259.004 65.08 260.231 65.72C261.511 66.36 263.431 67.0533 265.991 67.8C269.297 68.8133 272.097 69.8 274.391 70.76C276.737 71.72 278.497 72.9467 279.671 74.44C280.897 75.9333 281.511 77.96 281.511 80.52C281.511 84.68 279.991 87.9333 276.951 90.28C273.911 92.6267 269.831 93.8 264.711 93.8ZM308.242 93.8C303.709 93.8 299.789 92.8133 296.482 90.84C293.229 88.8667 290.695 86.2533 288.882 83C287.069 79.6933 286.162 76.12 286.162 72.28C286.162 68.3333 287.042 64.7067 288.802 61.4C290.615 58.04 293.175 55.3733 296.482 53.4C299.789 51.3733 303.735 50.36 308.322 50.36C312.909 50.36 316.829 51.3733 320.082 53.4C323.335 55.3733 325.815 58.0133 327.522 61.32C329.282 64.5733 330.162 68.0933 330.162 71.88C330.162 73.2667 330.082 74.4667 329.922 75.48H297.522C297.789 78.7333 298.989 81.2933 301.122 83.16C303.309 85.0267 305.815 85.96 308.642 85.96C310.775 85.96 312.775 85.4533 314.642 84.44C316.562 83.3733 317.869 81.9867 318.562 80.28L327.762 82.84C326.215 86.04 323.735 88.68 320.322 90.76C316.909 92.7867 312.882 93.8 308.242 93.8ZM297.282 68.68H319.202C318.882 65.5333 317.682 63 315.602 61.08C313.575 59.1067 311.095 58.12 308.162 58.12C305.282 58.12 302.802 59.1067 300.722 61.08C298.695 63 297.549 65.5333 297.282 68.68ZM375.653 93H364.933V69.48C364.933 66.12 364.346 63.6667 363.173 62.12C361.999 60.5733 360.373 59.8 358.293 59.8C356.853 59.8 355.386 60.1733 353.893 60.92C352.453 61.6667 351.146 62.7067 349.973 64.04C348.799 65.32 347.946 66.8133 347.413 68.52V93H336.693V51.08H346.373V58.84C347.919 56.2267 350.159 54.1733 353.093 52.68C356.026 51.1333 359.333 50.36 363.013 50.36C365.626 50.36 367.759 50.84 369.413 51.8C371.066 52.7067 372.346 53.96 373.253 55.56C374.159 57.1067 374.773 58.8667 375.093 60.84C375.466 62.8133 375.653 64.8133 375.653 66.84V93ZM404.494 93.8C399.96 93.8 396.04 92.7867 392.734 90.76C389.427 88.7333 386.867 86.0667 385.054 82.76C383.24 79.4533 382.334 75.88 382.334 72.04C382.334 68.1467 383.214 64.5467 384.974 61.24C386.787 57.9333 389.347 55.2933 392.654 53.32C395.96 51.3467 399.88 50.36 404.414 50.36C409 50.36 412.894 51.3467 416.094 53.32C419.347 55.2933 421.774 57.88 423.374 61.08L412.894 64.28C411.027 61.08 408.174 59.48 404.334 59.48C402.254 59.48 400.387 60.0133 398.734 61.08C397.08 62.0933 395.774 63.56 394.814 65.48C393.854 67.3467 393.374 69.5333 393.374 72.04C393.374 74.4933 393.854 76.68 394.814 78.6C395.827 80.4667 397.16 81.96 398.814 83.08C400.467 84.1467 402.307 84.68 404.334 84.68C406.254 84.68 408.014 84.2267 409.614 83.32C411.267 82.36 412.414 81.16 413.054 79.72L423.534 82.92C422.094 86.0667 419.694 88.68 416.334 90.76C413.027 92.7867 409.08 93.8 404.494 93.8ZM449.179 93.8C444.646 93.8 440.726 92.8133 437.419 90.84C434.166 88.8667 431.633 86.2533 429.819 83C428.006 79.6933 427.099 76.12 427.099 72.28C427.099 68.3333 427.979 64.7067 429.739 61.4C431.553 58.04 434.113 55.3733 437.419 53.4C440.726 51.3733 444.673 50.36 449.259 50.36C453.846 50.36 457.766 51.3733 461.019 53.4C464.273 55.3733 466.753 58.0133 468.459 61.32C470.219 64.5733 471.099 68.0933 471.099 71.88C471.099 73.2667 471.019 74.4667 470.859 75.48H438.459C438.726 78.7333 439.926 81.2933 442.059 83.16C444.246 85.0267 446.753 85.96 449.579 85.96C451.713 85.96 453.713 85.4533 455.579 84.44C457.499 83.3733 458.806 81.9867 459.499 80.28L468.699 82.84C467.153 86.04 464.673 88.68 461.259 90.76C457.846 92.7867 453.819 93.8 449.179 93.8ZM438.219 68.68H460.139C459.819 65.5333 458.619 63 456.539 61.08C454.513 59.1067 452.033 58.12 449.099 58.12C446.219 58.12 443.739 59.1067 441.659 61.08C439.633 63 438.486 65.5333 438.219 68.68Z" fill="#292727"/>
</g>
<defs>
<clipPath id="clip0">
<rect width="482" height="132" fill="white"/>
</clipPath>
</defs>
</svg>
