<svg width="166" height="48" viewBox="0 0 166 48" fill="none" xmlns="http://www.w3.org/2000/svg">
<g filter="url(#filter0_i_28_107)">
<path d="M21.8853 3.15699C21.2815 3.43624 21.2105 4.24115 21.7255 4.75038C22.0451 5.07891 22.0806 5.37459 22.1161 8.79135C22.1516 12.3888 22.1339 12.4709 21.761 12.7009C21.2993 12.9966 21.246 13.8836 21.7077 14.245C22.2759 14.7214 22.7731 14.7542 23.4301 14.3764C24.1937 13.9329 24.2292 13.5058 23.5189 12.7338L22.9862 12.1752V8.79135V5.40745L23.5189 4.93107C24.1759 4.33971 24.1937 3.92904 23.5722 3.33768C23.0572 2.82845 22.6311 2.77917 21.8853 3.15699Z" fill="black"/>
<path d="M16.7181 4.48755C16.3097 4.89822 16.3452 5.71955 16.7713 6.08094C17.1087 6.36019 17.1265 6.59017 17.1265 10.0233C17.1265 13.4565 17.1087 13.6865 16.7713 13.9658C16.576 14.13 16.4162 14.4586 16.4162 14.705C16.4162 15.2142 17.0732 15.8548 17.5882 15.8548C18.0498 15.8384 18.6891 15.3456 18.7423 14.9514C18.8311 14.4257 18.5648 13.7194 18.2807 13.7194C18.0498 13.7194 18.0143 13.1773 18.0143 10.0233C18.0143 6.90227 18.0498 6.32734 18.2807 6.32734C18.4227 6.32734 18.6713 6.06451 18.8311 5.73598C19.133 5.16104 19.133 5.16104 18.6358 4.66824C18.0321 4.10973 17.162 4.0276 16.7181 4.48755Z" fill="black"/>
<path d="M26.8039 4.66824C26.3245 5.14462 26.3245 5.17747 26.5908 5.71955C26.7506 6.03166 26.9992 6.37662 27.1591 6.49161C27.3721 6.65587 27.4254 7.24723 27.4254 9.95764V13.2101L26.8927 13.7686C26.2357 14.4586 26.2357 14.705 26.8217 15.3456C27.4254 16.0191 28.1002 16.0355 28.6329 15.362C29.1123 14.7542 29.1301 14.4093 28.6506 13.9493C28.2955 13.6044 28.2955 13.4237 28.3132 10.0069C28.331 6.6723 28.3488 6.39305 28.6684 6.08094C28.8637 5.88382 29.0235 5.506 29.0235 5.22675C29.0235 4.15901 27.6918 3.83048 26.8039 4.66824Z" fill="black"/>
<path d="M11.9947 5.42388C11.7638 5.53886 11.462 5.8674 11.3022 6.16308C11.0358 6.65588 11.0536 6.68873 11.604 7.19796L12.1545 7.74004V11.1732L12.1367 14.6228L11.6395 15.1649C11.1601 15.6906 11.1424 15.7234 11.4087 16.2655C11.5685 16.594 11.9059 16.9061 12.19 17.0211C12.6517 17.2018 12.7582 17.169 13.2199 16.7583C13.8414 16.1998 13.8947 15.6249 13.3975 15.0335C13.0779 14.6557 13.0423 14.3436 13.0423 11.1568C13.0423 7.90431 13.0601 7.67433 13.3975 7.39508C13.9302 6.95156 13.8592 6.16308 13.2554 5.621C12.705 5.1282 12.6162 5.11177 11.9947 5.42388Z" fill="black"/>
<path d="M32.1843 5.45675C31.7581 5.65387 31.6871 5.78528 31.6871 6.39307C31.6871 6.88587 31.7936 7.18155 32.0422 7.3951C32.3796 7.67435 32.3973 7.90433 32.3973 11.1732C32.3973 14.4422 32.3796 14.6721 32.0422 14.9514C31.8114 15.1485 31.6871 15.4606 31.6871 15.8713C31.6871 16.3641 31.7936 16.5612 32.202 16.824C32.8413 17.2511 32.8413 17.2511 33.4805 16.824C34.1198 16.4134 34.1908 15.5756 33.6403 15.1157C33.3029 14.8364 33.2852 14.6064 33.2852 11.2554C33.2852 7.90433 33.3029 7.67435 33.6403 7.3951C33.8889 7.18155 33.9955 6.88587 33.9955 6.39307C33.9955 5.76886 33.9244 5.6703 33.4272 5.44032C32.788 5.14464 32.8235 5.14464 32.1843 5.45675Z" fill="black"/>
<path d="M36.0375 10.0891C35.8421 10.1712 35.558 10.4176 35.4337 10.6476C35.2207 11.009 35.2207 11.1568 35.487 11.6496C35.6468 11.9781 35.9132 12.2902 36.073 12.3724C36.2683 12.4874 36.3216 12.6188 36.215 12.8323C36.1263 13.013 36.0907 13.2101 36.1085 13.2758C36.1263 13.3416 36.144 16.8569 36.1618 21.0621C36.1795 27.4192 36.1263 28.7498 35.9309 28.8976C35.7889 28.9962 35.5758 29.259 35.4515 29.4726C35.2562 29.7847 35.2562 29.9325 35.5048 30.4089C35.7534 30.9181 35.8599 30.9674 36.5524 30.9674C37.1739 30.9674 37.387 30.8853 37.6178 30.5567C38.0085 30.0147 37.973 29.4069 37.529 29.144C37.1739 28.9141 37.1739 28.8155 37.1739 20.635C37.1917 12.5695 37.1917 12.3395 37.5468 11.9946C38.4702 11.0911 37.2982 9.61269 36.0375 10.0891Z" fill="black"/>
<path d="M7.83962 10.4012C7.43121 10.8118 7.46672 11.6332 7.89289 11.9946C8.23027 12.2902 8.24802 12.5038 8.24802 20.5529C8.24802 25.6123 8.177 28.8483 8.07046 28.9141C7.98167 28.9633 7.75083 29.2262 7.53775 29.489L7.16486 29.9654L7.89289 30.6389L8.62092 31.3123L9.15362 30.951C9.43773 30.7703 9.81063 30.4253 9.97044 30.2118C10.2368 29.8175 10.2368 29.7847 9.68633 29.2754L9.13587 28.7334V20.52V12.3067L9.66857 11.8303C10.3256 11.2554 10.3256 11.1075 9.70409 10.549C9.11811 10.0234 8.26578 9.95765 7.83962 10.4012Z" fill="black"/>
<path d="M4.46582 15.4606C4.3948 15.5263 4.34153 16.3969 4.34153 17.3825C4.34153 19.0745 4.32377 19.2059 3.87985 19.6823C3.34714 20.2572 3.40041 20.9307 3.98639 21.522C4.2705 21.8013 4.34153 22.1463 4.37704 23.7397L4.43031 25.6287H4.96301H5.49572L5.54899 23.7232C5.5845 22.0641 5.63777 21.7684 5.93964 21.522C6.40132 21.1278 6.40132 20.2408 5.93964 19.633C5.65553 19.2716 5.5845 18.8609 5.54899 17.3168C5.49572 15.4442 5.49572 15.4442 5.0518 15.3949C4.8032 15.362 4.53685 15.3949 4.46582 15.4606Z" fill="black"/>
<path d="M39.9795 15.4606C39.9085 15.5263 39.8552 16.3969 39.8552 17.3825C39.8552 19.058 39.8197 19.2059 39.4113 19.6658C38.8963 20.2408 38.9318 20.9307 39.5178 21.522C39.7842 21.8013 39.8552 22.1791 39.8907 23.7397L39.944 25.6287H40.4767H41.0094L41.0627 23.7561C41.0982 22.1955 41.1692 21.8177 41.4533 21.4728C41.8972 20.9635 41.8972 20.4543 41.4533 19.7315C41.187 19.2716 41.0982 18.7788 41.0627 17.3004C41.0094 15.4442 41.0094 15.4442 40.5655 15.3949C40.3169 15.362 40.0505 15.3949 39.9795 15.4606Z" fill="black"/>
<path d="M11.9947 19.1237C11.6928 19.633 11.7639 20.5364 12.119 20.8321C12.3676 21.0457 12.776 21.1114 13.6993 21.1114C14.7115 21.1114 14.9956 21.1771 15.262 21.4399C15.7059 21.8999 16.9489 21.8999 17.3928 21.4399C17.6591 21.1607 17.9077 21.1114 18.618 21.1442C19.3993 21.1935 19.5236 21.2428 19.6124 21.6042C19.6834 21.8999 19.8432 22.0313 20.1984 22.0641C20.4647 22.097 20.6956 22.0641 20.6956 21.982C21.0152 20.3229 20.6956 19.9615 18.9554 19.9615C17.8722 19.9615 17.6059 19.9122 17.3573 19.633C17.1442 19.403 16.8246 19.3044 16.3096 19.3044C15.8124 19.3044 15.4928 19.403 15.262 19.633C14.8358 20.0765 13.2554 20.1094 13.1134 19.6658C12.8293 18.8281 12.3143 18.5652 11.9947 19.1237Z" fill="black"/>
<path d="M32.4506 19.0088C32.3441 19.1237 32.2375 19.3701 32.1843 19.5508C32.131 19.8301 31.9712 19.8958 31.1721 19.9286C30.3731 19.9779 30.1777 19.9286 29.9647 19.6494C29.6273 19.1894 28.4908 19.173 28.0469 19.633C27.7806 19.9122 27.4965 19.9615 26.36 19.9615C25.5432 19.9615 24.9217 20.0436 24.7974 20.1586C24.4423 20.4872 24.5311 21.8998 24.904 22.0805C25.3479 22.2941 25.8273 21.9984 25.8273 21.522C25.8273 21.1442 25.8806 21.1114 26.7684 21.1114C27.4965 21.1114 27.7983 21.1935 28.0469 21.4399C28.4908 21.8834 29.6273 21.8834 29.9647 21.4399C30.16 21.1771 30.4441 21.1114 31.6871 21.0785C33.1431 21.0292 33.1964 21.0128 33.3562 20.5857C33.7114 19.6494 32.9833 18.3845 32.4506 19.0088Z" fill="black"/>
<path d="M12.1546 24.1832C11.2134 24.5117 11.0181 25.2673 11.7106 25.8751L12.1546 26.2529V32.2322C12.1546 37.3409 12.119 38.2116 11.8882 38.2937C11.7462 38.343 11.5153 38.6222 11.3555 38.9015C11.1069 39.3779 11.1069 39.4271 11.5508 39.9528C11.8882 40.3799 12.119 40.4949 12.5807 40.4949C13.6106 40.4949 14.1433 39.23 13.3975 38.6058C13.0602 38.3265 13.0424 38.0966 13.0424 32.2815C13.0424 26.4665 13.0602 26.2365 13.3975 25.9572C13.9125 25.5302 13.8592 24.8238 13.291 24.4131C12.8116 24.0682 12.6162 24.0189 12.1546 24.1832Z" fill="black"/>
<path d="M32.1665 24.3474C31.5628 24.6267 31.4917 25.4973 32.0422 25.9573C32.3796 26.2365 32.3973 26.4665 32.3973 32.1666V38.0637L31.9357 38.573C31.4385 39.1151 31.4562 39.6571 31.9889 40.1992C32.3618 40.5935 33.3207 40.577 33.6936 40.1992C34.1197 39.7557 34.0842 38.7372 33.6403 38.4908C33.3029 38.2937 33.2852 38.0966 33.2852 32.2651C33.2852 26.4665 33.3029 26.2365 33.6403 25.9573C34.6525 25.1195 33.3917 23.7397 32.1665 24.3474Z" fill="black"/>
<path d="M16.9134 26.7457C16.3274 27.1893 16.2564 27.8299 16.7713 28.257C17.0909 28.5363 17.1264 28.7662 17.1264 31.0824C17.1264 33.3657 17.0909 33.6121 16.8246 33.5628C16.6648 33.53 16.3629 33.2179 16.1321 32.8565C15.8124 32.3144 15.6349 32.183 15.1199 32.1501C14.1255 32.068 13.5751 32.4951 13.5751 33.3493C13.5751 34.3184 13.9835 34.6306 15.262 34.5977C15.9012 34.5977 16.3984 34.6798 16.6825 34.8441C17.1264 35.1069 17.1264 35.1234 17.1264 37.8666C17.1264 40.3963 17.0909 40.6263 16.7713 40.9056C16.5582 41.0862 16.4162 41.4148 16.4162 41.7269C16.4162 42.8439 17.8012 43.1889 18.6358 42.2854C18.8844 42.0061 19.0442 41.6776 18.9909 41.579C18.9376 41.4805 18.8489 41.2669 18.7956 41.1191C18.7423 40.9548 18.5292 40.7906 18.3517 40.7413C18.032 40.6427 18.0143 40.4456 18.0143 38.0966C18.0143 36.7003 18.0853 35.5669 18.1563 35.5669C18.3517 35.5669 21.7077 37.1438 21.9918 37.3574C22.1339 37.4724 22.1871 38.3266 22.1516 40.1828C22.0984 42.5975 22.0628 42.8932 21.7432 43.2053C21.2993 43.6488 21.2815 44.4701 21.7077 44.8151C22.0451 45.0944 23.1105 45.1929 23.4301 44.9629C23.5367 44.8972 23.7142 44.6673 23.8385 44.4701C24.0339 44.1416 24.0339 43.9938 23.803 43.5338C23.6432 43.2381 23.3946 42.9589 23.2526 42.8932C23.0395 42.8275 22.9862 42.3675 22.9862 40.1992C22.9862 38.2937 23.0395 37.5381 23.217 37.4067C23.7142 37.0289 26.9993 35.5669 27.1946 35.6326C27.3544 35.6983 27.4077 36.3718 27.4077 37.9652L27.4254 40.1992L26.8927 40.7906C26.5908 41.1191 26.36 41.5133 26.36 41.6448C26.36 42.0883 27.3011 42.7946 27.9049 42.7946C28.8815 42.7946 29.3787 41.6119 28.6862 40.922C28.3843 40.6263 28.331 40.2321 28.2777 37.883C28.189 35.3533 28.2067 35.1891 28.5441 34.8934C28.9525 34.5484 29.574 34.4827 30.0534 34.762C30.4618 35.0084 31.2254 34.5813 31.5983 33.9078C31.8291 33.53 31.8291 33.3986 31.616 33.0207C31.3142 32.4787 30.817 32.1337 30.3375 32.1173C29.8581 32.1173 29.0946 32.6594 28.8105 33.2179C28.2955 34.187 28.189 33.8256 28.1534 31.2467C28.1357 28.7498 28.1357 28.7334 28.5796 28.3391C29.1301 27.8628 29.1478 27.3535 28.6329 26.91C27.9404 26.3022 27.1413 26.4008 26.6264 27.1236C26.3423 27.5178 26.36 27.5671 26.8394 28.142C27.3366 28.7498 27.3366 28.7827 27.3721 31.2959C27.3899 33.0536 27.3366 33.9242 27.1946 34.0885C27.0703 34.2199 26.431 34.5977 25.7385 34.9098C25.0638 35.2219 24.2647 35.6162 23.9983 35.7804C23.1105 36.3389 23.0217 36.1582 23.004 33.5628C22.9684 31.2302 22.9862 31.1974 23.4301 30.8031C23.9628 30.3268 23.9983 29.834 23.5012 29.259C23.0395 28.7169 22.2937 28.7005 21.7787 29.2097C21.2638 29.7025 21.2815 30.0639 21.832 30.6717C22.2582 31.1317 22.2759 31.2467 22.2759 33.4478C22.2759 35.3205 22.2227 35.764 22.0096 35.8297C21.7432 35.9283 19.4171 34.9591 18.5115 34.3677L18.0143 34.072V31.2959C18.0143 28.7498 18.0498 28.5034 18.3517 28.3556C18.9199 28.0599 18.9376 27.3535 18.3694 26.8279C17.7657 26.2694 17.5526 26.2694 16.9134 26.7457Z" fill="black"/>
</g>
<path d="M51.735 34L44.56 15.73H47.78L53.52 31.06L59.26 15.73H62.27L55.095 34H51.735ZM72.822 34.35C71.4453 34.35 70.1853 34.105 69.042 33.615C67.922 33.1017 66.942 32.4133 66.102 31.55C65.2853 30.6633 64.6436 29.6483 64.177 28.505C63.7336 27.3617 63.512 26.1483 63.512 24.865C63.512 23.1383 63.9086 21.5633 64.702 20.14C65.4953 18.7167 66.592 17.5733 67.992 16.71C69.4153 15.8467 71.037 15.415 72.857 15.415C74.7003 15.415 76.2986 15.8583 77.652 16.745C79.0286 17.6083 80.0903 18.7517 80.837 20.175C81.607 21.575 81.992 23.0917 81.992 24.725C81.992 24.9583 81.9803 25.1917 81.957 25.425C81.957 25.635 81.9453 25.7983 81.922 25.915H66.767C66.8603 27.105 67.187 28.1667 67.747 29.1C68.3303 30.01 69.077 30.7333 69.987 31.27C70.897 31.7833 71.877 32.04 72.927 32.04C74.047 32.04 75.097 31.76 76.077 31.2C77.0803 30.64 77.7686 29.905 78.142 28.995L80.802 29.73C80.4053 30.6167 79.8103 31.41 79.017 32.11C78.247 32.81 77.3253 33.3583 76.252 33.755C75.202 34.1517 74.0586 34.35 72.822 34.35ZM66.662 23.78H79.122C79.0286 22.59 78.6903 21.54 78.107 20.63C77.5236 19.72 76.777 19.0083 75.867 18.495C74.957 17.9817 73.9536 17.725 72.857 17.725C71.7836 17.725 70.792 17.9817 69.882 18.495C68.972 19.0083 68.2253 19.72 67.642 20.63C67.082 21.54 66.7553 22.59 66.662 23.78ZM101.271 34H98.1907V23.78C98.1907 21.8433 97.8873 20.4317 97.2807 19.545C96.6973 18.635 95.799 18.18 94.5857 18.18C93.7457 18.18 92.9057 18.39 92.0657 18.81C91.249 19.23 90.514 19.8017 89.8607 20.525C89.2307 21.225 88.7757 22.0417 88.4957 22.975V34H85.4157V15.73H88.2157V19.65C88.7057 18.7867 89.3357 18.04 90.1057 17.41C90.8757 16.78 91.7507 16.29 92.7307 15.94C93.7107 15.59 94.7373 15.415 95.8107 15.415C96.8607 15.415 97.7357 15.6133 98.4357 16.01C99.159 16.3833 99.719 16.92 100.116 17.62C100.536 18.2967 100.827 19.1017 100.991 20.035C101.177 20.9683 101.271 21.9833 101.271 23.08V34ZM113.34 34.21C112.104 34.21 110.96 33.965 109.91 33.475C108.884 32.9617 107.997 32.2733 107.25 31.41C106.504 30.5233 105.92 29.52 105.5 28.4C105.104 27.28 104.905 26.1133 104.905 24.9C104.905 23.6167 105.104 22.4033 105.5 21.26C105.92 20.1167 106.504 19.1133 107.25 18.25C108.02 17.3633 108.919 16.675 109.945 16.185C110.972 15.6717 112.115 15.415 113.375 15.415C114.892 15.415 116.21 15.7883 117.33 16.535C118.474 17.2817 119.43 18.2267 120.2 19.37V15.73H122.93V33.79C122.93 35.5167 122.51 36.975 121.67 38.165C120.854 39.355 119.734 40.2533 118.31 40.86C116.91 41.49 115.347 41.805 113.62 41.805C111.567 41.805 109.887 41.4433 108.58 40.72C107.274 39.9967 106.189 39.0167 105.325 37.78L107.11 36.205C107.834 37.2783 108.767 38.0833 109.91 38.62C111.077 39.1567 112.314 39.425 113.62 39.425C114.74 39.425 115.767 39.215 116.7 38.795C117.657 38.3983 118.415 37.78 118.975 36.94C119.559 36.1 119.85 35.05 119.85 33.79V30.57C119.174 31.69 118.24 32.5767 117.05 33.23C115.884 33.8833 114.647 34.21 113.34 34.21ZM114.285 31.69C114.939 31.69 115.569 31.5733 116.175 31.34C116.782 31.1067 117.342 30.8033 117.855 30.43C118.369 30.0333 118.8 29.59 119.15 29.1C119.5 28.61 119.734 28.1083 119.85 27.595V22.345C119.524 21.505 119.057 20.77 118.45 20.14C117.844 19.4867 117.155 18.985 116.385 18.635C115.615 18.2617 114.822 18.075 114.005 18.075C113.072 18.075 112.232 18.2733 111.485 18.67C110.762 19.0667 110.144 19.6033 109.63 20.28C109.117 20.9333 108.72 21.6683 108.44 22.485C108.16 23.3017 108.02 24.13 108.02 24.97C108.02 25.88 108.184 26.7433 108.51 27.56C108.837 28.3533 109.28 29.065 109.84 29.695C110.4 30.325 111.065 30.815 111.835 31.165C112.605 31.515 113.422 31.69 114.285 31.69ZM127.901 34V15.73H130.981V34H127.901ZM127.901 12.3V8.45H130.981V12.3H127.901ZM137.332 15.73L142.162 22.45L142.442 23.01L142.757 22.45L147.552 15.73H150.982L144.227 24.9L151.017 34H147.587L142.757 27.315L142.442 26.79L142.162 27.315L137.332 34H133.902L140.692 24.9L133.937 15.73H137.332Z" fill="black"/>
<defs>
<filter id="filter0_i_28_107" x="0" y="2" width="46" height="48" filterUnits="userSpaceOnUse" color-interpolation-filters="sRGB">
<feFlood flood-opacity="0" result="BackgroundImageFix"/>
<feBlend mode="normal" in="SourceGraphic" in2="BackgroundImageFix" result="shape"/>
<feColorMatrix in="SourceAlpha" type="matrix" values="0 0 0 0 0 0 0 0 0 0 0 0 0 0 0 0 0 0 127 0" result="hardAlpha"/>
<feOffset dy="4"/>
<feGaussianBlur stdDeviation="2"/>
<feComposite in2="hardAlpha" operator="arithmetic" k2="-1" k3="1"/>
<feColorMatrix type="matrix" values="0 0 0 0 0 0 0 0 0 0 0 0 0 0 0 0 0 0 0.25 0"/>
<feBlend mode="normal" in2="shape" result="effect1_innerShadow_28_107"/>
</filter>
</defs>
</svg>
