<svg width="166" height="48" viewBox="0 0 166 48" fill="none" xmlns="http://www.w3.org/2000/svg">
<g clip-path="url(#clip0_28_107)">
<g filter="url(#filter0_i_28_107)">
<path d="M21.7399 1.26215C21.0574 1.56679 20.9771 2.44487 21.5592 3.00039C21.9205 3.3588 21.9607 3.68136 22.0008 7.40872C22.041 11.3332 22.0209 11.4228 21.5994 11.6737C21.0775 11.9963 21.0173 12.9639 21.5391 13.3582C22.1815 13.8779 22.7435 13.9137 23.4862 13.5015C24.3494 13.0177 24.3895 12.5518 23.5866 11.7095L22.9844 11.1003V7.40872V3.7172L23.5866 3.19752C24.3293 2.55239 24.3494 2.10439 23.6468 1.45927C23.0647 0.903751 22.5829 0.849991 21.7399 1.26215Z" fill="black"/>
<path d="M15.8987 2.71365C15.437 3.16165 15.4771 4.05765 15.9589 4.45189C16.3403 4.75654 16.3604 5.00742 16.3604 8.7527C16.3604 12.498 16.3403 12.7489 15.9589 13.0535C15.7381 13.2327 15.5574 13.5911 15.5574 13.8599C15.5574 14.4154 16.3001 15.1143 16.8823 15.1143C17.4041 15.0964 18.1268 14.5588 18.187 14.1287C18.2874 13.5553 17.9863 12.7847 17.6651 12.7847C17.4041 12.7847 17.364 12.1934 17.364 8.7527C17.364 5.3479 17.4041 4.7207 17.6651 4.7207C17.8257 4.7207 18.1067 4.43397 18.2874 4.07557C18.6286 3.44837 18.6286 3.44837 18.0666 2.91077C17.3841 2.30149 16.4005 2.21189 15.8987 2.71365Z" fill="black"/>
<path d="M27.3001 2.91079C26.7581 3.43047 26.7581 3.46631 27.0592 4.05767C27.2399 4.39815 27.5209 4.77447 27.7015 4.89991C27.9424 5.07911 28.0026 5.72423 28.0026 8.68104V12.2292L27.4004 12.8385C26.6577 13.5911 26.6577 13.8599 27.3201 14.5588C28.0026 15.2935 28.7654 15.3115 29.3676 14.5767C29.9096 13.9137 29.9296 13.5374 29.3877 13.0356C28.9862 12.6593 28.9862 12.4622 29.0063 8.7348C29.0264 5.09703 29.0464 4.79239 29.4077 4.45191C29.6285 4.23687 29.8092 3.82471 29.8092 3.52007C29.8092 2.35527 28.3037 1.99687 27.3001 2.91079Z" fill="black"/>
<path d="M10.5592 3.73511C10.2983 3.86055 9.95704 4.21895 9.77639 4.54151C9.47529 5.07911 9.49537 5.11495 10.1176 5.67047L10.7399 6.26183V10.0071L10.7198 13.7703L10.1578 14.3617C9.6158 14.9351 9.59573 14.971 9.89683 15.5623C10.0775 15.9207 10.4589 16.2612 10.78 16.3867C11.3019 16.5838 11.4224 16.5479 11.9443 16.0999C12.6468 15.4907 12.707 14.8634 12.145 14.2183C11.7837 13.8062 11.7435 13.4657 11.7435 9.9892C11.7435 6.44103 11.7636 6.19015 12.145 5.88551C12.7472 5.40167 12.6669 4.54151 11.9844 3.95015C11.3622 3.41255 11.2618 3.39463 10.5592 3.73511Z" fill="black"/>
<path d="M33.3822 3.77095C32.9005 3.98599 32.8202 4.12935 32.8202 4.79239C32.8202 5.32999 32.9406 5.65255 33.2216 5.88551C33.603 6.19015 33.6231 6.44104 33.6231 10.0071C33.6231 13.5732 33.603 13.8241 33.2216 14.1287C32.9607 14.3438 32.8202 14.6843 32.8202 15.1323C32.8202 15.6699 32.9406 15.8849 33.4023 16.1716C34.1249 16.6375 34.1249 16.6375 34.8476 16.1716C35.5702 15.7236 35.6505 14.8097 35.0282 14.3079C34.6468 14.0033 34.6268 13.7524 34.6268 10.0967C34.6268 6.44103 34.6468 6.19015 35.0282 5.88551C35.3092 5.65255 35.4297 5.32999 35.4297 4.79239C35.4297 4.11143 35.3494 4.00391 34.7873 3.75303C34.0647 3.43047 34.1049 3.43047 33.3822 3.77095Z" fill="black"/>
<path d="M37.738 8.8244C37.5172 8.914 37.196 9.1828 37.0555 9.43368C36.8147 9.82792 36.8147 9.9892 37.1158 10.5268C37.2964 10.8852 37.5975 11.2257 37.7782 11.3153C37.999 11.4407 38.0592 11.5841 37.9387 11.817C37.8384 12.0142 37.7982 12.2292 37.8183 12.3009C37.8384 12.3726 37.8585 16.2075 37.8785 20.795C37.8986 27.73 37.8384 29.1816 37.6176 29.3428C37.457 29.4504 37.2161 29.7371 37.0756 29.97C36.8548 30.3105 36.8548 30.4718 37.1358 30.9915C37.4168 31.547 37.5373 31.6008 38.3201 31.6008C39.0227 31.6008 39.2636 31.5112 39.5245 31.1528C39.9661 30.5614 39.926 29.8984 39.4241 29.6116C39.0227 29.3608 39.0227 29.2532 39.0227 20.3291C39.0428 11.5303 39.0428 11.2794 39.4442 10.9031C40.488 9.91752 39.1632 8.30472 37.738 8.8244Z" fill="black"/>
<path d="M5.8622 9.16489C5.40052 9.61289 5.44067 10.5089 5.92242 10.9031C6.3038 11.2257 6.32388 11.4586 6.32388 20.2395C6.32388 25.7588 6.24359 29.2891 6.12315 29.3608C6.02278 29.4145 5.76183 29.7012 5.52096 29.988L5.09943 30.5076L5.92242 31.2424L6.74541 31.9771L7.3476 31.5828C7.66877 31.3857 8.0903 31.0094 8.27096 30.7764C8.57205 30.3464 8.57205 30.3105 7.94979 29.755L7.32753 29.1636V20.2036V11.2436L7.92972 10.7239C8.67241 10.0967 8.67242 9.93545 7.96986 9.32617C7.30745 8.75272 6.34395 8.68105 5.8622 9.16489Z" fill="black"/>
<path d="M2.04831 14.6843C1.96802 14.7559 1.9078 15.7057 1.9078 16.7809C1.9078 18.6267 1.88773 18.77 1.3859 19.2897C0.783715 19.9169 0.843934 20.6516 1.50634 21.2968C1.82751 21.6014 1.9078 21.9777 1.94795 23.716L2.00817 25.7768H2.61035H3.21254L3.27276 23.698C3.31291 21.8881 3.37313 21.5656 3.71437 21.2968C4.23626 20.8667 4.23626 19.899 3.71437 19.236C3.3932 18.8417 3.31291 18.3937 3.27276 16.7092C3.21254 14.6663 3.21254 14.6663 2.71072 14.6126C2.4297 14.5767 2.1286 14.6126 2.04831 14.6843Z" fill="black"/>
<path d="M42.1942 14.6843C42.114 14.7559 42.0537 15.7057 42.0537 16.7809C42.0537 18.6087 42.0136 18.77 41.5519 19.2718C40.9698 19.899 41.0099 20.6516 41.6724 21.2968C41.9734 21.6014 42.0537 22.0136 42.0939 23.716L42.1541 25.7768H42.7563H43.3585L43.4187 23.7339C43.4588 22.0315 43.5391 21.6193 43.8603 21.243C44.3621 20.6875 44.3621 20.132 43.8603 19.3435C43.5592 18.8417 43.4588 18.3041 43.4187 16.6913C43.3585 14.6663 43.3585 14.6663 42.8567 14.6126C42.5756 14.5767 42.2745 14.6126 42.1942 14.6843Z" fill="black"/>
<path d="M10.5592 18.6804C10.218 19.236 10.2983 20.2216 10.6997 20.5441C10.9808 20.7771 11.4424 20.8488 12.4862 20.8488C13.6304 20.8488 13.9516 20.9204 14.2526 21.2072C14.7545 21.7089 16.1596 21.7089 16.6614 21.2072C16.9625 20.9025 17.2435 20.8488 18.0464 20.8846C18.9297 20.9384 19.0702 20.9921 19.1705 21.3864C19.2508 21.7089 19.4315 21.8523 19.8329 21.8881C20.134 21.924 20.395 21.8881 20.395 21.7985C20.7563 19.9886 20.395 19.5944 18.4278 19.5944C17.2034 19.5944 16.9023 19.5406 16.6213 19.236C16.3804 18.9851 16.0191 18.8776 15.437 18.8776C14.8749 18.8776 14.5136 18.9851 14.2526 19.236C13.7709 19.7198 11.9844 19.7556 11.8238 19.2718C11.5026 18.3579 10.9205 18.0712 10.5592 18.6804Z" fill="black"/>
<path d="M33.6833 18.555C33.5629 18.6804 33.4424 18.9492 33.3822 19.1464C33.322 19.451 33.1413 19.5227 32.238 19.5585C31.3348 19.6123 31.114 19.5585 30.8731 19.2539C30.4917 18.7521 29.207 18.7342 28.7052 19.236C28.4041 19.5406 28.0829 19.5944 26.7983 19.5944C25.8749 19.5944 25.1724 19.684 25.0319 19.8094C24.6304 20.1678 24.7308 21.7089 25.1523 21.906C25.6541 22.139 26.1961 21.8164 26.1961 21.2968C26.1961 20.8846 26.2563 20.8488 27.26 20.8488C28.0829 20.8488 28.4242 20.9384 28.7052 21.2072C29.207 21.691 30.4917 21.691 30.8731 21.2072C31.0939 20.9204 31.4151 20.8488 32.8202 20.8129C34.4661 20.7592 34.5264 20.7412 34.707 20.2753C35.1085 19.2539 34.2855 17.874 33.6833 18.555Z" fill="black"/>
<path d="M10.7399 24.1998C9.67602 24.5582 9.45522 25.3825 10.2381 26.0456L10.7399 26.4577V32.9806C10.7399 38.5537 10.6997 39.5035 10.4388 39.5931C10.2782 39.6469 10.0173 39.9515 9.83661 40.2561C9.55558 40.7758 9.55558 40.8296 10.0574 41.403C10.4388 41.8689 10.6997 41.9944 11.2216 41.9944C12.3859 41.9944 12.9881 40.6145 12.145 39.9336C11.7636 39.6289 11.7435 39.3781 11.7435 33.0344C11.7435 26.6907 11.7636 26.4398 12.145 26.1352C12.7271 25.6692 12.6669 24.8987 12.0246 24.4507C11.4826 24.0744 11.2618 24.0206 10.7399 24.1998Z" fill="black"/>
<path d="M33.3622 24.379C32.6797 24.6836 32.5994 25.6334 33.2216 26.1351C33.603 26.4398 33.6231 26.6907 33.6231 32.9089V39.3422L33.1012 39.8977C32.5392 40.4891 32.5592 41.0805 33.1614 41.6718C33.583 42.1019 34.6669 42.084 35.0884 41.6718C35.5702 41.188 35.53 40.0769 35.0282 39.8081C34.6468 39.5931 34.6268 39.3781 34.6268 33.0164C34.6268 26.6907 34.6468 26.4398 35.0282 26.1351C36.1724 25.2212 34.7472 23.7159 33.3622 24.379Z" fill="black"/>
<path d="M16.1195 26.9953C15.4571 27.4792 15.3768 28.178 15.9589 28.644C16.3202 28.9486 16.3604 29.1995 16.3604 31.7262C16.3604 34.2171 16.3202 34.4859 16.0191 34.4321C15.8385 34.3963 15.4972 34.0558 15.2363 33.6616C14.875 33.0702 14.6742 32.9269 14.0921 32.891C12.968 32.8014 12.3458 33.2673 12.3458 34.1992C12.3458 35.2565 12.8074 35.5969 14.2527 35.5611C14.9753 35.5611 15.5374 35.6507 15.8585 35.8299C16.3604 36.1166 16.3604 36.1345 16.3604 39.1272C16.3604 41.8869 16.3202 42.1378 15.9589 42.4424C15.718 42.6395 15.5574 42.9979 15.5574 43.3384C15.5574 44.557 17.1231 44.9333 18.0666 43.9477C18.3476 43.643 18.5282 43.2846 18.468 43.1771C18.4078 43.0696 18.3074 42.8366 18.2472 42.6754C18.187 42.4962 17.9461 42.317 17.7454 42.2632C17.3841 42.1557 17.364 41.9406 17.364 39.3781C17.364 37.8549 17.4443 36.6184 17.5246 36.6184C17.7454 36.6184 21.5392 38.3387 21.8604 38.5717C22.0209 38.6971 22.0812 39.6289 22.041 41.6539C21.9808 44.2882 21.9406 44.6107 21.5793 44.9512C21.0775 45.435 21.0574 46.331 21.5392 46.7074C21.9206 47.012 23.1249 47.1195 23.4863 46.8686C23.6067 46.797 23.8074 46.5461 23.9479 46.331C24.1687 45.9726 24.1687 45.8114 23.9078 45.3096C23.7271 44.987 23.4461 44.6824 23.2855 44.6107C23.0447 44.539 22.9844 44.0373 22.9844 41.6718C22.9844 39.5931 23.0447 38.7688 23.2454 38.6254C23.8074 38.2133 27.5209 36.6184 27.7417 36.6901C27.9224 36.7617 27.9826 37.4965 27.9826 39.2347L28.0027 41.6718L27.4005 42.317C27.0592 42.6754 26.7983 43.1054 26.7983 43.2488C26.7983 43.7326 27.8622 44.5032 28.5446 44.5032C29.6487 44.5032 30.2107 43.213 29.4279 42.4603C29.0866 42.1378 29.0264 41.7077 28.9662 39.1451C28.8658 36.3854 28.8859 36.2062 29.2673 35.8837C29.729 35.5073 30.4315 35.4357 30.9735 35.7403C31.4352 36.0091 32.2983 35.5432 32.7198 34.8085C32.9808 34.3963 32.9808 34.2529 32.7399 33.8408C32.3987 33.2494 31.8366 32.8731 31.2946 32.8552C30.7527 32.8552 29.8895 33.4465 29.5684 34.0558C28.9863 35.1131 28.8658 34.7189 28.8257 31.9054C28.8056 29.1816 28.8056 29.1637 29.3074 28.7336C29.9297 28.2139 29.9498 27.6584 29.3676 27.1745C28.5848 26.5115 27.6815 26.619 27.0994 27.4075C26.7782 27.8376 26.7983 27.8913 27.3403 28.5185C27.9023 29.1816 27.9023 29.2174 27.9425 31.9592C27.9625 33.8766 27.9023 34.8264 27.7417 35.0056C27.6012 35.1489 26.8786 35.5611 26.0957 35.9016C25.333 36.2421 24.4297 36.6721 24.1286 36.8513C23.1249 37.4606 23.0246 37.2635 23.0045 34.4321C22.9644 31.8875 22.9844 31.8517 23.4863 31.4216C24.0884 30.9019 24.1286 30.3643 23.5666 29.7371C23.0447 29.1457 22.2016 29.1278 21.6195 29.6833C21.0374 30.2209 21.0574 30.6152 21.6797 31.2782C22.1614 31.78 22.1815 31.9054 22.1815 34.3067C22.1815 36.3496 22.1213 36.8334 21.8804 36.9051C21.5793 37.0126 18.9498 35.9553 17.926 35.3102L17.364 34.9877V31.9592C17.364 29.1816 17.4042 28.9128 17.7454 28.7515C18.3877 28.4289 18.4078 27.6584 17.7655 27.0849C17.083 26.4756 16.8421 26.4756 16.1195 26.9953Z" fill="black"/>
</g>
<path d="M56.735 33L49.56 14.73H52.78L58.52 30.06L64.26 14.73H67.27L60.095 33H56.735ZM77.822 33.35C76.4453 33.35 75.1853 33.105 74.042 32.615C72.922 32.1017 71.942 31.4133 71.102 30.55C70.2853 29.6633 69.6436 28.6483 69.177 27.505C68.7336 26.3617 68.512 25.1483 68.512 23.865C68.512 22.1383 68.9086 20.5633 69.702 19.14C70.4953 17.7167 71.592 16.5733 72.992 15.71C74.4153 14.8467 76.037 14.415 77.857 14.415C79.7003 14.415 81.2986 14.8583 82.652 15.745C84.0286 16.6083 85.0903 17.7517 85.837 19.175C86.607 20.575 86.992 22.0917 86.992 23.725C86.992 23.9583 86.9803 24.1917 86.957 24.425C86.957 24.635 86.9453 24.7983 86.922 24.915H71.767C71.8603 26.105 72.187 27.1667 72.747 28.1C73.3303 29.01 74.077 29.7333 74.987 30.27C75.897 30.7833 76.877 31.04 77.927 31.04C79.047 31.04 80.097 30.76 81.077 30.2C82.0803 29.64 82.7686 28.905 83.142 27.995L85.802 28.73C85.4053 29.6167 84.8103 30.41 84.017 31.11C83.247 31.81 82.3253 32.3583 81.252 32.755C80.202 33.1517 79.0586 33.35 77.822 33.35ZM71.662 22.78H84.122C84.0286 21.59 83.6903 20.54 83.107 19.63C82.5236 18.72 81.777 18.0083 80.867 17.495C79.957 16.9817 78.9536 16.725 77.857 16.725C76.7836 16.725 75.792 16.9817 74.882 17.495C73.972 18.0083 73.2253 18.72 72.642 19.63C72.082 20.54 71.7553 21.59 71.662 22.78ZM106.271 33H103.191V22.78C103.191 20.8433 102.887 19.4317 102.281 18.545C101.697 17.635 100.799 17.18 99.5857 17.18C98.7457 17.18 97.9057 17.39 97.0657 17.81C96.249 18.23 95.514 18.8017 94.8607 19.525C94.2307 20.225 93.7757 21.0417 93.4957 21.975V33H90.4157V14.73H93.2157V18.65C93.7057 17.7867 94.3357 17.04 95.1057 16.41C95.8757 15.78 96.7507 15.29 97.7307 14.94C98.7107 14.59 99.7373 14.415 100.811 14.415C101.861 14.415 102.736 14.6133 103.436 15.01C104.159 15.3833 104.719 15.92 105.116 16.62C105.536 17.2967 105.827 18.1017 105.991 19.035C106.177 19.9683 106.271 20.9833 106.271 22.08V33ZM118.34 33.21C117.104 33.21 115.96 32.965 114.91 32.475C113.884 31.9617 112.997 31.2733 112.25 30.41C111.504 29.5233 110.92 28.52 110.5 27.4C110.104 26.28 109.905 25.1133 109.905 23.9C109.905 22.6167 110.104 21.4033 110.5 20.26C110.92 19.1167 111.504 18.1133 112.25 17.25C113.02 16.3633 113.919 15.675 114.945 15.185C115.972 14.6717 117.115 14.415 118.375 14.415C119.892 14.415 121.21 14.7883 122.33 15.535C123.474 16.2817 124.43 17.2267 125.2 18.37V14.73H127.93V32.79C127.93 34.5167 127.51 35.975 126.67 37.165C125.854 38.355 124.734 39.2533 123.31 39.86C121.91 40.49 120.347 40.805 118.62 40.805C116.567 40.805 114.887 40.4433 113.58 39.72C112.274 38.9967 111.189 38.0167 110.325 36.78L112.11 35.205C112.834 36.2783 113.767 37.0833 114.91 37.62C116.077 38.1567 117.314 38.425 118.62 38.425C119.74 38.425 120.767 38.215 121.7 37.795C122.657 37.3983 123.415 36.78 123.975 35.94C124.559 35.1 124.85 34.05 124.85 32.79V29.57C124.174 30.69 123.24 31.5767 122.05 32.23C120.884 32.8833 119.647 33.21 118.34 33.21ZM119.285 30.69C119.939 30.69 120.569 30.5733 121.175 30.34C121.782 30.1067 122.342 29.8033 122.855 29.43C123.369 29.0333 123.8 28.59 124.15 28.1C124.5 27.61 124.734 27.1083 124.85 26.595V21.345C124.524 20.505 124.057 19.77 123.45 19.14C122.844 18.4867 122.155 17.985 121.385 17.635C120.615 17.2617 119.822 17.075 119.005 17.075C118.072 17.075 117.232 17.2733 116.485 17.67C115.762 18.0667 115.144 18.6033 114.63 19.28C114.117 19.9333 113.72 20.6683 113.44 21.485C113.16 22.3017 113.02 23.13 113.02 23.97C113.02 24.88 113.184 25.7433 113.51 26.56C113.837 27.3533 114.28 28.065 114.84 28.695C115.4 29.325 116.065 29.815 116.835 30.165C117.605 30.515 118.422 30.69 119.285 30.69ZM132.901 33V14.73H135.981V33H132.901ZM132.901 11.3V7.45H135.981V11.3H132.901ZM142.332 14.73L147.162 21.45L147.442 22.01L147.757 21.45L152.552 14.73H155.982L149.227 23.9L156.017 33H152.587L147.757 26.315L147.442 25.79L147.162 26.315L142.332 33H138.902L145.692 23.9L138.937 14.73H142.332Z" fill="#262626"/>
</g>
<defs>
<filter id="filter0_i_28_107" x="-3" y="0" width="52" height="52" filterUnits="userSpaceOnUse" color-interpolation-filters="sRGB">
<feFlood flood-opacity="0" result="BackgroundImageFix"/>
<feBlend mode="normal" in="SourceGraphic" in2="BackgroundImageFix" result="shape"/>
<feColorMatrix in="SourceAlpha" type="matrix" values="0 0 0 0 0 0 0 0 0 0 0 0 0 0 0 0 0 0 127 0" result="hardAlpha"/>
<feOffset dy="4"/>
<feGaussianBlur stdDeviation="2"/>
<feComposite in2="hardAlpha" operator="arithmetic" k2="-1" k3="1"/>
<feColorMatrix type="matrix" values="0 0 0 0 0 0 0 0 0 0 0 0 0 0 0 0 0 0 0.25 0"/>
<feBlend mode="normal" in2="shape" result="effect1_innerShadow_28_107"/>
</filter>
<clipPath id="clip0_28_107">
<rect width="166" height="48" fill="white"/>
</clipPath>
</defs>
</svg>
