<svg width="166" height="48" viewBox="0 0 166 48" fill="none" xmlns="http://www.w3.org/2000/svg">
<g clip-path="url(#clip0_28_107)">
<g filter="url(#filter0_i_28_107)">
<path d="M21.8853 3.15699C21.2815 3.43624 21.2105 4.24115 21.7255 4.75038C22.0451 5.07891 22.0806 5.37459 22.1161 8.79135C22.1516 12.3888 22.1339 12.4709 21.761 12.7009C21.2993 12.9966 21.246 13.8836 21.7077 14.245C22.2759 14.7214 22.7731 14.7542 23.4301 14.3764C24.1937 13.9329 24.2292 13.5058 23.5189 12.7338L22.9862 12.1752V8.79135V5.40745L23.5189 4.93107C24.1759 4.33971 24.1937 3.92904 23.5722 3.33768C23.0572 2.82845 22.6311 2.77917 21.8853 3.15699Z" fill="black"/>
<path d="M16.7181 4.48755C16.3097 4.89822 16.3452 5.71955 16.7713 6.08094C17.1087 6.36019 17.1265 6.59017 17.1265 10.0233C17.1265 13.4565 17.1087 13.6865 16.7713 13.9658C16.576 14.13 16.4162 14.4586 16.4162 14.705C16.4162 15.2142 17.0732 15.8548 17.5882 15.8548C18.0498 15.8384 18.6891 15.3456 18.7423 14.9514C18.8311 14.4257 18.5648 13.7194 18.2807 13.7194C18.0498 13.7194 18.0143 13.1773 18.0143 10.0233C18.0143 6.90227 18.0498 6.32734 18.2807 6.32734C18.4227 6.32734 18.6713 6.06451 18.8311 5.73598C19.133 5.16104 19.133 5.16104 18.6358 4.66824C18.0321 4.10973 17.162 4.0276 16.7181 4.48755Z" fill="black"/>
<path d="M26.8039 4.66824C26.3245 5.14462 26.3245 5.17747 26.5908 5.71955C26.7506 6.03166 26.9992 6.37662 27.1591 6.49161C27.3721 6.65587 27.4254 7.24723 27.4254 9.95764V13.2101L26.8927 13.7686C26.2357 14.4586 26.2357 14.705 26.8217 15.3456C27.4254 16.0191 28.1002 16.0355 28.6329 15.362C29.1123 14.7542 29.1301 14.4093 28.6506 13.9493C28.2955 13.6044 28.2955 13.4237 28.3132 10.0069C28.331 6.6723 28.3488 6.39305 28.6684 6.08094C28.8637 5.88382 29.0235 5.506 29.0235 5.22675C29.0235 4.15901 27.6918 3.83048 26.8039 4.66824Z" fill="black"/>
<path d="M11.9947 5.42388C11.7638 5.53886 11.462 5.8674 11.3022 6.16308C11.0358 6.65588 11.0536 6.68873 11.604 7.19796L12.1545 7.74004V11.1732L12.1367 14.6228L11.6395 15.1649C11.1601 15.6906 11.1424 15.7234 11.4087 16.2655C11.5685 16.594 11.9059 16.9061 12.19 17.0211C12.6517 17.2018 12.7582 17.169 13.2199 16.7583C13.8414 16.1998 13.8947 15.6249 13.3975 15.0335C13.0779 14.6557 13.0423 14.3436 13.0423 11.1568C13.0423 7.90431 13.0601 7.67433 13.3975 7.39508C13.9302 6.95156 13.8592 6.16308 13.2554 5.621C12.705 5.1282 12.6162 5.11177 11.9947 5.42388Z" fill="black"/>
<path d="M32.1843 5.45675C31.7581 5.65387 31.6871 5.78528 31.6871 6.39307C31.6871 6.88587 31.7936 7.18155 32.0422 7.3951C32.3796 7.67435 32.3973 7.90433 32.3973 11.1732C32.3973 14.4422 32.3796 14.6721 32.0422 14.9514C31.8114 15.1485 31.6871 15.4606 31.6871 15.8713C31.6871 16.3641 31.7936 16.5612 32.202 16.824C32.8413 17.2511 32.8413 17.2511 33.4805 16.824C34.1198 16.4134 34.1908 15.5756 33.6403 15.1157C33.3029 14.8364 33.2852 14.6064 33.2852 11.2554C33.2852 7.90433 33.3029 7.67435 33.6403 7.3951C33.8889 7.18155 33.9955 6.88587 33.9955 6.39307C33.9955 5.76886 33.9244 5.6703 33.4272 5.44032C32.788 5.14464 32.8235 5.14464 32.1843 5.45675Z" fill="black"/>
<path d="M36.0375 10.0891C35.8421 10.1712 35.558 10.4176 35.4337 10.6476C35.2207 11.009 35.2207 11.1568 35.487 11.6496C35.6468 11.9781 35.9132 12.2902 36.073 12.3724C36.2683 12.4874 36.3216 12.6188 36.215 12.8323C36.1263 13.013 36.0907 13.2101 36.1085 13.2758C36.1263 13.3416 36.144 16.8569 36.1618 21.0621C36.1795 27.4192 36.1263 28.7498 35.9309 28.8976C35.7889 28.9962 35.5758 29.259 35.4515 29.4726C35.2562 29.7847 35.2562 29.9325 35.5048 30.4089C35.7534 30.9181 35.8599 30.9674 36.5524 30.9674C37.1739 30.9674 37.387 30.8853 37.6178 30.5567C38.0085 30.0147 37.973 29.4069 37.529 29.144C37.1739 28.9141 37.1739 28.8155 37.1739 20.635C37.1917 12.5695 37.1917 12.3395 37.5468 11.9946C38.4702 11.0911 37.2982 9.61269 36.0375 10.0891Z" fill="black"/>
<path d="M7.83962 10.4012C7.43121 10.8118 7.46672 11.6332 7.89289 11.9946C8.23027 12.2902 8.24802 12.5038 8.24802 20.5529C8.24802 25.6123 8.177 28.8483 8.07046 28.9141C7.98167 28.9633 7.75083 29.2262 7.53775 29.489L7.16486 29.9654L7.89289 30.6389L8.62092 31.3123L9.15362 30.951C9.43773 30.7703 9.81063 30.4253 9.97044 30.2118C10.2368 29.8175 10.2368 29.7847 9.68633 29.2754L9.13587 28.7334V20.52V12.3067L9.66857 11.8303C10.3256 11.2554 10.3256 11.1075 9.70409 10.549C9.11811 10.0234 8.26578 9.95765 7.83962 10.4012Z" fill="black"/>
<path d="M4.46582 15.4606C4.3948 15.5263 4.34153 16.3969 4.34153 17.3825C4.34153 19.0745 4.32377 19.2059 3.87985 19.6823C3.34714 20.2572 3.40041 20.9307 3.98639 21.522C4.2705 21.8013 4.34153 22.1463 4.37704 23.7397L4.43031 25.6287H4.96301H5.49572L5.54899 23.7232C5.5845 22.0641 5.63777 21.7684 5.93964 21.522C6.40132 21.1278 6.40132 20.2408 5.93964 19.633C5.65553 19.2716 5.5845 18.8609 5.54899 17.3168C5.49572 15.4442 5.49572 15.4442 5.0518 15.3949C4.8032 15.362 4.53685 15.3949 4.46582 15.4606Z" fill="black"/>
<path d="M39.9795 15.4606C39.9085 15.5263 39.8552 16.3969 39.8552 17.3825C39.8552 19.058 39.8197 19.2059 39.4113 19.6658C38.8963 20.2408 38.9318 20.9307 39.5178 21.522C39.7842 21.8013 39.8552 22.1791 39.8907 23.7397L39.944 25.6287H40.4767H41.0094L41.0627 23.7561C41.0982 22.1955 41.1692 21.8177 41.4533 21.4728C41.8972 20.9635 41.8972 20.4543 41.4533 19.7315C41.187 19.2716 41.0982 18.7788 41.0627 17.3004C41.0094 15.4442 41.0094 15.4442 40.5655 15.3949C40.3169 15.362 40.0505 15.3949 39.9795 15.4606Z" fill="black"/>
<path d="M11.9947 19.1237C11.6928 19.633 11.7639 20.5364 12.119 20.8321C12.3676 21.0457 12.776 21.1114 13.6993 21.1114C14.7115 21.1114 14.9956 21.1771 15.262 21.4399C15.7059 21.8999 16.9489 21.8999 17.3928 21.4399C17.6591 21.1607 17.9077 21.1114 18.618 21.1442C19.3993 21.1935 19.5236 21.2428 19.6124 21.6042C19.6834 21.8999 19.8432 22.0313 20.1984 22.0641C20.4647 22.097 20.6956 22.0641 20.6956 21.982C21.0152 20.3229 20.6956 19.9615 18.9554 19.9615C17.8722 19.9615 17.6059 19.9122 17.3573 19.633C17.1442 19.403 16.8246 19.3044 16.3096 19.3044C15.8124 19.3044 15.4928 19.403 15.262 19.633C14.8358 20.0765 13.2554 20.1094 13.1134 19.6658C12.8293 18.8281 12.3143 18.5652 11.9947 19.1237Z" fill="black"/>
<path d="M32.4506 19.0088C32.3441 19.1237 32.2375 19.3701 32.1843 19.5508C32.131 19.8301 31.9712 19.8958 31.1721 19.9286C30.3731 19.9779 30.1777 19.9286 29.9647 19.6494C29.6273 19.1894 28.4908 19.173 28.0469 19.633C27.7806 19.9122 27.4965 19.9615 26.36 19.9615C25.5432 19.9615 24.9217 20.0436 24.7974 20.1586C24.4423 20.4872 24.5311 21.8998 24.904 22.0805C25.3479 22.2941 25.8273 21.9984 25.8273 21.522C25.8273 21.1442 25.8806 21.1114 26.7684 21.1114C27.4965 21.1114 27.7983 21.1935 28.0469 21.4399C28.4908 21.8834 29.6273 21.8834 29.9647 21.4399C30.16 21.1771 30.4441 21.1114 31.6871 21.0785C33.1431 21.0292 33.1964 21.0128 33.3562 20.5857C33.7114 19.6494 32.9833 18.3845 32.4506 19.0088Z" fill="black"/>
<path d="M12.1546 24.1832C11.2134 24.5117 11.0181 25.2673 11.7106 25.8751L12.1546 26.2529V32.2322C12.1546 37.3409 12.119 38.2116 11.8882 38.2937C11.7462 38.343 11.5153 38.6222 11.3555 38.9015C11.1069 39.3779 11.1069 39.4271 11.5508 39.9528C11.8882 40.3799 12.119 40.4949 12.5807 40.4949C13.6106 40.4949 14.1433 39.23 13.3975 38.6058C13.0602 38.3265 13.0424 38.0966 13.0424 32.2815C13.0424 26.4665 13.0602 26.2365 13.3975 25.9572C13.9125 25.5302 13.8592 24.8238 13.291 24.4131C12.8116 24.0682 12.6162 24.0189 12.1546 24.1832Z" fill="black"/>
<path d="M32.1665 24.3474C31.5628 24.6267 31.4917 25.4973 32.0422 25.9573C32.3796 26.2365 32.3973 26.4665 32.3973 32.1666V38.0637L31.9357 38.573C31.4385 39.1151 31.4562 39.6571 31.9889 40.1992C32.3618 40.5935 33.3207 40.577 33.6936 40.1992C34.1197 39.7557 34.0842 38.7372 33.6403 38.4908C33.3029 38.2937 33.2852 38.0966 33.2852 32.2651C33.2852 26.4665 33.3029 26.2365 33.6403 25.9573C34.6525 25.1195 33.3917 23.7397 32.1665 24.3474Z" fill="black"/>
<path d="M16.9134 26.7457C16.3274 27.1893 16.2564 27.8299 16.7713 28.257C17.0909 28.5363 17.1264 28.7662 17.1264 31.0824C17.1264 33.3657 17.0909 33.6121 16.8246 33.5628C16.6648 33.53 16.3629 33.2179 16.1321 32.8565C15.8124 32.3144 15.6349 32.183 15.1199 32.1501C14.1255 32.068 13.5751 32.4951 13.5751 33.3493C13.5751 34.3184 13.9835 34.6306 15.262 34.5977C15.9012 34.5977 16.3984 34.6798 16.6825 34.8441C17.1264 35.1069 17.1264 35.1234 17.1264 37.8666C17.1264 40.3963 17.0909 40.6263 16.7713 40.9056C16.5582 41.0862 16.4162 41.4148 16.4162 41.7269C16.4162 42.8439 17.8012 43.1889 18.6358 42.2854C18.8844 42.0061 19.0442 41.6776 18.9909 41.579C18.9376 41.4805 18.8489 41.2669 18.7956 41.1191C18.7423 40.9548 18.5292 40.7906 18.3517 40.7413C18.032 40.6427 18.0143 40.4456 18.0143 38.0966C18.0143 36.7003 18.0853 35.5669 18.1563 35.5669C18.3517 35.5669 21.7077 37.1438 21.9918 37.3574C22.1339 37.4724 22.1871 38.3266 22.1516 40.1828C22.0984 42.5975 22.0628 42.8932 21.7432 43.2053C21.2993 43.6488 21.2815 44.4701 21.7077 44.8151C22.0451 45.0944 23.1105 45.1929 23.4301 44.9629C23.5367 44.8972 23.7142 44.6673 23.8385 44.4701C24.0339 44.1416 24.0339 43.9938 23.803 43.5338C23.6432 43.2381 23.3946 42.9589 23.2526 42.8932C23.0395 42.8275 22.9862 42.3675 22.9862 40.1992C22.9862 38.2937 23.0395 37.5381 23.217 37.4067C23.7142 37.0289 26.9993 35.5669 27.1946 35.6326C27.3544 35.6983 27.4077 36.3718 27.4077 37.9652L27.4254 40.1992L26.8927 40.7906C26.5908 41.1191 26.36 41.5133 26.36 41.6448C26.36 42.0883 27.3011 42.7946 27.9049 42.7946C28.8815 42.7946 29.3787 41.6119 28.6862 40.922C28.3843 40.6263 28.331 40.2321 28.2777 37.883C28.189 35.3533 28.2067 35.1891 28.5441 34.8934C28.9525 34.5484 29.574 34.4827 30.0534 34.762C30.4618 35.0084 31.2254 34.5813 31.5983 33.9078C31.8291 33.53 31.8291 33.3986 31.616 33.0207C31.3142 32.4787 30.817 32.1337 30.3375 32.1173C29.8581 32.1173 29.0946 32.6594 28.8105 33.2179C28.2955 34.187 28.189 33.8256 28.1534 31.2467C28.1357 28.7498 28.1357 28.7334 28.5796 28.3391C29.1301 27.8628 29.1478 27.3535 28.6329 26.91C27.9404 26.3022 27.1413 26.4008 26.6264 27.1236C26.3423 27.5178 26.36 27.5671 26.8394 28.142C27.3366 28.7498 27.3366 28.7827 27.3721 31.2959C27.3899 33.0536 27.3366 33.9242 27.1946 34.0885C27.0703 34.2199 26.431 34.5977 25.7385 34.9098C25.0638 35.2219 24.2647 35.6162 23.9983 35.7804C23.1105 36.3389 23.0217 36.1582 23.004 33.5628C22.9684 31.2302 22.9862 31.1974 23.4301 30.8031C23.9628 30.3268 23.9983 29.834 23.5012 29.259C23.0395 28.7169 22.2937 28.7005 21.7787 29.2097C21.2638 29.7025 21.2815 30.0639 21.832 30.6717C22.2582 31.1317 22.2759 31.2467 22.2759 33.4478C22.2759 35.3205 22.2227 35.764 22.0096 35.8297C21.7432 35.9283 19.4171 34.9591 18.5115 34.3677L18.0143 34.072V31.2959C18.0143 28.7498 18.0498 28.5034 18.3517 28.3556C18.9199 28.0599 18.9376 27.3535 18.3694 26.8279C17.7657 26.2694 17.5526 26.2694 16.9134 26.7457Z" fill="black"/>
</g>
<path d="M47.182 9.73L56.58 32.781L65.941 9.73H68.642L57.764 36H55.396L44.481 9.73H47.182ZM77.7191 36.37C76.3378 36.37 75.0551 36.111 73.8711 35.593C72.6871 35.0503 71.6635 34.3227 70.8001 33.41C69.9368 32.4727 69.2585 31.3997 68.7651 30.191C68.2965 28.9823 68.0621 27.6873 68.0621 26.306C68.0621 24.5053 68.4691 22.8527 69.2831 21.348C70.1218 19.8433 71.2688 18.647 72.7241 17.759C74.1795 16.8463 75.8321 16.39 77.6821 16.39C79.5815 16.39 81.2341 16.8463 82.6401 17.759C84.0708 18.6717 85.1931 19.8803 86.0071 21.385C86.8211 22.865 87.2281 24.493 87.2281 26.269C87.2281 26.4663 87.2281 26.6637 87.2281 26.861C87.2281 27.0337 87.2158 27.1693 87.1911 27.268H70.6891C70.8125 28.6493 71.1948 29.8827 71.8361 30.968C72.5021 32.0287 73.3531 32.8797 74.3891 33.521C75.4498 34.1377 76.5968 34.446 77.8301 34.446C79.0881 34.446 80.2721 34.1253 81.3821 33.484C82.5168 32.8427 83.3061 32.004 83.7501 30.968L85.9331 31.56C85.5385 32.4727 84.9341 33.299 84.1201 34.039C83.3061 34.779 82.3441 35.3587 81.2341 35.778C80.1488 36.1727 78.9771 36.37 77.7191 36.37ZM70.6151 25.455H84.8601C84.7615 24.049 84.3791 22.8157 83.7131 21.755C83.0718 20.6943 82.2208 19.868 81.1601 19.276C80.1241 18.6593 78.9771 18.351 77.7191 18.351C76.4611 18.351 75.3141 18.6593 74.2781 19.276C73.2421 19.868 72.3911 20.7067 71.7251 21.792C71.0838 22.8527 70.7138 24.0737 70.6151 25.455ZM107.316 36H104.8V25.233C104.8 22.9637 104.467 21.311 103.801 20.275C103.135 19.2143 102.087 18.684 100.656 18.684C99.6693 18.684 98.695 18.9307 97.733 19.424C96.771 19.8927 95.92 20.5463 95.18 21.385C94.4646 22.199 93.9466 23.1363 93.626 24.197V36H91.11V16.723H93.404V21.089C93.922 20.1517 94.6003 19.3377 95.439 18.647C96.2776 17.9317 97.2273 17.3767 98.288 16.982C99.3486 16.5873 100.446 16.39 101.581 16.39C102.642 16.39 103.542 16.5873 104.282 16.982C105.022 17.3767 105.614 17.944 106.058 18.684C106.502 19.3993 106.823 20.275 107.02 21.311C107.217 22.3223 107.316 23.457 107.316 24.715V36ZM120.414 36.259C119.107 36.259 117.898 35.9877 116.788 35.445C115.678 34.9023 114.716 34.1747 113.902 33.262C113.113 32.3247 112.496 31.264 112.052 30.08C111.608 28.896 111.386 27.675 111.386 26.417C111.386 25.0603 111.596 23.79 112.015 22.606C112.459 21.3973 113.076 20.3243 113.865 19.387C114.679 18.4497 115.629 17.722 116.714 17.204C117.8 16.6613 119.008 16.39 120.34 16.39C121.993 16.39 123.424 16.8093 124.632 17.648C125.866 18.4867 126.902 19.5227 127.74 20.756V16.723H129.997V36.074C129.997 37.85 129.566 39.3423 128.702 40.551C127.864 41.7843 126.717 42.7093 125.261 43.326C123.831 43.9427 122.264 44.251 120.562 44.251C118.367 44.251 116.591 43.8563 115.234 43.067C113.878 42.2777 112.768 41.217 111.904 39.885L113.458 38.664C114.223 39.8727 115.234 40.773 116.492 41.365C117.775 41.957 119.132 42.253 120.562 42.253C121.82 42.253 122.967 42.0187 124.003 41.55C125.064 41.106 125.903 40.4277 126.519 39.515C127.161 38.6023 127.481 37.4553 127.481 36.074V32.263C126.741 33.4717 125.73 34.446 124.447 35.186C123.165 35.9013 121.82 36.259 120.414 36.259ZM121.117 34.15C121.882 34.15 122.61 34.0143 123.3 33.743C124.016 33.4717 124.669 33.114 125.261 32.67C125.853 32.2013 126.347 31.6833 126.741 31.116C127.136 30.5487 127.383 29.969 127.481 29.377V23.42C127.111 22.4827 126.581 21.6563 125.89 20.941C125.2 20.201 124.41 19.6337 123.522 19.239C122.659 18.8197 121.759 18.61 120.821 18.61C119.736 18.61 118.762 18.8443 117.898 19.313C117.06 19.757 116.344 20.3613 115.752 21.126C115.185 21.866 114.741 22.7047 114.42 23.642C114.1 24.5793 113.939 25.5167 113.939 26.454C113.939 27.49 114.124 28.4767 114.494 29.414C114.864 30.3267 115.37 31.153 116.011 31.893C116.677 32.6083 117.442 33.1633 118.305 33.558C119.193 33.9527 120.131 34.15 121.117 34.15ZM135.553 36V16.723H138.069V36H135.553ZM135.553 12.69V8.99H138.069V12.69H135.553ZM144.203 16.723L149.864 24.271L150.16 24.826L150.456 24.271L156.08 16.723H158.929L151.603 26.417L158.929 36H156.08L150.456 28.489L150.16 27.971L149.864 28.489L144.24 36H141.391L148.68 26.417L141.391 16.723H144.203Z" fill="black"/>
</g>
<defs>
<filter id="filter0_i_28_107" x="0" y="2" width="46" height="48" filterUnits="userSpaceOnUse" color-interpolation-filters="sRGB">
<feFlood flood-opacity="0" result="BackgroundImageFix"/>
<feBlend mode="normal" in="SourceGraphic" in2="BackgroundImageFix" result="shape"/>
<feColorMatrix in="SourceAlpha" type="matrix" values="0 0 0 0 0 0 0 0 0 0 0 0 0 0 0 0 0 0 127 0" result="hardAlpha"/>
<feOffset dy="4"/>
<feGaussianBlur stdDeviation="2"/>
<feComposite in2="hardAlpha" operator="arithmetic" k2="-1" k3="1"/>
<feColorMatrix type="matrix" values="0 0 0 0 0 0 0 0 0 0 0 0 0 0 0 0 0 0 0.25 0"/>
<feBlend mode="normal" in2="shape" result="effect1_innerShadow_28_107"/>
</filter>
<clipPath id="clip0_28_107">
<rect width="166" height="48" fill="white"/>
</clipPath>
</defs>
</svg>
