<svg width="46" height="45" viewBox="0 0 46 45" fill="none" xmlns="http://www.w3.org/2000/svg">
<g clip-path="url(#clip0_28_89)">
<g filter="url(#filter0_i_28_89)">
<path d="M22.2641 1.18329C21.5947 1.46889 21.516 2.29209 22.0869 2.81289C22.4413 3.14889 22.4806 3.45129 22.52 6.9457C22.5594 10.6249 22.5397 10.7089 22.1263 10.9441C21.6144 11.2465 21.5554 12.1537 22.0672 12.5233C22.6972 13.0105 23.2484 13.0441 23.9768 12.6577C24.8234 12.2041 24.8627 11.7673 24.0753 10.9777L23.4847 10.4065V6.9457V3.48489L24.0753 2.99769C24.8037 2.39289 24.8234 1.97289 24.1343 1.36809C23.5634 0.847286 23.0909 0.796886 22.2641 1.18329Z" fill="black"/>
<path d="M16.5352 2.54408C16.0824 2.96408 16.1218 3.80408 16.5942 4.17369C16.9683 4.45929 16.988 4.69449 16.988 8.20569C16.988 11.7169 16.9683 11.9521 16.5942 12.2377C16.3777 12.4057 16.2005 12.7417 16.2005 12.9937C16.2005 13.5145 16.9289 14.1697 17.4998 14.1697C18.0117 14.1529 18.7204 13.6489 18.7795 13.2457C18.8779 12.7081 18.5826 11.9857 18.2676 11.9857C18.0117 11.9857 17.9723 11.4313 17.9723 8.20569C17.9723 5.01369 18.0117 4.42569 18.2676 4.42569C18.4251 4.42569 18.7007 4.15689 18.8779 3.82088C19.2126 3.23288 19.2126 3.23288 18.6614 2.72888C17.992 2.15768 17.0274 2.07368 16.5352 2.54408Z" fill="black"/>
<path d="M27.7174 2.72888C27.1858 3.21608 27.1858 3.24968 27.4811 3.80408C27.6583 4.12328 27.9339 4.47608 28.1111 4.59368C28.3473 4.76168 28.4064 5.36648 28.4064 8.13849V11.4649L27.8158 12.0361C27.0874 12.7417 27.0874 12.9937 27.737 13.6489C28.4064 14.3377 29.1545 14.3545 29.7451 13.6657C30.2767 13.0441 30.2964 12.6913 29.7648 12.2209C29.3711 11.8681 29.3711 11.6833 29.3908 8.18889C29.4104 4.77848 29.4301 4.49288 29.7845 4.17368C30.001 3.97208 30.1782 3.58568 30.1782 3.30008C30.1782 2.20808 28.7017 1.87208 27.7174 2.72888Z" fill="black"/>
<path d="M11.2985 3.50168C11.0425 3.61928 10.7079 3.95528 10.5307 4.25768C10.2354 4.76168 10.2551 4.79528 10.8654 5.31608L11.4757 5.87048V9.38169L11.456 12.9097L10.9047 13.4641C10.3732 14.0017 10.3535 14.0353 10.6488 14.5897C10.826 14.9257 11.2 15.2449 11.515 15.3625C12.0269 15.5473 12.145 15.5137 12.6569 15.0937C13.3459 14.5225 13.405 13.9345 12.8537 13.3297C12.4994 12.9433 12.46 12.6241 12.46 9.36489C12.46 6.03848 12.4797 5.80328 12.8537 5.51768C13.4443 5.06408 13.3656 4.25768 12.6962 3.70328C12.086 3.19928 11.9875 3.18248 11.2985 3.50168Z" fill="black"/>
<path d="M33.6825 3.5353C33.21 3.7369 33.1313 3.8713 33.1313 4.4929C33.1313 4.9969 33.2494 5.2993 33.525 5.5177C33.8991 5.8033 33.9188 6.0385 33.9188 9.38171C33.9188 12.7249 33.8991 12.9601 33.525 13.2457C33.2691 13.4473 33.1313 13.7665 33.1313 14.1865C33.1313 14.6905 33.2494 14.8921 33.7022 15.1609C34.4109 15.5977 34.4109 15.5977 35.1197 15.1609C35.8284 14.7409 35.9071 13.8841 35.2969 13.4137C34.9228 13.1281 34.9031 12.8929 34.9031 9.46571C34.9031 6.0385 34.9228 5.8033 35.2969 5.5177C35.5725 5.2993 35.6906 4.9969 35.6906 4.4929C35.6906 3.8545 35.6118 3.7537 35.0606 3.5185C34.3519 3.2161 34.3913 3.2161 33.6825 3.5353Z" fill="black"/>
<path d="M37.9546 8.27289C37.738 8.35689 37.423 8.60889 37.2852 8.84409C37.049 9.21369 37.049 9.36489 37.3443 9.86889C37.5215 10.2049 37.8168 10.5241 37.994 10.6081C38.2105 10.7257 38.2696 10.8601 38.1514 11.0785C38.053 11.2633 38.0136 11.4649 38.0333 11.5321C38.053 11.5993 38.0727 15.1945 38.0924 19.4953C38.1121 25.9969 38.053 27.3577 37.8365 27.5089C37.679 27.6097 37.4427 27.8785 37.3049 28.0969C37.0884 28.4161 37.0884 28.5673 37.364 29.0545C37.6396 29.5753 37.7577 29.6257 38.5255 29.6257C39.2145 29.6257 39.4508 29.5417 39.7067 29.2057C40.1398 28.6513 40.1005 28.0297 39.6083 27.7609C39.2145 27.5257 39.2145 27.4249 39.2145 19.0585C39.2342 10.8097 39.2342 10.5745 39.628 10.2217C40.6517 9.29769 39.3524 7.78568 37.9546 8.27289Z" fill="black"/>
<path d="M6.69171 8.59212C6.23891 9.01212 6.27828 9.85212 6.75077 10.2217C7.12482 10.5241 7.14451 10.7425 7.14451 18.9745C7.14451 24.1489 7.06576 27.4585 6.94764 27.5257C6.8492 27.5761 6.59327 27.8449 6.35703 28.1137L5.9436 28.6009L6.75077 29.2897L7.55793 29.9785L8.14854 29.6089C8.46353 29.4241 8.87696 29.0713 9.05414 28.8529C9.34945 28.4497 9.34945 28.4161 8.73915 27.8953L8.12885 27.3409V18.9409V10.5409L8.71946 10.0537C9.44788 9.46572 9.44788 9.31451 8.75884 8.74331C8.10917 8.20571 7.16419 8.13852 6.69171 8.59212Z" fill="black"/>
<path d="M2.95121 13.7665C2.87246 13.8337 2.8134 14.7241 2.8134 15.7321C2.8134 17.4625 2.79371 17.5969 2.30154 18.0841C1.71093 18.6721 1.76999 19.3609 2.41966 19.9657C2.73465 20.2513 2.8134 20.6041 2.85277 22.2337L2.91184 24.1657H3.50244H4.09305L4.15211 22.2169C4.19149 20.5201 4.25055 20.2177 4.58522 19.9657C5.09708 19.5625 5.09708 18.6553 4.58522 18.0337C4.27023 17.6641 4.19149 17.2441 4.15211 15.6649C4.09305 13.7497 4.09305 13.7497 3.60088 13.6993C3.32526 13.6657 3.02996 13.6993 2.95121 13.7665Z" fill="black"/>
<path d="M42.3251 13.7665C42.2464 13.8337 42.1873 14.7241 42.1873 15.7321C42.1873 17.4457 42.1479 17.5969 41.6951 18.0673C41.1242 18.6553 41.1636 19.3609 41.8132 19.9657C42.1085 20.2513 42.1873 20.6377 42.2267 22.2337L42.2857 24.1657H42.8763H43.4669L43.526 22.2505C43.5654 20.6545 43.6441 20.2681 43.9591 19.9153C44.4513 19.3945 44.4513 18.8737 43.9591 18.1345C43.6638 17.6641 43.5654 17.1601 43.526 15.6481C43.4669 13.7497 43.4669 13.7497 42.9748 13.6993C42.6992 13.6657 42.4038 13.6993 42.3251 13.7665Z" fill="black"/>
<path d="M11.2984 17.5129C10.9638 18.0337 11.0425 18.9577 11.4363 19.2601C11.7119 19.4785 12.1647 19.5457 13.1884 19.5457C14.3105 19.5457 14.6255 19.6129 14.9208 19.8817C15.413 20.3521 16.7911 20.3521 17.2833 19.8817C17.5786 19.5961 17.8542 19.5457 18.6417 19.5793C19.5079 19.6297 19.6457 19.6801 19.7442 20.0497C19.8229 20.3521 20.0001 20.4865 20.3938 20.5201C20.6891 20.5537 20.9451 20.5201 20.9451 20.4361C21.2994 18.7393 20.9451 18.3697 19.0157 18.3697C17.8148 18.3697 17.5195 18.3193 17.2439 18.0337C17.0077 17.7985 16.6533 17.6977 16.0824 17.6977C15.5311 17.6977 15.1768 17.7985 14.9208 18.0337C14.4484 18.4873 12.6962 18.5209 12.5387 18.0673C12.2237 17.2105 11.6528 16.9417 11.2984 17.5129Z" fill="black"/>
<path d="M33.9779 17.3953C33.8597 17.5129 33.7416 17.7649 33.6826 17.9497C33.6235 18.2353 33.4463 18.3025 32.5604 18.3361C31.6745 18.3865 31.4579 18.3361 31.2217 18.0505C30.8476 17.5801 29.5877 17.5633 29.0955 18.0337C28.8002 18.3193 28.4852 18.3697 27.2252 18.3697C26.3196 18.3697 25.6306 18.4537 25.4928 18.5713C25.0991 18.9073 25.1975 20.3521 25.6109 20.5369C26.1031 20.7553 26.6346 20.4529 26.6346 19.9657C26.6346 19.5793 26.6937 19.5457 27.678 19.5457C28.4852 19.5457 28.8199 19.6297 29.0955 19.8817C29.5877 20.3353 30.8476 20.3353 31.2217 19.8817C31.4382 19.6129 31.7532 19.5457 33.1313 19.5121C34.7457 19.4617 34.8047 19.4449 34.9819 19.0081C35.3756 18.0505 34.5685 16.7569 33.9779 17.3953Z" fill="black"/>
<path d="M11.4757 22.6874C10.4322 23.0234 10.2157 23.7962 10.9835 24.4178L11.4757 24.8042V30.9194C11.4757 36.1442 11.4363 37.0346 11.1804 37.1186C11.0229 37.169 10.7669 37.4546 10.5897 37.7402C10.3141 38.2274 10.3141 38.2778 10.8063 38.8154C11.1804 39.2522 11.4363 39.3698 11.9481 39.3698C13.09 39.3698 13.6806 38.0762 12.8537 37.4378C12.4797 37.1522 12.46 36.917 12.46 30.9698C12.46 25.0226 12.4797 24.7874 12.8537 24.5018C13.4247 24.065 13.3656 23.3426 12.7356 22.9226C12.2041 22.5698 11.9875 22.5194 11.4757 22.6874Z" fill="black"/>
<path d="M33.6629 22.8553C32.9935 23.1409 32.9147 24.0313 33.525 24.5017C33.8991 24.7873 33.9188 25.0225 33.9188 30.8521V36.8834L33.4069 37.4042C32.8557 37.9586 32.8754 38.513 33.466 39.0674C33.8794 39.4706 34.9425 39.4538 35.3559 39.0674C35.8284 38.6138 35.789 37.5722 35.2969 37.3202C34.9228 37.1186 34.9031 36.917 34.9031 30.9529C34.9031 25.0225 34.9228 24.7873 35.2969 24.5017C36.419 23.6449 35.0212 22.2337 33.6629 22.8553Z" fill="black"/>
<path d="M16.7517 25.3081C16.1021 25.7617 16.0233 26.4169 16.5942 26.8537C16.9486 27.1393 16.988 27.3745 16.988 29.7434C16.988 32.0786 16.9486 32.3306 16.6533 32.2802C16.4761 32.2466 16.1414 31.9274 15.8855 31.5578C15.5312 31.0034 15.3343 30.869 14.7634 30.8354C13.6609 30.7514 13.0506 31.1882 13.0506 32.0618C13.0506 33.053 13.5034 33.3722 14.9209 33.3386C15.6296 33.3386 16.1808 33.4226 16.4958 33.5906C16.988 33.8594 16.988 33.8762 16.988 36.6818C16.988 39.269 16.9486 39.5042 16.5942 39.7898C16.358 39.9746 16.2005 40.3106 16.2005 40.6298C16.2005 41.7722 17.7361 42.125 18.6614 41.201C18.937 40.9154 19.1142 40.5794 19.0551 40.4786C18.9961 40.3778 18.8976 40.1594 18.8386 40.0082C18.7795 39.8402 18.5433 39.6722 18.3464 39.6218C17.992 39.521 17.9723 39.3194 17.9723 36.917C17.9723 35.489 18.0511 34.3298 18.1298 34.3298C18.3464 34.3298 22.0672 35.9426 22.3822 36.161C22.5397 36.2786 22.5988 37.1522 22.5594 39.0506C22.5003 41.5202 22.461 41.8226 22.1066 42.1418C21.6144 42.5954 21.5947 43.4354 22.0672 43.7882C22.4413 44.0738 23.6225 44.1746 23.9769 43.9394C24.095 43.8722 24.2918 43.637 24.4297 43.4354C24.6462 43.0994 24.6462 42.9482 24.3903 42.4778C24.2131 42.1754 23.9375 41.8898 23.78 41.8226C23.5437 41.7554 23.4847 41.285 23.4847 39.0674C23.4847 37.1186 23.5437 36.3458 23.7406 36.2114C24.2918 35.825 27.9339 34.3298 28.1505 34.397C28.3277 34.4642 28.3867 35.153 28.3867 36.7826L28.4064 39.0674L27.8158 39.6722C27.4811 40.0082 27.2252 40.4114 27.2252 40.5458C27.2252 40.9994 28.2686 41.7218 28.938 41.7218C30.0207 41.7218 30.572 40.5122 29.8042 39.8066C29.4695 39.5042 29.4104 39.101 29.3514 36.6986C29.253 34.1114 29.2726 33.9434 29.6467 33.641C30.0995 33.2882 30.7885 33.221 31.3201 33.5066C31.7729 33.7586 32.6194 33.3218 33.0328 32.633C33.2888 32.2466 33.2888 32.1122 33.0525 31.7258C32.7179 31.1714 32.1666 30.8186 31.6351 30.8018C31.1035 30.8018 30.257 31.3562 29.942 31.9274C29.3711 32.9186 29.253 32.549 29.2136 29.9114C29.1939 27.3577 29.1939 27.341 29.6861 26.9377C30.2964 26.4505 30.316 25.9297 29.7451 25.4761C28.9773 24.8545 28.0914 24.9553 27.5205 25.6945C27.2055 26.0977 27.2252 26.1481 27.7567 26.7361C28.308 27.3577 28.308 27.3913 28.3474 29.9618C28.367 31.7594 28.308 32.6498 28.1505 32.8178C28.0127 32.9522 27.3039 33.3386 26.5362 33.6578C25.7881 33.977 24.9021 34.3802 24.6068 34.5482C23.6225 35.1194 23.5241 34.9346 23.5044 32.2802C23.465 29.8946 23.4847 29.861 23.9769 29.4578C24.5675 28.9706 24.6068 28.4665 24.0556 27.8785C23.5437 27.3241 22.7169 27.3073 22.146 27.8281C21.575 28.3321 21.5947 28.7017 22.205 29.3234C22.6775 29.7938 22.6972 29.9114 22.6972 32.1626C22.6972 34.0778 22.6381 34.5314 22.4019 34.5986C22.1066 34.6994 19.5276 33.7082 18.5236 33.1034L17.9723 32.801V29.9618C17.9723 27.3577 18.0117 27.1057 18.3464 26.9545C18.9764 26.6521 18.9961 25.9297 18.3661 25.3921C17.6967 24.8209 17.4605 24.8209 16.7517 25.3081Z" fill="black"/>
</g>
</g>
<defs>
<filter id="filter0_i_28_89" x="-2" y="0" width="51" height="49" filterUnits="userSpaceOnUse" color-interpolation-filters="sRGB">
<feFlood flood-opacity="0" result="BackgroundImageFix"/>
<feBlend mode="normal" in="SourceGraphic" in2="BackgroundImageFix" result="shape"/>
<feColorMatrix in="SourceAlpha" type="matrix" values="0 0 0 0 0 0 0 0 0 0 0 0 0 0 0 0 0 0 127 0" result="hardAlpha"/>
<feOffset dy="4"/>
<feGaussianBlur stdDeviation="2"/>
<feComposite in2="hardAlpha" operator="arithmetic" k2="-1" k3="1"/>
<feColorMatrix type="matrix" values="0 0 0 0 0 0 0 0 0 0 0 0 0 0 0 0 0 0 0.25 0"/>
<feBlend mode="normal" in2="shape" result="effect1_innerShadow_28_89"/>
</filter>
<clipPath id="clip0_28_89">
<rect width="46" height="45" fill="white"/>
</clipPath>
</defs>
</svg>
