<svg width="1616" height="179" viewBox="0 0 1616 179" fill="none" xmlns="http://www.w3.org/2000/svg">
<path d="M51.3563 114.425H52.6064L51.4447 120.593C51.2723 121.508 51.3048 122.197 51.5431 122.657C51.7805 123.117 52.2223 123.347 52.8681 123.347C53.5099 123.347 54.0361 123.117 54.4473 122.657C54.8589 122.197 55.1509 121.508 55.3233 120.593L56.4845 114.425H57.7509L56.5608 120.746C56.3022 122.119 55.8414 123.147 55.1816 123.829C54.5213 124.512 53.6557 124.852 52.5847 124.852C51.5129 124.852 50.7777 124.512 50.3774 123.832C49.9766 123.153 49.9067 122.124 50.1662 120.746L51.3563 114.425Z" fill="#696A6A"/>
<path d="M57.5825 124.583L59.571 114.023L63.3493 120.233C63.4504 120.408 63.5524 120.595 63.653 120.794C63.7537 120.993 63.8566 121.217 63.9622 121.467L65.2886 114.426H66.4588L64.4717 124.977L60.6139 118.657C60.5106 118.486 60.4145 118.306 60.3246 118.116C60.2339 117.926 60.1522 117.727 60.0773 117.52L58.7473 124.583H57.5825Z" fill="#696A6A"/>
<path d="M66.3553 124.582L68.2679 114.425H69.5334L67.6212 124.582H66.3553Z" fill="#696A6A"/>
<path d="M69.4409 124.582L71.3535 114.425H75.6996L75.4356 115.826H72.3554L71.8784 118.359H74.9586L74.686 119.808H71.6053L70.7068 124.582H69.4409Z" fill="#696A6A"/>
<path d="M75.1814 124.582L77.094 114.425H78.3595L76.4473 124.582H75.1814Z" fill="#696A6A"/>
<path d="M78.267 124.582L80.1796 114.425H84.5257L84.2617 115.826H81.1815L80.7018 118.372H83.782L83.5094 119.823H80.4292L79.8109 123.104H82.8911L82.6131 124.582H78.267Z" fill="#696A6A"/>
<path d="M85.6126 123.09H86.6768C87.2617 123.09 87.7103 123.039 88.0221 122.938C88.334 122.836 88.6201 122.664 88.8823 122.424C89.2384 122.097 89.5358 121.688 89.775 121.2C90.0138 120.712 90.1947 120.144 90.3166 119.496C90.438 118.848 90.4714 118.281 90.4163 117.794C90.3608 117.305 90.2173 116.898 89.9849 116.569C89.8102 116.329 89.5796 116.157 89.2917 116.055C89.0033 115.954 88.5339 115.903 87.8813 115.903H87.4237H86.9661L85.6126 123.09ZM84.0659 124.582L85.9786 114.425H87.6859C88.7961 114.425 89.5633 114.497 89.9885 114.643C90.4127 114.789 90.7634 115.034 91.0391 115.376C91.4051 115.824 91.638 116.4 91.7382 117.102C91.8379 117.806 91.8027 118.608 91.6331 119.51C91.4634 120.412 91.1966 121.211 90.8329 121.907C90.47 122.604 90.0201 123.178 89.4848 123.631C89.08 123.974 88.6458 124.218 88.1846 124.364C87.722 124.509 87.0324 124.582 86.1135 124.582H85.7728H84.0659Z" fill="#696A6A"/>
<path d="M97.7971 118.671H98.122C98.8238 118.671 99.3108 118.571 99.5824 118.372C99.8546 118.174 100.037 117.822 100.132 117.318C100.234 116.777 100.181 116.395 99.9728 116.173C99.7643 115.951 99.3256 115.84 98.6555 115.84H98.3305L97.7971 118.671ZM97.4626 120.023L96.6043 124.582H95.4182L97.3313 114.425H99.2462C99.8135 114.425 100.224 114.465 100.476 114.546C100.728 114.627 100.936 114.76 101.101 114.946C101.301 115.181 101.432 115.499 101.495 115.899C101.558 116.3 101.544 116.74 101.454 117.22C101.363 117.702 101.21 118.146 100.995 118.553C100.781 118.96 100.529 119.279 100.241 119.51C100.007 119.695 99.7494 119.827 99.4669 119.905C99.1839 119.985 98.7593 120.023 98.192 120.023H97.9424H97.4626Z" fill="#696A6A"/>
<path d="M103.017 120.593H105.187L104.825 118.275C104.808 118.128 104.791 117.958 104.777 117.766C104.764 117.574 104.755 117.36 104.749 117.124C104.666 117.346 104.581 117.553 104.497 117.745C104.413 117.937 104.331 118.114 104.251 118.275L103.017 120.593ZM105.766 124.582L105.375 121.967H102.289L100.893 124.582H99.5635L105.323 114.023L107.101 124.582H105.766Z" fill="#696A6A"/>
<path d="M108.916 124.582L109.79 119.933L108.205 114.425H109.535L110.519 117.873C110.542 117.962 110.569 118.077 110.6 118.22C110.631 118.364 110.662 118.518 110.691 118.685C110.77 118.523 110.852 118.369 110.934 118.227C111.016 118.083 111.098 117.952 111.182 117.831L113.498 114.425H114.765L111.046 119.933L110.171 124.582H108.916Z" fill="#696A6A"/>
<path d="M120.995 119.566C120.995 119.487 121.013 119.27 121.048 118.914C121.075 118.618 121.097 118.372 121.112 118.178C121.037 118.41 120.948 118.641 120.846 118.872C120.743 119.103 120.626 119.339 120.492 119.58L117.435 124.992L116.438 119.469C116.395 119.242 116.363 119.022 116.341 118.81C116.32 118.597 116.305 118.387 116.297 118.178C116.254 118.391 116.199 118.614 116.132 118.848C116.065 119.081 115.984 119.326 115.89 119.58L114.113 124.582H112.948L116.782 113.994L117.873 120.405C117.889 120.507 117.912 120.676 117.94 120.912C117.968 121.148 118.001 121.439 118.039 121.786C118.169 121.494 118.355 121.125 118.599 120.676C118.664 120.556 118.714 120.463 118.747 120.399L122.198 113.994L122.088 124.582H120.912L120.995 119.566Z" fill="#696A6A"/>
<path d="M123.098 124.582L125.011 114.425H129.358L129.094 115.826H126.013L125.534 118.372H128.614L128.341 119.823H125.261L124.643 123.104H127.723L127.444 124.582H123.098Z" fill="#696A6A"/>
<path d="M128.897 124.583L130.886 114.023L134.664 120.233C134.765 120.408 134.867 120.595 134.968 120.794C135.068 120.993 135.171 121.217 135.277 121.467L136.603 114.426H137.774L135.787 124.977L131.929 118.657C131.825 118.486 131.729 118.306 131.639 118.116C131.549 117.926 131.467 117.727 131.392 117.52L130.062 124.583H128.897Z" fill="#696A6A"/>
<path d="M141.813 115.826L140.165 124.582H138.899L140.547 115.826H138.478L138.742 114.425H144.136L143.872 115.826H141.813Z" fill="#696A6A"/>
<path d="M143.127 122.549L144.253 121.939C144.264 122.392 144.374 122.738 144.584 122.976C144.795 123.214 145.099 123.333 145.497 123.333C145.872 123.333 146.197 123.197 146.47 122.923C146.743 122.651 146.923 122.286 147.009 121.828C147.121 121.23 146.841 120.699 146.171 120.232C146.077 120.163 146.005 120.112 145.955 120.079C145.199 119.533 144.72 119.039 144.518 118.598C144.316 118.156 144.274 117.616 144.394 116.978C144.55 116.15 144.892 115.48 145.42 114.966C145.947 114.453 146.56 114.196 147.259 114.196C147.834 114.196 148.287 114.34 148.619 114.629C148.951 114.919 149.141 115.334 149.188 115.875L148.074 116.541C147.977 116.222 147.85 115.988 147.692 115.84C147.533 115.692 147.333 115.618 147.092 115.618C146.752 115.618 146.46 115.734 146.216 115.964C145.973 116.196 145.813 116.506 145.74 116.895C145.625 117.505 145.958 118.074 146.738 118.601C146.798 118.642 146.845 118.676 146.879 118.699C147.562 119.161 148.006 119.613 148.209 120.055C148.413 120.497 148.454 121.049 148.329 121.71C148.148 122.672 147.772 123.436 147.2 124.003C146.629 124.569 145.947 124.852 145.157 124.852C144.493 124.852 143.987 124.654 143.639 124.256C143.29 123.858 143.119 123.29 143.127 122.549Z" fill="#696A6A"/>
<path d="M152.48 124.582L154.393 114.425H155.659L153.746 124.582H152.48Z" fill="#696A6A"/>
<path d="M155.566 124.583L157.554 114.023L161.333 120.233C161.434 120.408 161.536 120.595 161.637 120.794C161.737 120.993 161.84 121.217 161.946 121.467L163.272 114.426H164.442L162.455 124.977L158.597 118.657C158.494 118.486 158.397 118.306 158.308 118.116C158.217 117.926 158.135 117.727 158.06 117.52L156.731 124.583H155.566Z" fill="#696A6A"/>
<path d="M168.482 115.826L166.833 124.582H165.567L167.216 115.826H165.146L165.41 114.425H170.805L170.541 115.826H168.482Z" fill="#696A6A"/>
<path d="M169.86 124.582L171.773 114.425H176.119L175.855 115.826H172.775L172.295 118.372H175.376L175.103 119.823H172.022L171.405 123.104H174.485L174.206 124.582H169.86Z" fill="#696A6A"/>
<path d="M178.023 118.754H178.252C178.922 118.754 179.386 118.653 179.644 118.449C179.902 118.245 180.081 117.885 180.178 117.366C180.283 116.807 180.24 116.412 180.046 116.184C179.854 115.954 179.439 115.84 178.801 115.84H178.571L178.023 118.754ZM177.701 120.037L176.845 124.582H175.659L177.572 114.425H179.338C179.856 114.425 180.249 114.469 180.518 114.557C180.787 114.645 181.003 114.79 181.167 114.994C181.362 115.238 181.489 115.556 181.547 115.945C181.605 116.333 181.59 116.758 181.503 117.22C181.35 118.034 181.079 118.672 180.691 119.132C180.303 119.592 179.806 119.869 179.2 119.961L181.011 124.582H179.58L177.845 120.037H177.701Z" fill="#696A6A"/>
<path d="M181.761 124.582L183.674 114.425H188.02L187.756 115.826H184.676L184.199 118.359H187.279L187.006 119.808H183.926L183.027 124.582H181.761Z" fill="#696A6A"/>
<path d="M189.487 120.593H191.658L191.296 118.275C191.278 118.128 191.262 117.958 191.248 117.766C191.235 117.574 191.226 117.36 191.22 117.124C191.136 117.346 191.052 117.553 190.968 117.745C190.884 117.937 190.801 118.114 190.721 118.275L189.487 120.593ZM192.237 124.582L191.846 121.967H188.76L187.363 124.582H186.034L191.793 114.023L193.572 124.582H192.237Z" fill="#696A6A"/>
<path d="M201.813 116.895C201.53 116.497 201.208 116.199 200.846 116C200.485 115.802 200.084 115.701 199.644 115.701C198.793 115.701 198.033 116.058 197.366 116.77C196.697 117.482 196.257 118.405 196.043 119.538C195.837 120.635 195.927 121.538 196.312 122.25C196.698 122.963 197.286 123.32 198.076 123.32C198.538 123.32 198.997 123.213 199.453 123C199.91 122.787 200.371 122.466 200.834 122.035L200.483 123.902C200.083 124.221 199.667 124.46 199.237 124.616C198.806 124.773 198.357 124.852 197.889 124.852C197.293 124.852 196.766 124.725 196.309 124.471C195.851 124.216 195.477 123.842 195.188 123.347C194.9 122.861 194.716 122.289 194.637 121.63C194.556 120.971 194.586 120.269 194.726 119.523C194.867 118.779 195.101 118.08 195.428 117.425C195.755 116.771 196.159 116.196 196.638 115.701C197.119 115.202 197.634 114.824 198.182 114.567C198.73 114.311 199.295 114.182 199.877 114.182C200.335 114.182 200.755 114.269 201.137 114.443C201.519 114.615 201.872 114.878 202.196 115.23L201.813 116.895Z" fill="#696A6A"/>
<path d="M201.935 124.582L203.848 114.425H208.194L207.93 115.826H204.85L204.371 118.372H207.451L207.178 119.823H204.098L203.48 123.104H206.56L206.281 124.582H201.935Z" fill="#696A6A"/>
<path d="M178.845 105.574H170.142L182.245 50.0075H190.948L178.845 105.574Z" fill="#66686C"/>
<path d="M174.327 51.764C173.723 50.7067 172.793 50.1731 171.528 50.1731H123.673L121.303 61.0564H130.011V61.0501H164.838L162.304 72.6803H127.476L127.479 72.6562H118.775L111.551 105.809H120.26L125.108 83.5573H164.257C165.48 83.5573 166.63 83.0272 167.713 81.967C168.793 80.9056 169.503 79.597 169.844 78.0342L174.692 55.7777C175.046 54.1627 174.923 52.8225 174.327 51.764Z" fill="#66686C"/>
<path d="M106.48 102.106C105.999 104.306 104.424 105.828 102.627 105.828H57.7257C56.5022 105.828 55.5928 105.298 54.9948 104.239C54.3973 103.178 54.2691 101.867 54.6107 100.305L65.5667 50.1699H74.2774L64.4917 94.9479H99.3355L109.121 50.1699H117.83L106.48 102.106Z" fill="#66686C"/>
<path d="M205.979 50.1114L216.997 77.9667L193.835 105.815L205.979 50.1114Z" fill="#27803B"/>
<path d="M198.255 50.1114L209.265 77.9667L186.093 105.815L198.255 50.1114Z" fill="#E9661C"/>
<path d="M480.11 54.8987L491.952 82.9926L467.057 111.1L480.11 54.8987Z" fill="#008C44"/>
<path d="M471.909 54.8987L483.734 82.9926L458.856 111.1L471.909 54.8987Z" fill="#F47920"/>
<path d="M282.046 100.878L293.854 50.055H312.73C318.63 50.055 322.571 51.1708 324.576 53.4702C326.566 55.7511 326.95 59.4742 325.75 64.7073C325.024 67.79 323.921 70.3776 322.406 72.422C320.903 74.4702 318.921 76.0897 316.48 77.2807C318.551 77.8755 319.868 79.0566 320.459 80.8277C321.046 82.5987 320.978 85.1814 320.265 88.567L318.829 95.6659L318.825 95.8581C318.41 97.8459 318.533 98.91 319.208 98.9962L318.773 100.878H306.003C306.046 99.6822 306.126 98.6131 306.21 97.7153C306.303 96.7965 306.418 96.0847 306.531 95.5957L307.722 90.5203C308.322 87.881 308.359 86.0398 307.802 84.9794C307.24 83.8906 305.983 83.3549 303.997 83.3549H298.631L294.538 100.878H282.046ZM301.286 71.9023H307.034C309.048 71.9023 310.535 71.5587 311.451 70.848C312.372 70.1312 313.055 68.9206 313.456 67.1693C313.872 65.3884 313.77 64.1469 313.174 63.4412C312.579 62.7244 311.155 62.3759 308.917 62.3759H303.499L301.286 71.9023Z" fill="#1B3281"/>
<path d="M360.798 63.3744L352.093 100.878H341.516L342.816 95.3835C340.954 97.5684 339.049 99.2274 337.128 100.288C335.223 101.367 333.213 101.897 331.097 101.897C329.348 101.897 327.846 101.518 326.637 100.766C325.413 100.016 324.502 98.8751 323.888 97.3713C323.344 96.0548 323.107 94.4291 323.2 92.4868C323.298 90.5754 323.863 87.3511 324.91 82.836L329.421 63.3744H340.991L336.489 82.7449C335.832 85.58 335.675 87.5728 335.996 88.6578C336.33 89.7527 337.221 90.318 338.668 90.318C340.126 90.318 341.352 89.6874 342.364 88.4004C343.391 87.1245 344.183 85.2216 344.779 82.6895L349.244 63.3744H360.798Z" fill="#1B3281"/>
<path d="M356.6 100.878L368.395 50.055H384.62C388.2 50.055 390.971 50.3075 392.947 50.8617C394.919 51.3925 396.465 52.2546 397.615 53.4702C399.055 55.0602 399.937 57.0283 400.3 59.3893C400.641 61.7502 400.439 64.5004 399.692 67.7296C398.37 73.411 396.054 77.7647 392.753 80.8067C389.442 83.8094 385.346 85.3181 380.456 85.3181H372.863L369.256 100.878H356.6ZM375.738 72.906H379.818C382.456 72.906 384.311 72.5168 385.397 71.7656C386.449 71.0044 387.196 69.6522 387.652 67.7296C388.107 65.7812 387.99 64.4191 387.301 63.658C386.638 62.9005 384.945 62.5175 382.235 62.5175H378.163L375.738 72.906Z" fill="#1B3281"/>
<path d="M413.303 100.878L413.42 97.3163C411.555 98.9851 409.665 100.246 407.765 101.034C405.874 101.837 403.859 102.245 401.702 102.245C398.425 102.245 396.139 101.181 394.818 99.1218C393.513 97.0589 393.298 94.0969 394.189 90.3183C395.042 86.5891 396.558 83.8438 398.745 82.0888C400.921 80.3128 404.553 79.0418 409.65 78.229C410.296 78.1034 411.162 78.0024 412.246 77.846C416.014 77.325 418.129 76.1254 418.585 74.1684C418.822 73.0969 418.678 72.3062 418.121 71.821C417.584 71.3173 416.58 71.0697 415.131 71.0697C413.928 71.0697 412.96 71.3678 412.166 71.9873C411.373 72.6129 410.782 73.5268 410.381 74.8125H399.1C400.119 70.5906 402.2 67.4008 405.324 65.2677C408.437 63.0976 412.542 62.0532 417.626 62.0532C420.017 62.0532 422.158 62.3205 424.05 62.9005C425.946 63.456 427.332 64.2479 428.231 65.2061C429.337 66.402 429.991 67.7653 430.178 69.2728C430.393 70.7766 430.157 72.9319 429.497 75.7522L424.645 96.6611C424.49 97.3458 424.46 97.9567 424.544 98.5121C424.645 99.0417 424.839 99.495 425.181 99.8189L424.921 100.878H413.303ZM416.115 84.132C414.886 84.722 413.29 85.2873 411.305 85.908C408.189 86.9068 406.436 88.2394 406.056 89.8885C405.793 90.9489 405.899 91.7655 406.333 92.3862C406.761 92.9761 407.504 93.2742 408.552 93.2742C410.472 93.2742 412.014 92.6941 413.164 91.5487C414.316 90.3885 415.178 88.567 415.781 86.0546C415.886 85.52 415.979 85.1358 416.039 84.8488L416.115 84.132Z" fill="#1B3281"/>
<path d="M425.009 115.656L427.576 104.556H430.887C431.994 104.556 432.864 104.294 433.48 103.819C434.106 103.325 434.532 102.493 434.777 101.372C434.9 100.878 434.975 100.358 435.026 99.7683C435.059 99.1427 435.059 98.4813 435.026 97.7153L433.259 63.3747H444.971L444.789 86.1296L455.013 63.3747H465.904L447.829 100.697C445.778 104.868 444.287 107.734 443.341 109.298C442.407 110.843 441.521 112.044 440.66 112.857C439.544 113.981 438.299 114.778 436.955 115.242C435.608 115.716 433.556 115.953 430.799 115.953C430.005 115.953 429.092 115.934 428.104 115.873C427.124 115.827 426.078 115.757 425.009 115.656Z" fill="#1B3281"/>
<g clip-path="url(#clip0)">
<path d="M557.572 115.856V111.542C557.572 109.888 555.553 108.81 552.092 108.81C550.361 108.81 548.487 109.097 547.189 110.032C546.179 109.241 544.737 108.81 542.574 108.81C541.132 108.81 539.69 109.026 538.536 109.816V108.954H535.508V115.856H538.536V112.045C538.536 110.823 539.834 110.248 541.853 110.248C543.872 110.248 544.882 110.895 544.882 112.045V115.856H547.91V112.045C547.91 110.823 549.352 110.248 551.227 110.248C553.245 110.248 554.255 110.895 554.255 112.045V115.856H557.572V115.856ZM602.42 108.954H597.517V106.868H594.488V108.954H591.748V110.32H594.488V113.483C594.488 115.065 595.786 116 599.247 116C600.545 116 601.987 115.784 602.997 115.497L602.131 114.202C601.266 114.49 600.257 114.562 599.536 114.562C598.094 114.562 597.517 114.131 597.517 113.412V110.32H602.42V108.954V108.954ZM628.088 108.81C626.358 108.81 625.204 109.241 624.483 109.816V108.954H621.455V115.856H624.483V111.974C624.483 110.823 625.493 110.176 627.367 110.176C627.944 110.176 628.665 110.248 629.242 110.32L630.107 108.882C629.53 108.81 628.665 108.81 628.088 108.81V108.81ZM589.297 109.529C587.855 109.025 585.836 108.81 583.673 108.81C580.212 108.81 577.905 109.673 577.905 111.039C577.905 112.189 579.635 112.836 582.663 113.052L584.106 113.124C585.692 113.268 586.557 113.483 586.557 113.843C586.557 114.346 585.403 114.706 583.385 114.706C581.366 114.706 579.779 114.346 578.77 113.987L577.328 115.137C578.914 115.712 581.077 116 583.24 116C587.278 116 589.585 115.065 589.585 113.771C589.585 112.549 587.711 111.902 584.827 111.686L583.385 111.614C582.087 111.542 581.077 111.398 581.077 110.967C581.077 110.464 582.087 110.176 583.673 110.176C585.403 110.176 587.134 110.535 587.999 110.751L589.297 109.529V109.529ZM669.764 108.81C668.033 108.81 666.88 109.241 666.159 109.816V108.954H663.13V115.856H666.159V111.974C666.159 110.823 667.168 110.176 669.043 110.176C669.62 110.176 670.341 110.248 670.918 110.32L671.783 108.882C671.206 108.81 670.341 108.81 669.764 108.81V108.81ZM631.117 112.405C631.117 114.49 634.001 116 638.471 116C640.49 116 641.932 115.784 643.374 115.209L641.932 113.987C640.779 114.418 639.625 114.634 638.327 114.634C635.876 114.634 634.145 113.771 634.145 112.405C634.145 111.111 635.876 110.248 638.327 110.176C639.625 110.176 640.779 110.392 641.932 110.823L643.374 109.601C641.932 109.026 640.49 108.81 638.471 108.81C634.001 108.81 631.117 110.32 631.117 112.405V112.405ZM659.093 112.405V108.954H656.064V109.816C655.055 109.169 653.613 108.81 651.738 108.81C647.845 108.81 644.816 110.32 644.816 112.405C644.816 114.49 647.845 116 651.738 116C653.757 116 655.199 115.641 656.064 114.993V115.856H659.093V112.405ZM647.989 112.405C647.989 111.183 649.575 110.176 652.171 110.176C654.622 110.176 656.353 111.111 656.353 112.405C656.353 113.627 654.622 114.634 652.171 114.634C649.575 114.562 647.989 113.627 647.989 112.405ZM611.793 108.81C607.755 108.81 604.871 110.248 604.871 112.405C604.871 114.562 607.755 116 611.937 116C613.956 116 615.975 115.712 617.561 115.065L616.119 113.987C614.966 114.418 613.524 114.706 612.082 114.706C610.207 114.706 608.332 114.274 607.9 113.052H618.138C618.138 112.836 618.138 112.693 618.138 112.477C618.282 110.248 615.687 108.81 611.793 108.81V108.81ZM611.793 110.104C613.668 110.104 614.966 110.679 615.254 111.758H608.044C608.332 110.823 609.63 110.104 611.793 110.104ZM686.924 112.405V106.221H683.896V109.816C682.887 109.169 681.445 108.81 679.57 108.81C675.676 108.81 672.648 110.32 672.648 112.405C672.648 114.49 675.676 116 679.57 116C681.589 116 683.031 115.641 683.896 114.993V115.856H686.924V112.405ZM675.821 112.405C675.821 111.183 677.407 110.176 680.003 110.176C682.454 110.176 684.185 111.111 684.185 112.405C684.185 113.627 682.454 114.634 680.003 114.634C677.407 114.562 675.821 113.627 675.821 112.405ZM574.588 112.405V108.954H571.56V109.816C570.55 109.169 569.108 108.81 567.233 108.81C563.34 108.81 560.312 110.32 560.312 112.405C560.312 114.49 563.34 116 567.233 116C569.252 116 570.694 115.641 571.56 114.993V115.856H574.588V112.405ZM563.34 112.405C563.34 111.183 564.926 110.176 567.522 110.176C569.973 110.176 571.704 111.111 571.704 112.405C571.704 113.627 569.973 114.634 567.522 114.634C564.926 114.562 563.34 113.627 563.34 112.405Z" fill="black"/>
<path d="M633.712 56.5365H588.288V97.2334H633.712V56.5365Z" fill="#FF5F00"/>
<path d="M591.172 76.885C591.172 68.6162 598.959 61.2821 610.928 56.5365C602.131 53.0852 591.027 51 578.914 51C550.217 51 527 62.5763 527 76.885C527 91.1936 550.217 102.77 578.914 102.77C591.027 102.77 602.131 100.685 610.928 97.2334C598.959 92.5597 591.172 85.1538 591.172 76.885Z" fill="#EB001B"/>
<path d="M695 76.885C695 91.1936 671.783 102.77 643.086 102.77C630.973 102.77 619.869 100.685 611.072 97.2334C623.185 92.4878 630.828 85.1538 630.828 76.885C630.828 68.6162 623.041 61.2821 611.072 56.5365C619.869 53.0852 630.973 51 643.086 51C671.783 51 695 62.6482 695 76.885Z" fill="#F79E1B"/>
</g>
<g clip-path="url(#clip1)">
<path d="M821.333 103.38H808.372L816.479 61.7545H829.439L821.333 103.38Z" fill="#00579F"/>
<path d="M868.318 62.7721C865.762 61.9299 861.707 61 856.693 61C843.894 61 834.88 66.6678 834.825 74.7711C834.719 80.7496 841.278 84.0703 846.184 86.0637C851.199 88.1007 852.904 89.4303 852.904 91.246C852.853 94.0346 848.852 95.32 845.12 95.32C839.945 95.32 837.173 94.6573 832.959 93.1058L831.252 92.4407L829.439 101.785C832.478 102.935 838.079 103.955 843.894 104C857.493 104 866.347 98.4199 866.452 89.7846C866.504 85.0461 863.04 81.4153 855.573 78.4484C851.039 76.5438 848.263 75.2596 848.263 73.3109C848.316 71.5393 850.611 69.7248 855.729 69.7248C859.942 69.6359 863.038 70.477 865.383 71.3186L866.556 71.7606L868.318 62.7721V62.7721Z" fill="#00579F"/>
<path d="M885.545 88.6334C886.612 86.242 890.719 76.987 890.719 76.987C890.666 77.0758 891.785 74.5515 892.425 73.0019L893.331 76.5885C893.331 76.5885 895.785 86.5522 896.318 88.6334C894.292 88.6334 888.105 88.6334 885.545 88.6334ZM901.544 61.7545H891.518C888.427 61.7545 886.078 62.5067 884.744 65.2082L865.492 103.379H879.092C879.092 103.379 881.331 98.2416 881.812 97.1351C883.304 97.1351 896.533 97.1351 898.453 97.1351C898.825 98.5965 899.999 103.379 899.999 103.379H912L901.544 61.7545V61.7545Z" fill="#00579F"/>
<path d="M797.546 61.7545L784.853 90.1389L783.466 84.3822C781.119 77.7397 773.76 70.5228 765.547 66.9344L777.173 103.336H790.879L811.252 61.7545H797.546V61.7545Z" fill="#00579F"/>
<path d="M773.067 61.7545H752.213L752 62.5956C768.267 66.0498 779.04 74.3761 783.466 84.384L778.933 65.2535C778.187 62.595 775.893 61.8422 773.067 61.7545Z" fill="#FAA61A"/>
</g>
<path d="M1602.38 71.5407C1600.84 66.913 1596.64 63.5899 1591.7 63.5899H1591.6C1588.39 63.5899 1585.5 64.9917 1583.44 67.242C1581.38 64.9917 1578.49 63.5899 1575.28 63.5899H1575.18C1572.36 63.5899 1569.78 64.674 1567.8 66.4682V65.5561C1567.73 64.6478 1567.02 63.9338 1566.14 63.9338H1558.56C1557.64 63.9338 1556.89 64.7188 1556.89 65.6944V108.85C1556.89 109.826 1557.64 110.611 1558.56 110.611H1566.14C1566.98 110.611 1567.68 109.949 1567.79 109.093L1567.78 78.1122C1567.78 78.0038 1567.79 77.9029 1567.8 77.802C1567.92 76.4189 1568.88 75.2825 1570.41 75.1405H1570.69H1571.48H1571.8C1572.44 75.2003 1572.98 75.4358 1573.4 75.7909C1574.06 76.3404 1574.43 77.1852 1574.43 78.1122L1574.46 108.94C1574.46 109.915 1575.21 110.704 1576.13 110.704H1583.7C1584.6 110.704 1585.32 109.957 1585.37 109.026L1585.36 78.0711C1585.36 77.0544 1585.81 76.1348 1586.6 75.589C1586.98 75.3274 1587.45 75.1517 1587.99 75.0994H1588.27H1589.06H1589.38C1591.02 75.2489 1592.01 76.5535 1592.01 78.0711L1592.04 108.858C1592.04 109.833 1592.79 110.618 1593.71 110.618H1601.28C1602.21 110.618 1602.96 109.833 1602.96 108.858V75.746C1602.96 73.4883 1602.72 72.5276 1602.38 71.5407Z" fill="#54C1F0"/>
<path d="M1551.12 64.0472H1546.79V56.6833C1546.79 56.6758 1546.79 56.6683 1546.79 56.6608C1546.79 55.7749 1546.11 55.0572 1545.26 55.0572C1545.16 55.0572 1545.07 55.0722 1544.97 55.0909C1540.17 56.4739 1541.14 63.4529 1532.37 64.0472H1532.17H1531.52C1531.39 64.0472 1531.27 64.0659 1531.15 64.0921H1531.14L1531.15 64.0958C1530.4 64.2715 1529.84 64.9668 1529.84 65.8041V73.7512C1529.84 74.7193 1530.59 75.5081 1531.52 75.5081H1536.09L1536.08 109.207C1536.08 110.167 1536.82 110.945 1537.74 110.945H1545.22C1546.14 110.945 1546.88 110.167 1546.88 109.207L1546.88 75.5081H1551.12C1552.04 75.5081 1552.8 74.7193 1552.8 73.7512V65.8041C1552.8 64.8359 1552.04 64.0472 1551.12 64.0472Z" fill="#54C1F0"/>
<path d="M1523.88 64.0468H1516.31C1515.38 64.0468 1514.64 64.8355 1514.64 65.8037V82.2361C1514.62 83.2529 1513.83 84.0677 1512.86 84.0677H1509.69C1508.71 84.0677 1507.91 83.2379 1507.91 82.2062L1507.89 65.8037C1507.89 64.8355 1507.13 64.0468 1506.21 64.0468H1498.64C1497.71 64.0468 1496.97 64.8355 1496.97 65.8037V83.8136C1496.97 90.6542 1501.61 95.5323 1508.14 95.5323C1508.14 95.5323 1513.03 95.5323 1513.18 95.5622C1514.06 95.6669 1514.75 96.4444 1514.75 97.4013C1514.75 98.3471 1514.08 99.1208 1513.2 99.2367C1513.16 99.2442 1513.12 99.2554 1513.08 99.2629L1502 99.304C1501.08 99.304 1500.33 100.093 1500.33 101.061V109.004C1500.33 109.976 1501.08 110.761 1502 110.761H1514.38C1520.91 110.761 1525.55 105.887 1525.55 99.0423V65.8037C1525.55 64.8355 1524.8 64.0468 1523.88 64.0468Z" fill="#233266"/>
<path d="M1450.58 78.6083V82.3164V83.5126C1450.58 84.5405 1449.79 85.3779 1448.81 85.3779L1444.01 85.3816V75.5543H1448.81C1449.79 75.5543 1450.58 76.3841 1450.58 77.4158V78.6083ZM1451.25 64.0449H1434.7C1433.79 64.0449 1433.06 64.8186 1433.06 65.7681V73.5544C1433.06 73.5694 1433.06 73.5843 1433.06 73.5993C1433.06 73.6367 1433.06 73.674 1433.06 73.7077V98.6816V108.95C1433.06 109.907 1433.74 110.688 1434.59 110.711H1434.73H1442.3C1443.23 110.711 1443.98 109.926 1443.98 108.954L1444.01 96.8761H1451.25C1457.31 96.8761 1461.54 92.4614 1461.54 86.0731V74.8627C1461.54 68.4744 1457.31 64.0449 1451.25 64.0449" fill="#233266"/>
<path d="M1482 97.2662V98.5072C1482 98.6081 1481.99 98.7053 1481.97 98.7988C1481.96 98.8885 1481.93 98.9745 1481.9 99.0567C1481.67 99.752 1481.01 100.257 1480.22 100.257H1477.07C1476.08 100.257 1475.28 99.4716 1475.28 98.5072V97.0082C1475.28 96.9896 1475.28 96.9709 1475.28 96.9522L1475.28 92.9637V92.9562V92.5151V91.7152L1475.29 91.704C1475.29 90.7433 1476.08 89.9658 1477.07 89.9658H1480.22C1481.2 89.9658 1482 90.747 1482 91.7152V97.2662ZM1480.8 64.091H1470.29C1469.36 64.091 1468.61 64.8312 1468.61 65.7395V68.8309C1468.61 68.8496 1468.61 68.872 1468.61 68.8907C1468.61 68.9131 1468.61 68.9355 1468.61 68.958V73.1932C1468.61 74.1539 1469.41 74.9388 1470.39 74.9388H1480.4C1481.19 75.0697 1481.81 75.6752 1481.9 76.621V77.6452C1481.81 78.5461 1481.19 79.204 1480.44 79.2787H1475.48C1468.9 79.2787 1464.2 83.8728 1464.2 90.3246V99.3296V99.5651C1464.2 105.98 1468.24 110.544 1474.78 110.544H1488.51C1490.97 110.544 1492.97 108.585 1492.97 106.174V76.0191C1492.97 68.7075 1489.38 64.091 1480.8 64.091" fill="#233266"/>
<path d="M1006.33 55.9937C990.133 55.9937 977.001 69.6523 977.001 86.5C977.001 103.349 990.133 117.006 1006.33 117.006C1022.53 117.006 1035.66 103.349 1035.66 86.5C1035.66 69.6523 1022.53 55.9937 1006.33 55.9937Z" fill="#673AB7"/>
<path d="M1019.74 78.2344V79.2777C1019.74 79.5849 1019.67 79.8145 1019.52 79.9681C1019.37 80.1217 1019.15 80.1993 1018.86 80.1993H1017.32H1015.78C1015.61 80.1993 1015.48 80.2464 1015.4 80.3438C1015.31 80.4411 1015.27 80.5871 1015.27 80.7802V93.1918V105.6C1015.27 105.907 1015.19 106.139 1015.05 106.291C1014.9 106.444 1014.68 106.522 1014.38 106.522H1013.15H1011.91C1011.62 106.522 1011.39 106.444 1011.25 106.291C1011.1 106.139 1011.03 105.909 1011.03 105.6V101.115V96.6319H1010.94H1010.84C1010.47 97.3102 1009.92 97.8181 1009.21 98.1588C1008.5 98.4979 1007.61 98.6668 1006.55 98.6668H1005.88H1005.2C1004.13 98.6668 1003.16 98.5025 1002.31 98.1755C1001.45 97.8501 1000.7 97.3588 1000.05 96.7034C999.406 96.0509 998.923 95.2753 998.6 94.3841C998.278 93.4898 998.116 92.477 998.116 91.3485V86.0636V80.7802C998.116 80.6038 998.081 80.4654 998.011 80.3681C997.942 80.2708 997.837 80.2145 997.696 80.1993H996.344H994.993C994.698 80.1993 994.477 80.1172 994.329 79.9559C994.181 79.7947 994.107 79.5544 994.107 79.229V78.2115V77.1926C994.107 76.9021 994.181 76.6831 994.329 76.5402C994.477 76.3942 994.698 76.3212 994.993 76.3212H1001.86H1008.72C1007.73 75.2459 1006.77 74.1083 1005.84 72.9054C1004.91 71.7009 1004.01 70.434 1003.15 69.0987L1001.84 67.0851L1000.54 65.0746C1000.48 64.9636 1000.43 64.8449 1000.4 64.7248C1000.37 64.6031 1000.35 64.4784 1000.35 64.3492C1000.35 64.1073 1000.41 63.9248 1000.53 63.8032C1000.64 63.683 1000.82 63.6222 1001.05 63.6222H1002.47H1003.89C1004.17 63.6222 1004.41 63.683 1004.62 63.8032C1004.82 63.9248 1004.98 64.1073 1005.11 64.3492L1008.44 69.9245L1011.77 75.4984C1011.94 75.7737 1012.13 75.9805 1012.33 76.1158C1012.54 76.2527 1012.75 76.3212 1012.99 76.3212H1013.1H1013.22H1016.04H1018.86C1019.15 76.3212 1019.37 76.3926 1019.52 76.5402C1019.67 76.6846 1019.74 76.9021 1019.74 77.1926V78.2344H1019.74Z" fill="white"/>
<path d="M1010.51 80.1978H1006.69H1002.87C1002.7 80.1978 1002.57 80.2449 1002.48 80.3422C1002.4 80.4396 1002.36 80.5856 1002.36 80.7787V85.8461V90.9105C1002.36 92.1713 1002.65 93.1157 1003.24 93.7453C1003.83 94.3765 1004.72 94.6913 1005.9 94.6913H1006.53H1007.16C1007.81 94.6913 1008.38 94.6046 1008.86 94.4312C1009.35 94.2579 1009.75 93.9963 1010.07 93.6495C1010.39 93.3013 1010.63 92.8922 1010.79 92.4207C1010.95 91.9462 1011.03 91.4124 1011.03 90.8147V85.7975V80.7802C1011.03 80.5871 1010.98 80.4396 1010.9 80.3438C1010.81 80.2449 1010.69 80.1978 1010.51 80.1978Z" fill="#673AB7"/>
<path d="M1055.58 91.3757V99.5076H1051.92V77.5818H1059.98C1062.34 77.5818 1064.21 78.2205 1065.59 79.4965C1066.98 80.7725 1067.67 82.4621 1067.67 84.5624C1067.67 86.7144 1066.99 88.3873 1065.64 89.5827C1064.28 90.7796 1062.38 91.3773 1059.94 91.3773H1055.58V91.3757ZM1055.58 88.3037H1059.98C1061.28 88.3037 1062.28 87.9858 1062.96 87.3471C1063.65 86.7098 1063.99 85.7882 1063.99 84.5837C1063.99 83.399 1063.64 82.453 1062.95 81.7443C1062.25 81.0356 1061.3 80.6721 1060.08 80.6524H1055.58V88.3037H1055.58Z" fill="#212121"/>
<path d="M1074.29 84.9913C1075.44 83.6058 1076.89 82.9123 1078.65 82.9123C1081.99 82.9123 1083.68 84.8955 1083.73 88.8618V99.5092H1080.21V88.9972C1080.21 87.8733 1079.98 87.0764 1079.51 86.6095C1079.04 86.1426 1078.36 85.9084 1077.45 85.9084C1076.04 85.9084 1074.99 86.5608 1074.29 87.8657V99.5061H1070.77V76.3743H1074.29V84.9913H1074.29Z" fill="#212121"/>
<path d="M1086.92 91.21C1086.92 89.6131 1087.23 88.1759 1087.84 86.8954C1088.44 85.6148 1089.3 84.6308 1090.4 83.9434C1091.5 83.256 1092.76 82.9108 1094.19 82.9108C1096.31 82.9108 1098.02 83.6195 1099.34 85.0338C1100.66 86.4497 1101.37 88.3265 1101.47 90.6655L1101.49 91.5248C1101.49 93.1308 1101.19 94.5664 1100.6 95.8318C1100.01 97.0971 1099.16 98.0765 1098.05 98.7685C1096.95 99.462 1095.67 99.8072 1094.22 99.8072C1092.01 99.8072 1090.24 99.0422 1088.92 97.5108C1087.59 95.9808 1086.92 93.9398 1086.92 91.3894V91.21ZM1090.44 91.5263C1090.44 93.2038 1090.77 94.5162 1091.44 95.4652C1092.11 96.4142 1093.03 96.8872 1094.22 96.8872C1095.41 96.8872 1096.33 96.4051 1096.99 95.4409C1097.65 94.4767 1097.98 93.0669 1097.98 91.2084C1097.98 89.5614 1097.64 88.2565 1096.96 87.2923C1096.28 86.3281 1095.36 85.846 1094.19 85.846C1093.04 85.846 1092.13 86.3205 1091.45 87.2695C1090.78 88.2185 1090.44 89.6389 1090.44 91.5263Z" fill="#212121"/>
<path d="M1108.03 83.2135L1108.13 85.0963C1109.28 83.6408 1110.8 82.9124 1112.69 82.9124C1115.95 82.9124 1117.61 84.856 1117.67 88.7402V99.5077H1114.15V88.9516C1114.15 87.9174 1113.93 87.1524 1113.51 86.6551C1113.08 86.1578 1112.37 85.9099 1111.4 85.9099C1109.98 85.9099 1108.92 86.5776 1108.23 87.9129V99.5092H1104.71V83.2135H1108.03Z" fill="#212121"/>
<path d="M1128.45 99.8087C1126.22 99.8087 1124.41 99.0787 1123.03 97.6172C1121.64 96.1572 1120.95 94.2121 1120.95 91.7818V91.3301C1120.95 89.7043 1121.25 88.2504 1121.85 86.9699C1122.45 85.6893 1123.3 84.6932 1124.39 83.9799C1125.48 83.2666 1126.7 82.9108 1128.04 82.9108C1130.17 82.9108 1131.82 83.6195 1132.99 85.0338C1134.15 86.4482 1134.73 88.4527 1134.73 91.0427V92.5179H1124.49C1124.6 93.8638 1125.03 94.9269 1125.79 95.7101C1126.55 96.4933 1127.5 96.8842 1128.65 96.8842C1130.26 96.8842 1131.57 96.2074 1132.59 94.8508L1134.48 96.7336C1133.86 97.7085 1133.02 98.4628 1131.97 98.9997C1130.92 99.5411 1129.75 99.8087 1128.45 99.8087ZM1128.03 85.849C1127.06 85.849 1126.28 86.2003 1125.69 86.903C1125.1 87.6056 1124.72 88.585 1124.55 89.8397H1131.26V89.569C1131.18 88.3447 1130.87 87.4185 1130.32 86.7904C1129.76 86.1623 1129 85.849 1128.03 85.849Z" fill="#212121"/>
<path d="M1141.76 91.3757V99.5076H1138.1V77.5818H1146.16C1148.52 77.5818 1150.39 78.2205 1151.77 79.4965C1153.16 80.7725 1153.85 82.4621 1153.85 84.5624C1153.85 86.7144 1153.17 88.3873 1151.82 89.5827C1150.46 90.7796 1148.56 91.3773 1146.12 91.3773H1141.76V91.3757ZM1141.76 88.3037H1146.16C1147.46 88.3037 1148.46 87.9858 1149.14 87.3471C1149.83 86.7098 1150.17 85.7882 1150.17 84.5837C1150.17 83.399 1149.82 82.453 1149.13 81.7443C1148.43 81.0356 1147.48 80.6721 1146.26 80.6524H1141.76V88.3037H1141.76Z" fill="#212121"/>
<path d="M1163.71 99.8087C1161.48 99.8087 1159.68 99.0787 1158.29 97.6172C1156.91 96.1572 1156.22 94.2121 1156.22 91.7818V91.3301C1156.22 89.7043 1156.52 88.2504 1157.12 86.9699C1157.72 85.6893 1158.57 84.6932 1159.66 83.9799C1160.75 83.2666 1161.97 82.9108 1163.31 82.9108C1165.44 82.9108 1167.09 83.6195 1168.25 85.0338C1169.42 86.4497 1170 88.4527 1170 91.0427V92.5179H1159.76C1159.87 93.8638 1160.3 94.9269 1161.06 95.7101C1161.82 96.4933 1162.77 96.8842 1163.92 96.8842C1165.53 96.8842 1166.84 96.2074 1167.86 94.8508L1169.75 96.7336C1169.12 97.7085 1168.29 98.4628 1167.24 98.9997C1166.19 99.5411 1165.02 99.8087 1163.71 99.8087ZM1163.29 85.849C1162.33 85.849 1161.55 86.2003 1160.96 86.903C1160.36 87.6056 1159.98 88.585 1159.82 89.8397H1166.52V89.569C1166.45 88.3447 1166.13 87.4185 1165.58 86.7904C1165.03 86.1623 1164.27 85.849 1163.29 85.849Z" fill="#212121"/>
<g clip-path="url(#clip2)">
<path d="M1301.69 86.8923V102.428H1296.48V64.0613H1310.29C1311.94 64.0287 1313.58 64.3054 1315.11 64.8755C1316.65 65.4456 1318.05 66.2977 1319.23 67.3828C1320.43 68.402 1321.38 69.6518 1322.03 71.0485C1322.67 72.4451 1322.99 73.9561 1322.97 75.4799C1323 77.0118 1322.69 78.5327 1322.04 79.9382C1321.4 81.3437 1320.44 82.6007 1319.23 83.6229C1316.82 85.8025 1313.84 86.8913 1310.29 86.8893H1301.69V86.8923ZM1301.69 68.7849V82.178H1310.42C1311.38 82.2048 1312.33 82.0423 1313.22 81.7007C1314.11 81.3591 1314.91 80.846 1315.57 80.1943C1316.24 79.5849 1316.76 78.856 1317.12 78.0507C1317.48 77.2454 1317.67 76.3801 1317.67 75.5059C1317.67 74.6317 1317.48 73.7664 1317.12 72.9611C1316.76 72.1558 1316.24 71.4269 1315.57 70.8175C1314.92 70.152 1314.12 69.6264 1313.23 69.2754C1312.34 68.9245 1311.38 68.7562 1310.42 68.7818H1301.69V68.7849Z" fill="#5F6368"/>
<path d="M1334.97 75.3207C1338.82 75.3207 1341.85 76.2942 1344.08 78.2411C1346.31 80.1881 1347.42 82.8576 1347.42 86.2495V102.428H1342.44V98.7854H1342.21C1340.06 101.785 1337.19 103.286 1333.61 103.286C1330.55 103.286 1328 102.428 1325.94 100.714C1324.95 99.9272 1324.17 98.9418 1323.63 97.8297C1323.1 96.7175 1322.83 95.5067 1322.86 94.2853C1322.86 91.569 1323.94 89.4087 1326.11 87.8046C1328.28 86.2005 1331.17 85.3964 1334.8 85.3923C1337.89 85.3923 1340.43 85.928 1342.44 86.9995V85.8729C1342.44 85.0403 1342.25 84.2169 1341.88 83.4624C1341.51 82.7078 1340.96 82.0411 1340.29 81.5106C1338.91 80.3347 1337.11 79.6931 1335.26 79.7136C1332.35 79.7136 1330.05 80.8749 1328.35 83.1974L1323.77 80.4636C1326.29 77.035 1330.02 75.3207 1334.97 75.3207ZM1328.23 94.3925C1328.23 95.0197 1328.38 95.6387 1328.68 96.1978C1328.98 96.757 1329.42 97.24 1329.96 97.6068C1331.11 98.4643 1332.54 98.9185 1334 98.8926C1336.2 98.8891 1338.31 98.0613 1339.86 96.5905C1341.59 95.0537 1342.45 93.2506 1342.45 91.1812C1340.83 89.9567 1338.56 89.3444 1335.66 89.3444C1333.54 89.3444 1331.78 89.8271 1330.37 90.7924C1328.94 91.772 1328.23 92.9629 1328.23 94.3925V94.3925Z" fill="#5F6368"/>
<path d="M1376.01 76.1779L1358.62 114H1353.25L1359.7 100.766L1348.27 76.1779H1353.93L1362.19 95.0354H1362.3L1370.34 76.1779H1376.01Z" fill="#5F6368"/>
<path d="M1280.65 83.5432C1280.65 82.0412 1280.51 80.5418 1280.25 79.0615H1258.29V87.5505H1270.86C1270.61 88.9063 1270.06 90.1987 1269.26 91.3499C1268.46 92.501 1267.43 93.4871 1266.21 94.2486V99.7589H1273.72C1278.11 95.9231 1280.65 90.2505 1280.65 83.5432Z" fill="#4285F4"/>
<path d="M1258.29 105.082C1264.57 105.082 1269.86 103.129 1273.72 99.7619L1266.21 94.2516C1264.12 95.5925 1261.43 96.3578 1258.29 96.3578C1252.21 96.3578 1247.06 92.4822 1245.21 87.2596H1237.48V92.9383C1239.42 96.5888 1242.39 99.6576 1246.06 101.802C1249.74 103.947 1253.97 105.082 1258.29 105.082V105.082Z" fill="#34A853"/>
<path d="M1245.21 87.2596C1244.24 84.523 1244.24 81.5594 1245.21 78.8227V73.144H1237.48C1235.85 76.215 1235 79.6043 1235 83.0412C1235 86.4781 1235.85 89.8674 1237.48 92.9383L1245.21 87.2596Z" fill="#FBBC04"/>
<path d="M1258.29 69.7252C1261.61 69.6739 1264.82 70.8615 1267.22 73.0314L1273.86 66.7405C1269.65 62.9937 1264.07 60.9367 1258.29 61.0006C1253.97 61.0008 1249.74 62.1365 1246.06 64.2809C1242.39 66.4254 1239.42 69.4942 1237.48 73.1447L1245.21 78.8234C1247.06 73.6008 1252.21 69.7252 1258.29 69.7252Z" fill="#EA4335"/>
</g>
<defs>
<clipPath id="clip0">
<rect width="168" height="65" fill="white" transform="translate(527 51)"/>
</clipPath>
<clipPath id="clip1">
<rect width="160" height="43" fill="white" transform="translate(752 61)"/>
</clipPath>
<clipPath id="clip2">
<rect width="141" height="53" fill="white" transform="translate(1235 61)"/>
</clipPath>
</defs>
</svg>
