<svg width="1524" height="656" viewBox="0 0 1524 656" fill="none" xmlns="http://www.w3.org/2000/svg">
<g clip-path="url(#clip0)">
<path d="M386.736 244.848H557.888V293.488H386.736V244.848ZM441.76 305.648H502.56V454H441.76V305.648ZM615.503 456.128C597.263 456.128 585.002 450.555 578.719 439.408C575.882 434.544 573.956 428.667 572.943 421.776C571.93 414.683 571.423 406.069 571.423 395.936V298.96H627.663V372.224C627.663 382.965 627.764 390.059 627.967 393.504C628.372 398.571 628.98 402.219 629.791 404.448C630.602 406.677 631.919 408.096 633.743 408.704C635.567 409.109 638.81 409.312 643.471 409.312H646.511V447.312C638.607 453.189 628.271 456.128 615.503 456.128ZM659.279 298.96H715.519V454H659.279V298.96ZM940.156 274.944C939.548 277.376 939.244 280.821 939.244 285.28V298.96H976.332V341.824H738.3V298.96H766.876V295.616C766.876 278.389 768.092 265.317 770.524 256.4C772.956 247.483 777.415 240.997 783.9 236.944C789.98 233.093 798.391 230.661 809.132 229.648C819.873 228.635 836.897 228.128 860.204 228.128V267.04C849.665 267.04 842.775 267.141 839.532 267.344C834.668 267.547 830.919 268.256 828.284 269.472C825.852 270.688 824.433 272.512 824.028 274.944C823.42 277.376 823.116 280.821 823.116 285.28V298.96H883.004V295.616C883.004 278.389 884.22 265.317 886.652 256.4C889.084 247.483 893.543 240.997 900.028 236.944C906.108 233.093 914.519 230.661 925.26 229.648C936.001 228.635 953.025 228.128 976.332 228.128V267.04C965.793 267.04 958.903 267.141 955.66 267.344C950.796 267.547 947.047 268.256 944.412 269.472C941.98 270.688 940.561 272.512 940.156 274.944ZM766.876 353.984H823.116V454H766.876V353.984ZM883.004 353.984H939.244V454H883.004V353.984Z" fill="white"/>
<path d="M986.162 298.96H1041.19L1077.97 454H1027.81L986.162 298.96ZM1070.37 367.36L1089.22 298.96H1134.51L1179.51 454H1129.95L1112.02 384.992H1108.98L1094.39 454H1091.04L1070.37 367.36ZM1167.95 367.968L1180.42 298.96H1234.83L1196.23 454H1192.88L1167.95 367.968ZM1256.33 228.128H1312.57V271.904H1256.33V228.128ZM1256.33 298.96H1312.57V454H1256.33V298.96ZM1435.03 380.736C1435.03 369.995 1434.93 362.901 1434.72 359.456C1434.32 353.781 1433.81 350.032 1433.2 348.208C1432.39 346.181 1430.97 344.965 1428.95 344.56C1426.92 343.952 1423.68 343.648 1419.22 343.648H1416.18V305.648C1424.08 299.771 1434.42 296.832 1447.19 296.832C1465.43 296.832 1477.69 302.405 1483.97 313.552C1486.81 318.416 1488.73 324.395 1489.75 331.488C1490.76 338.379 1491.27 346.891 1491.27 357.024V454H1435.03V380.736ZM1347.17 298.96H1403.41V454H1347.17V298.96Z" fill="#EDF200"/>
<path fill-rule="evenodd" clip-rule="evenodd" d="M178.465 294.066L177.997 291.509C170.391 293.831 162.779 294.502 155.12 294.086C146.385 293.617 137.672 291.723 128.968 289.229C124.71 288.002 120.992 286.709 117.464 285.456C109.524 282.674 102.529 280.243 92.8408 279.984C92.7458 279.983 92.6825 279.982 92.5875 279.98L57.5856 275.926L50.5037 287.589C70.5041 297.114 95.4233 303.94 119.452 306.816C142.122 309.521 163.893 308.764 179.843 303.458L178.465 294.066ZM348.765 332.485C380.653 332.969 406.03 363.943 405.458 401.683C404.885 439.424 378.581 469.614 346.693 469.131C314.804 468.647 289.427 437.673 290 399.933C290.345 377.146 300.056 357.125 314.716 344.939L298.555 305.708L266.147 414.678L252.562 414.472C252.555 414.922 252.548 415.372 252.479 415.783C251.226 423.186 249.204 429.153 246.412 433.61C243.296 438.585 239.289 441.749 234.359 443.061C228.349 444.657 211.613 441.216 200.688 438.989C197.783 438.383 195.288 437.895 193.677 437.608L157.632 431.326L157.463 431.998C156.547 436.033 153.182 438.643 149.645 437.915L127.291 433.228C124.816 437.689 121.903 441.768 118.649 445.43C107.854 457.562 93.0451 464.947 76.8632 464.702C60.6814 464.456 46.135 456.626 35.6813 444.172C25.2281 431.68 18.8994 414.565 19.1842 395.788C19.4689 377.012 26.3136 360.097 37.1407 347.928C47.9356 335.796 62.7444 328.41 78.9263 328.656C95.1081 328.901 109.655 336.732 120.108 349.186C130.561 361.677 136.89 378.792 136.605 397.569C136.574 399.668 136.447 401.728 136.258 403.749L155.7 410.454C159.04 411.592 161.07 415.559 160.503 419.524L195.158 425.56C196.959 425.887 199.485 426.375 202.454 426.983C212.558 429.048 228.062 432.207 232.164 431.144C234.581 430.506 236.57 428.887 238.16 426.362C239.978 423.465 241.338 419.4 242.271 414.241L159.779 412.99C136.232 311.494 73.7415 296.676 37.2188 332.334L17.3048 331.733C23.5174 314.733 37.6824 303.851 54.778 298.15C51.0329 296.557 47.4473 294.89 43.9901 293.113C43.7068 292.997 43.4557 292.843 43.2058 292.614C41.6734 291.316 41.3315 288.8 42.436 286.98L53.1238 269.373C53.807 268.184 55.0217 267.452 56.3184 267.584L93.2808 271.856C103.823 272.203 111.133 274.751 119.451 277.651C122.917 278.866 126.572 280.121 130.64 281.307C138.965 283.72 147.268 285.533 155.465 285.957C163.346 286.376 171.213 285.559 179.017 282.715C181.591 280.093 184.194 277.583 186.891 275.188C189.685 272.681 192.636 270.251 195.776 267.862C204.14 261.467 212.706 256.386 221.722 252.961C230.801 249.538 240.297 247.807 250.522 248.187C256.822 248.433 262.917 249.65 268.676 252.099C272.641 253.808 276.471 256.078 280.101 258.982C280.144 258.233 280.377 257.487 280.766 256.893L262.74 240.388L234.177 239.955C230.852 239.904 228.24 236.678 228.299 232.781C228.359 228.845 231.098 225.738 234.391 225.788L260.707 226.187L261.135 197.929L261.167 197.929L261.169 197.779C261.215 196.843 261.197 195.98 261.113 195.229C261.059 194.591 260.942 193.989 260.792 193.387C260.314 191.543 259.249 190.74 257.808 189.668C257.714 189.63 257.651 189.554 257.557 189.515C257.4 189.4 257.244 189.285 256.868 189.017L256.54 193.885C256.338 196.769 254.215 198.948 251.748 198.723C249.312 198.499 247.481 195.997 247.684 193.076L249.796 162.407C249.998 159.523 252.122 157.344 254.589 157.568C257.024 157.793 258.855 160.295 258.653 163.216L257.681 177.183L260.969 179.632L262.191 180.513C262.286 180.552 262.348 180.628 262.41 180.704C265.544 182.926 267.829 184.685 269.296 190.293C269.596 191.422 269.799 192.662 269.936 194.051C270.044 195.29 270.087 196.64 270.034 198.063L269.568 228.758L281.003 239.203L282.069 237.795L279.381 235.43C277.881 234.095 277.571 231.541 278.707 229.759C278.804 229.61 278.901 229.462 278.998 229.351L289.893 214.784C291.154 213.116 293.311 212.924 294.714 214.407L294.776 214.483L304.604 224.341C306.039 225.787 306.222 228.339 304.992 230.045L304.927 230.156L294.296 244.053C293.875 244.609 293.363 244.976 292.821 245.193L289.094 246.635L292.436 249.685L292.53 249.799L293.552 249.215C295.245 248.266 297.291 249.121 298.116 251.121L298.178 251.234L304.023 262.606C306.461 256.42 310.615 251.948 315.232 248.269C316.194 247.496 317.156 246.724 317.99 246.024C321.616 242.93 324.972 240.957 327.994 240.103C331.334 239.141 334.338 239.487 336.88 241.025C339.422 242.6 341.377 245.292 342.617 249.097C343.737 252.525 344.305 256.844 344.227 262.016L344.001 276.933C343.998 277.12 343.995 277.345 343.96 277.532C343.512 284.123 342.173 288.863 340.129 292.056C338.864 294.024 337.386 295.388 335.694 296.262C334.002 297.136 332.192 297.446 330.294 297.305C326.213 296.981 321.659 294.4 316.972 290.168L313.379 286.927L334.166 334.401C338.81 333.084 343.73 332.409 348.765 332.485ZM320.642 340.606C322.849 339.177 325.148 337.938 327.54 336.887L293.814 259.078C293.717 259.264 293.619 259.45 293.489 259.635C292.048 260.663 290.255 261.948 288.538 262.371L320.642 340.606ZM57.2935 376.648L71.5359 381.55C72.59 380.966 73.6735 380.533 74.8498 380.251L76.1456 353.28L75.9873 353.278L75.7017 353.311C75.4478 353.344 75.1945 353.341 74.9406 353.374L74.8456 353.373L74.8139 353.372C74.5283 353.405 74.2744 353.439 73.9889 353.472L73.7033 353.505C73.5127 353.54 73.3221 353.575 73.1638 353.572L72.846 353.642C72.6554 353.677 72.4649 353.712 72.306 353.747L72.0198 353.817C71.7976 353.851 71.5748 353.923 71.3525 353.957L71.1936 353.992C70.9075 354.063 70.653 354.134 70.3669 354.204L70.1124 354.276C69.9218 354.31 69.7307 354.382 69.5401 354.417L69.2218 354.525L68.6806 354.704L68.3944 354.774C68.1716 354.846 67.9488 354.918 67.7577 354.99L67.5988 355.025C67.3437 355.133 67.0893 355.204 66.8342 355.313L66.5475 355.421C66.3881 355.494 66.1969 355.566 66.0374 355.638L65.7185 355.783L65.2401 356.001L64.9211 356.146C64.7617 356.219 64.6022 356.291 64.4427 356.364L64.1554 356.509C63.9321 356.619 63.677 356.727 63.4531 356.874L63.1658 357.019L62.7185 357.275L62.3673 357.457L61.9839 357.676L61.6322 357.896L61.2499 358.04L60.9304 358.222L60.8987 358.222C60.6748 358.369 60.4831 358.478 60.2591 358.625L59.8751 358.881L59.5873 359.064C59.4595 359.137 59.3311 359.248 59.2027 359.358L58.9143 359.579L58.5298 359.873L58.2414 360.093L57.8251 360.387L57.729 360.461C57.4084 360.718 57.0877 360.976 56.7671 361.233L56.5748 361.38L56.1574 361.749L55.9323 361.97C55.804 362.081 55.6756 362.191 55.5467 362.339L55.3538 362.524C54.872 362.966 54.3896 363.446 53.9072 363.926L53.8111 364C53.6821 364.148 53.5215 364.295 53.3926 364.443L53.2314 364.628C53.1025 364.776 52.9735 364.924 52.8129 365.072L52.6517 365.257C52.5228 365.405 52.3939 365.553 52.2649 365.701L52.2004 365.775C51.7169 366.33 51.265 366.885 50.8449 367.441L50.7481 367.552C50.6186 367.738 50.4891 367.923 50.3279 368.108L50.2946 368.22C49.8099 368.85 49.3563 369.518 48.9022 370.223L57.2935 376.648ZM95.7985 389.903L114.704 396.412C114.696 390.677 113.735 385.151 112.005 380.14L95.7985 389.903ZM103.168 428.213L80.2451 423.405L79.6422 440.19L80.0228 440.158L80.1811 440.161C80.4667 440.127 80.72 440.131 81.0056 440.098L81.1961 440.063C81.4501 440.03 81.6723 439.996 81.9262 439.962L82.0529 439.964C82.3068 439.93 82.5607 439.897 82.8146 439.863L83.0685 439.829C83.3224 439.796 83.5769 439.725 83.8624 439.692L83.8941 439.692C84.148 439.658 84.4025 439.587 84.6569 439.516L84.8475 439.482C85.102 439.41 85.3559 439.377 85.6104 439.306L85.7376 439.27C85.9604 439.199 86.1826 439.164 86.4054 439.093L86.5966 439.021C86.8511 438.95 87.1055 438.879 87.3283 438.807L87.5195 438.735C87.7423 438.663 87.9968 438.592 88.2201 438.483L88.284 438.447L88.3157 438.447C88.5385 438.375 88.7935 438.267 89.0163 438.195L89.2714 438.087C89.4942 438.015 89.7176 437.906 89.9409 437.797L90.1321 437.725C90.3232 437.653 90.4827 437.58 90.6744 437.471L90.9294 437.362C91.1528 437.253 91.344 437.181 91.5673 437.072L91.8546 436.926L92.3014 436.708L92.557 436.562C92.7487 436.453 92.9404 436.343 93.1321 436.233L93.4833 436.051L93.8667 435.832C94.0267 435.722 94.1862 435.65 94.3462 435.54L94.698 435.32L95.0497 435.1C95.2098 434.99 95.3692 434.918 95.5293 434.808C95.6571 434.735 95.7855 434.624 95.9449 434.552L96.265 434.332L96.6173 434.075C96.7774 433.964 96.9374 433.854 97.0974 433.744L97.482 433.45L97.7059 433.304C97.9304 433.12 98.1544 432.973 98.3472 432.789L98.4756 432.678L98.8607 432.347L99.0208 432.237C99.2775 432.016 99.502 431.832 99.7588 431.611L99.8555 431.5C99.9838 431.389 100.113 431.241 100.273 431.131L100.337 431.095C100.593 430.873 100.851 430.615 101.108 430.394L101.268 430.246C101.686 429.84 102.072 429.434 102.459 429.027C102.684 428.768 102.91 428.509 103.168 428.213ZM73.4566 421.99L51.734 417.425L46.9695 420.389L47.0001 420.464C47.0928 420.615 47.1855 420.767 47.2777 420.956L47.4626 421.296L47.7408 421.75L47.9256 422.09C48.0184 422.241 48.1111 422.393 48.2038 422.544L48.3893 422.847L48.6675 423.301L48.8846 423.604C48.9773 423.755 49.07 423.907 49.1944 424.059C49.2877 424.173 49.3494 424.286 49.4421 424.437C49.5354 424.551 49.597 424.665 49.6897 424.816C49.8447 425.043 50.0313 425.271 50.1862 425.498L50.4966 425.915L50.7454 426.219C50.8387 426.333 50.932 426.447 51.0247 426.598L51.304 426.977L51.5845 427.281L51.8955 427.661L52.1754 428.003L52.4553 428.344L52.7668 428.686L53.0473 428.99L53.3594 429.295L53.7026 429.638C53.7959 429.751 53.8898 429.828 53.9831 429.942C54.1702 430.132 54.3891 430.323 54.5762 430.513L54.8261 430.742C54.9511 430.856 55.0761 430.97 55.2321 431.123L55.5442 431.427L55.8564 431.732L56.2002 432.037L56.544 432.342L56.8877 432.647L57.2321 432.915L57.5765 433.183C57.7014 433.297 57.827 433.374 57.9519 433.488L58.2652 433.718C58.4218 433.833 58.5784 433.948 58.7351 434.062L58.9856 434.254C59.2366 434.407 59.4554 434.598 59.7065 434.752L59.9576 434.906C60.1142 435.02 60.2708 435.135 60.4597 435.213L60.7735 435.405L61.2129 435.674L61.5267 435.867L61.9661 436.136L62.3116 436.328C62.4688 436.406 62.5943 436.483 62.7515 436.56L63.0659 436.715C63.2231 436.792 63.412 436.87 63.5686 436.985L63.8513 437.139C64.0713 437.255 64.3229 437.371 64.5434 437.449L64.6379 437.488L64.6695 437.489C64.9212 437.605 65.1728 437.721 65.4561 437.838L65.7077 437.954C65.8966 438.032 66.0538 438.109 66.2427 438.187L66.526 438.304C66.7148 438.382 66.9043 438.422 67.0615 438.5L67.3448 438.616L67.8492 438.774L68.1958 438.892C68.3852 438.932 68.5741 439.01 68.7319 439.05L69.0157 439.129C69.2052 439.169 69.394 439.247 69.6151 439.288L69.899 439.367C70.1512 439.446 70.3723 439.487 70.6251 439.528L70.7195 439.567C71.0034 439.646 71.2878 439.688 71.5406 439.73L71.8878 439.81C72.0455 439.85 72.235 439.89 72.3933 439.893L72.7411 439.935L73.4566 421.99ZM51.3368 383.043L43.1379 382.731L35.8567 382.471L32.3768 396.813L44.9116 407.799L75.7276 414.265L80.5585 415.275L102.566 419.882L108.312 421.094L130.919 425.823L150.337 429.903C151.348 427.969 153.049 420.235 153.805 418.448L153.839 418.298L129.166 409.827L114.073 404.65L65.2948 387.903L54.3926 384.139L51.3368 383.043ZM319.579 256.095C315.443 259.406 310.602 263.231 309.649 267.602C309.207 269.62 309.096 270.668 309.341 271.196C309.616 271.875 310.616 272.79 312.147 274.163L321.709 282.742C325.209 285.869 328.379 287.792 330.815 288.016C331.479 288.064 332.05 287.997 332.529 287.742C332.976 287.524 333.394 287.081 333.783 286.487C334.919 284.705 335.726 281.606 336.019 276.924L336.02 276.887L336.246 261.97C336.307 257.96 335.942 254.843 335.216 252.62C334.701 251.038 333.989 249.978 333.173 249.478C332.357 248.978 331.217 248.924 329.786 249.314C327.75 249.883 325.321 251.346 322.561 253.703C321.631 254.476 320.637 255.248 319.579 256.095ZM279.623 277.981L279.417 268.568C275.359 264.608 270.969 261.73 266.31 259.785C261.18 257.608 255.812 256.515 250.241 256.318C240.839 255.95 232.073 257.542 223.726 260.714C215.316 263.885 207.293 268.674 199.442 274.703C196.59 276.872 193.767 279.228 190.973 281.735C188.725 283.725 186.573 285.754 184.513 287.859L185.145 292.143L187.048 302.443L265.45 303.969C265.545 303.971 265.672 303.972 265.767 303.974C267.854 304.23 269.661 304.108 271.22 303.644C272.621 303.178 273.836 302.409 274.834 301.375C279.983 295.98 279.809 286.605 279.648 278.431L279.623 277.981ZM108.852 372.969C103.181 362.612 93.8524 355.31 82.9823 353.609L81.7186 380.542C84.2717 381.368 86.5279 382.977 88.3005 385.141L88.4249 385.292L108.852 372.969ZM53.7654 429.676C53.8587 429.79 53.9525 429.866 54.0458 429.98L53.7654 429.676ZM346.273 383.992L347.575 356.646C336.075 356.772 325.781 363.063 318.948 372.894L339.143 388.42C341.077 386.2 343.539 384.663 346.273 383.992ZM354.375 357.274L353.111 384.245C355.632 385.071 357.92 386.68 359.693 388.844L359.817 388.996L379.381 377.184C373.931 366.905 364.953 359.459 354.375 357.274ZM382.47 384.428L363.226 396.057C363.613 397.675 363.84 399.403 363.814 401.164C363.79 402.738 363.609 404.235 363.239 405.654L381.398 419.612C383.636 414.061 384.934 407.857 385.033 401.336C385.123 395.377 384.228 389.666 382.47 384.428ZM377.871 426.606L359.838 412.725C359.676 412.947 359.483 413.132 359.321 413.354C357.323 415.648 354.828 417.26 352.03 417.93L351.054 444.718C362.031 443.535 371.701 436.672 377.871 426.606ZM344.212 444.727L345.193 417.639C342.671 416.813 340.415 415.205 338.643 413.041C338.394 412.7 338.114 412.396 337.897 412.055L316.633 425.303C322.646 436.078 332.637 443.539 344.212 444.727ZM313.384 418.168L334.872 404.774C334.639 403.458 334.501 402.107 334.522 400.72C334.551 398.771 334.865 396.902 335.366 395.185L315.078 379.583C312.197 385.724 310.539 392.709 310.425 400.205C310.361 406.577 311.408 412.665 313.384 418.168ZM355.148 394.06C353.686 392.276 351.613 391.158 349.301 391.123C346.989 391.088 344.914 392.143 343.367 393.919C342.98 394.363 342.624 394.845 342.332 395.366C342.299 395.44 342.266 395.515 342.201 395.589C342.169 395.663 342.104 395.737 342.071 395.811C341.321 397.262 340.883 398.98 340.856 400.779C340.814 403.515 341.696 405.965 343.188 407.787C344.65 409.571 346.723 410.727 349.035 410.762C351.315 410.796 353.421 409.741 354.969 407.965C355.42 407.447 355.808 406.891 356.134 406.296C356.234 405.96 356.366 405.625 356.529 405.29C356.595 405.141 356.692 405.03 356.757 404.919C357.218 403.726 357.46 402.418 357.481 401.031C357.522 398.332 356.64 395.882 355.148 394.06Z" fill="#FFFEFE"/>
<g clip-path="url(#clip1)">
<path d="M190.05 391.252C189.094 391.143 188.251 391.013 187.521 390.862C186.792 390.712 185.966 390.497 185.046 390.218L185.887 386.144C184.663 385.758 183.451 385.309 182.253 384.796L179.522 388.148C178.09 387.454 176.657 386.627 175.225 385.667L177.969 382.252C176.971 381.559 176.02 380.765 175.118 379.871L171.008 382.008C169.88 380.89 168.905 379.693 168.081 378.417L172.192 376.279C171.533 375.258 171.009 374.243 170.62 373.233L165.678 373.871C165.107 372.426 164.714 371.04 164.499 369.712L169.441 369.074C169.339 367.99 169.315 366.924 169.369 365.873L164.365 364.839C164.418 364.054 164.507 363.364 164.629 362.77C164.752 362.175 164.944 361.507 165.206 360.765L170.21 361.799C170.577 360.813 171.022 359.843 171.545 358.889L167.248 356.408C167.98 355.232 168.895 354.093 169.992 352.992L174.276 355.537C175.033 354.764 175.912 354.061 176.913 353.427L174 349.772C175.261 348.926 176.631 348.214 178.11 347.634L181.036 351.225C182.21 350.804 183.397 350.452 184.597 350.169L183.418 346.009C185.122 345.654 186.769 345.441 188.36 345.371L189.526 349.594C190.838 349.556 192.133 349.602 193.41 349.733L194.252 345.659C195.207 345.768 196.05 345.898 196.78 346.049C197.51 346.199 198.335 346.414 199.256 346.693L198.414 350.767C199.639 351.153 200.846 351.623 202.035 352.179L204.779 348.763C206.212 349.458 207.64 350.306 209.063 351.308L206.333 354.66C207.322 355.395 208.272 356.189 209.183 357.041L213.293 354.903C214.421 356.021 215.397 357.218 216.22 358.494L212.096 360.696C212.764 361.674 213.292 362.668 213.681 363.678L218.701 363.056C219.22 364.49 219.583 365.893 219.789 367.263L214.86 367.838C215.015 368.931 215.039 369.998 214.933 371.038L219.936 372.072C219.883 372.858 219.795 373.547 219.672 374.141C219.549 374.736 219.357 375.404 219.095 376.146L214.091 375.112C213.776 376.109 213.331 377.079 212.756 378.022L217.04 380.567C216.317 381.701 215.433 382.823 214.388 383.935L210.025 381.374C209.216 382.136 208.332 382.861 207.375 383.548L210.302 387.139C209.04 387.985 207.67 388.698 206.192 389.277L203.265 385.686C202.082 386.149 200.895 386.501 199.704 386.742L200.87 390.965C199.175 391.279 197.532 391.47 195.941 391.54L194.763 387.38C193.459 387.377 192.169 387.309 190.891 387.178L190.05 391.252ZM204.66 371.04C205.239 368.239 204.509 365.588 202.472 363.088C200.434 360.587 197.695 358.981 194.255 358.271C190.815 357.56 187.664 357.949 184.802 359.437C181.94 360.926 180.22 363.07 179.641 365.871C179.062 368.672 179.792 371.323 181.83 373.823C183.867 376.324 186.606 377.93 190.046 378.64C193.487 379.351 196.638 378.962 199.5 377.474C202.361 375.986 204.082 373.841 204.66 371.04ZM224.351 360.174L222.085 358.91C221.799 358.718 221.606 358.468 221.506 358.16C221.407 357.851 221.462 357.586 221.671 357.364L224.219 354.107C223.117 353.127 222.254 352.042 221.631 350.851L216.858 351.458C216.467 351.51 216.128 351.44 215.842 351.248C215.555 351.056 215.36 350.817 215.257 350.53L214.648 348.346C214.544 348.059 214.599 347.794 214.812 347.551C215.026 347.307 215.302 347.154 215.641 347.091L220.413 346.484C220.397 345.773 220.446 345.142 220.56 344.59C220.665 344.081 220.866 343.503 221.163 342.856L217.022 340.407C216.727 340.258 216.529 340.029 216.43 339.721C216.33 339.413 216.39 339.126 216.607 338.862L218.018 337.162C218.184 336.886 218.447 336.731 218.808 336.695C219.169 336.658 219.523 336.721 219.87 336.881L223.933 339.313C225.029 338.478 226.278 337.829 227.678 337.366L226.551 333.349C226.499 333.073 226.567 332.811 226.754 332.562C226.941 332.313 227.205 332.157 227.544 332.094L230.125 331.831C230.516 331.779 230.87 331.841 231.187 332.018C231.504 332.194 231.684 332.441 231.727 332.76L232.867 336.712C233.727 336.757 234.496 336.849 235.174 336.989C235.799 337.119 236.542 337.338 237.402 337.649L239.95 334.392C240.159 334.17 240.43 334.038 240.765 333.996C241.1 333.955 241.441 334.014 241.788 334.174L244.041 335.503C244.327 335.695 244.522 335.934 244.626 336.221C244.73 336.508 244.673 336.784 244.455 337.049L241.907 340.305C243.018 341.243 243.885 342.307 244.509 343.498L249.268 342.954C249.659 342.902 250 342.962 250.291 343.133C250.582 343.303 250.774 343.553 250.869 343.883L251.478 346.066C251.582 346.353 251.527 346.618 251.314 346.862C251.1 347.105 250.824 347.258 250.485 347.321L245.726 347.864C245.742 348.576 245.693 349.207 245.579 349.759C245.465 350.311 245.26 350.91 244.963 351.556L249.117 353.941C249.456 354.144 249.662 354.397 249.735 354.699C249.809 355.002 249.741 355.265 249.532 355.487L248.108 357.25C247.942 357.526 247.679 357.682 247.318 357.718C246.957 357.754 246.634 357.676 246.347 357.484L242.193 355.099C241.097 355.935 239.849 356.584 238.449 357.047L239.589 360.999C239.631 361.318 239.559 361.602 239.372 361.851C239.185 362.099 238.926 362.234 238.596 362.254L236.001 362.581C235.61 362.633 235.256 362.571 234.939 362.395C234.622 362.219 234.442 361.971 234.399 361.653L233.272 357.637C232.412 357.592 231.643 357.499 230.965 357.359C230.288 357.219 229.545 357 228.737 356.7L226.19 359.957C225.972 360.222 225.696 360.375 225.361 360.416C225.026 360.458 224.69 360.377 224.351 360.174ZM240.569 348.757C240.915 347.081 240.484 345.487 239.274 343.976C238.064 342.465 236.417 341.494 234.332 341.063C232.247 340.633 230.35 340.871 228.641 341.779C226.931 342.687 225.904 343.979 225.557 345.655C225.211 347.332 225.645 348.915 226.859 350.405C228.073 351.894 229.722 352.855 231.807 353.285C233.892 353.716 235.787 353.488 237.492 352.601C239.197 351.715 240.223 350.433 240.569 348.757Z" fill="#FFFBFB"/>
</g>
<path d="M879.548 524.016C880.508 523.968 881.3 523.944 881.924 523.944C884.084 523.944 886.064 524.088 887.864 524.376C888.776 524.472 889.652 524.616 890.492 524.808V529.956C889.484 529.86 888.728 529.776 888.224 529.704C887.816 529.68 887.156 529.62 886.244 529.524C885.332 529.476 884.732 529.452 884.444 529.452C882.98 529.452 881.9 529.488 881.204 529.56C880.532 529.608 879.98 529.752 879.548 529.992V524.016ZM881.924 549.288C879.524 549.288 877.604 549.108 876.164 548.748C874.748 548.388 873.644 547.752 872.852 546.84C872.06 545.928 871.496 544.668 871.16 543.06C870.848 541.452 870.692 539.304 870.692 536.616C870.692 534.336 870.8 532.464 871.016 531C871.232 529.536 871.604 528.336 872.132 527.4C872.684 526.44 873.428 525.708 874.364 525.204C875.3 524.7 876.524 524.352 878.036 524.16V536.616C878.036 538.32 878.084 539.628 878.18 540.54C878.276 541.428 878.456 542.112 878.72 542.592C879.008 543.096 879.416 543.444 879.944 543.636C880.496 543.828 881.276 543.924 882.284 543.924V549.288H881.924ZM883.796 539.496H881.24V534.276H890.6V548.388C889.472 548.652 888.068 548.856 886.388 549C885.572 549.12 884.708 549.192 883.796 549.216V539.496ZM902.414 538.02H904.934C904.934 536.676 904.802 535.812 904.538 535.428C904.394 535.212 904.202 535.08 903.962 535.032C903.722 534.96 903.374 534.924 902.918 534.924H902.414V530.352H902.918C904.982 530.352 906.566 530.52 907.67 530.856C908.798 531.192 909.626 531.744 910.154 532.512C910.634 533.184 910.922 534.048 911.018 535.104C911.138 536.16 911.198 537.744 911.198 539.856V541.296H902.414V538.02ZM903.638 549.288C901.43 549.288 899.69 549.108 898.418 548.748C897.17 548.364 896.234 547.764 895.61 546.948C895.058 546.228 894.698 545.34 894.53 544.284C894.362 543.204 894.278 541.728 894.278 539.856C894.278 538.128 894.338 536.76 894.458 535.752C894.578 534.72 894.83 533.844 895.214 533.124C895.646 532.332 896.306 531.72 897.194 531.288C898.106 530.832 899.342 530.544 900.902 530.424V541.296C900.902 542.112 900.938 542.7 901.01 543.06C901.082 543.396 901.25 543.648 901.514 543.816C901.802 544.008 902.246 544.116 902.846 544.14C903.614 544.188 904.43 544.212 905.294 544.212C906.83 544.212 907.946 544.176 908.642 544.104L910.478 543.96V548.604C909.518 548.892 908.198 549.084 906.518 549.18C905.702 549.252 904.742 549.288 903.638 549.288ZM913.277 530.64H916.661V525.312H923.321V530.64H927.353V535.716H913.277V530.64ZM916.661 537.156H923.321V549H916.661V537.156ZM939.396 522.252H946.056V527.436H939.396V522.252ZM939.396 530.64H946.056V549H939.396V530.64ZM948.75 530.64H952.134V525.312H958.794V530.64H962.826V535.716H948.75V530.64ZM952.134 537.156H958.794V549H952.134V537.156ZM984.912 522.252H991.572V549H984.912V522.252ZM979.728 549.252C978.768 549.252 977.94 549.096 977.244 548.784C976.572 548.472 976.032 547.968 975.624 547.272C975.168 546.552 974.832 545.592 974.616 544.392C974.424 543.192 974.328 541.692 974.328 539.892C974.328 536.364 974.76 533.892 975.624 532.476C976.44 531.084 977.808 530.388 979.728 530.388C980.592 530.388 981.3 530.46 981.852 530.604C982.404 530.724 982.92 530.976 983.4 531.36V535.932H983.004C982.476 535.932 982.092 535.968 981.852 536.04C981.636 536.088 981.468 536.22 981.348 536.436C981.228 536.7 981.156 537.084 981.132 537.588C981.108 537.948 981.096 538.692 981.096 539.82C981.096 540.948 981.108 541.692 981.132 542.052C981.156 542.556 981.228 542.94 981.348 543.204C981.468 543.444 981.66 543.588 981.924 543.636C982.26 543.684 982.62 543.708 983.004 543.708H983.4V548.28C982.92 548.64 982.38 548.892 981.78 549.036C981.204 549.18 980.52 549.252 979.728 549.252ZM1005.94 539.856C1005.94 538.632 1005.93 537.816 1005.9 537.408C1005.88 536.832 1005.81 536.4 1005.69 536.112C1005.57 535.8 1005.38 535.608 1005.11 535.536C1004.82 535.464 1004.43 535.428 1003.92 535.428H1003.42V530.352H1003.92C1006.01 530.352 1007.64 530.52 1008.82 530.856C1010 531.168 1010.87 531.696 1011.45 532.44C1011.98 533.112 1012.31 534.012 1012.46 535.14C1012.62 536.244 1012.71 537.816 1012.71 539.856C1012.71 541.752 1012.65 543.228 1012.53 544.284C1012.43 545.316 1012.18 546.168 1011.77 546.84C1011.32 547.584 1010.63 548.148 1009.72 548.532C1008.81 548.892 1007.55 549.12 1005.94 549.216V539.856ZM1003.92 549.288C1001.84 549.288 1000.2 549.132 999.029 548.82C997.853 548.508 996.977 547.98 996.401 547.236C995.873 546.564 995.525 545.676 995.357 544.572C995.213 543.468 995.141 541.896 995.141 539.856C995.141 537.984 995.201 536.52 995.321 535.464C995.441 534.408 995.705 533.532 996.113 532.836C996.545 532.068 997.217 531.504 998.129 531.144C999.041 530.76 1000.3 530.52 1001.91 530.424V539.856C1001.91 541.08 1001.92 541.884 1001.94 542.268C1001.97 542.844 1002.04 543.276 1002.16 543.564C1002.28 543.852 1002.48 544.032 1002.77 544.104C1003.01 544.176 1003.4 544.212 1003.92 544.212H1004.43V549.288H1003.92ZM1026.69 540.324C1026.69 539.052 1026.67 538.212 1026.65 537.804C1026.6 537.132 1026.54 536.688 1026.47 536.472C1026.37 536.232 1026.21 536.088 1025.97 536.04C1025.73 535.968 1025.34 535.932 1024.81 535.932H1024.45V531.432C1025.39 530.736 1026.61 530.388 1028.13 530.388C1030.29 530.388 1031.74 531.048 1032.48 532.368C1032.82 532.944 1033.05 533.652 1033.17 534.492C1033.29 535.308 1033.35 536.316 1033.35 537.516V549H1026.69V540.324ZM1016.28 530.64H1022.94V549H1016.28V530.64ZM1045.04 538.02H1047.56C1047.56 536.676 1047.43 535.812 1047.17 535.428C1047.02 535.212 1046.83 535.08 1046.59 535.032C1046.35 534.96 1046 534.924 1045.55 534.924H1045.04V530.352H1045.55C1047.61 530.352 1049.19 530.52 1050.3 530.856C1051.43 531.192 1052.25 531.744 1052.78 532.512C1053.26 533.184 1053.55 534.048 1053.65 535.104C1053.77 536.16 1053.83 537.744 1053.83 539.856V541.296H1045.04V538.02ZM1046.27 549.288C1044.06 549.288 1042.32 549.108 1041.05 548.748C1039.8 548.364 1038.86 547.764 1038.24 546.948C1037.69 546.228 1037.33 545.34 1037.16 544.284C1036.99 543.204 1036.91 541.728 1036.91 539.856C1036.91 538.128 1036.97 536.76 1037.09 535.752C1037.21 534.72 1037.46 533.844 1037.84 533.124C1038.27 532.332 1038.93 531.72 1039.82 531.288C1040.73 530.832 1041.97 530.544 1043.53 530.424V541.296C1043.53 542.112 1043.57 542.7 1043.64 543.06C1043.71 543.396 1043.88 543.648 1044.14 543.816C1044.43 544.008 1044.87 544.116 1045.47 544.14C1046.24 544.188 1047.06 544.212 1047.92 544.212C1049.46 544.212 1050.57 544.176 1051.27 544.104L1053.11 543.96V548.604C1052.15 548.892 1050.83 549.084 1049.15 549.18C1048.33 549.252 1047.37 549.288 1046.27 549.288ZM1065.43 530.64H1068.82V530.244C1068.82 528.204 1068.96 526.656 1069.25 525.6C1069.54 524.544 1070.07 523.776 1070.83 523.296C1071.55 522.84 1072.55 522.552 1073.82 522.432C1075.09 522.312 1077.11 522.252 1079.87 522.252V526.86C1078.62 526.86 1077.81 526.872 1077.42 526.896C1076.85 526.92 1076.4 527.004 1076.09 527.148C1075.8 527.292 1075.63 527.508 1075.59 527.796C1075.51 528.084 1075.48 528.492 1075.48 529.02V530.64H1079.87V535.716H1065.43V530.64ZM1068.82 537.156H1075.48V549H1068.82V537.156ZM1092.64 539.856C1092.64 538.632 1092.62 537.816 1092.6 537.408C1092.58 536.832 1092.5 536.4 1092.38 536.112C1092.26 535.8 1092.07 535.608 1091.81 535.536C1091.52 535.464 1091.12 535.428 1090.62 535.428H1090.12V530.352H1090.62C1092.71 530.352 1094.34 530.52 1095.52 530.856C1096.69 531.168 1097.57 531.696 1098.14 532.44C1098.67 533.112 1099.01 534.012 1099.15 535.14C1099.32 536.244 1099.4 537.816 1099.4 539.856C1099.4 541.752 1099.34 543.228 1099.22 544.284C1099.13 545.316 1098.88 546.168 1098.47 546.84C1098.01 547.584 1097.33 548.148 1096.42 548.532C1095.5 548.892 1094.24 549.12 1092.64 549.216V539.856ZM1090.62 549.288C1088.53 549.288 1086.9 549.132 1085.72 548.82C1084.55 548.508 1083.67 547.98 1083.1 547.236C1082.57 546.564 1082.22 545.676 1082.05 544.572C1081.91 543.468 1081.84 541.896 1081.84 539.856C1081.84 537.984 1081.9 536.52 1082.02 535.464C1082.14 534.408 1082.4 533.532 1082.81 532.836C1083.24 532.068 1083.91 531.504 1084.82 531.144C1085.74 530.76 1087 530.52 1088.6 530.424V539.856C1088.6 541.08 1088.62 541.884 1088.64 542.268C1088.66 542.844 1088.74 543.276 1088.86 543.564C1088.98 543.852 1089.18 544.032 1089.47 544.104C1089.71 544.176 1090.09 544.212 1090.62 544.212H1091.12V549.288H1090.62ZM1111.15 531.684C1111.65 531.204 1112.24 530.868 1112.91 530.676C1113.61 530.46 1114.46 530.352 1115.47 530.352V536.364C1114.39 536.364 1113.5 536.436 1112.81 536.58C1112.13 536.724 1111.58 536.976 1111.15 537.336V531.684ZM1102.98 530.64H1109.64V549H1102.98V530.64ZM1132.84 548.892C1130.68 548.892 1129.23 548.232 1128.49 546.912C1128.15 546.336 1127.92 545.64 1127.8 544.824C1127.68 543.984 1127.62 542.964 1127.62 541.764V530.64H1134.28V538.956C1134.28 540.228 1134.29 541.068 1134.32 541.476C1134.37 542.1 1134.44 542.532 1134.53 542.772C1134.63 543.036 1134.79 543.204 1135 543.276C1135.22 543.324 1135.6 543.348 1136.15 543.348H1136.51V547.812C1135.55 548.532 1134.33 548.892 1132.84 548.892ZM1135.33 556.416C1134.08 556.416 1132.61 556.344 1130.93 556.2L1128.85 555.984V551.34H1133.67C1134.53 551.34 1135.37 551.316 1136.19 551.268C1136.77 551.22 1137.19 551.1 1137.45 550.908C1137.74 550.74 1137.91 550.44 1137.95 550.008C1138 549.432 1138.03 548.82 1138.03 548.172V530.64H1144.69V546.984C1144.69 548.904 1144.6 550.392 1144.43 551.448C1144.29 552.504 1143.94 553.38 1143.39 554.076C1142.77 554.868 1141.82 555.456 1140.55 555.84C1139.27 556.224 1137.53 556.416 1135.33 556.416ZM1159.05 539.856C1159.05 538.632 1159.03 537.816 1159.01 537.408C1158.99 536.832 1158.91 536.4 1158.79 536.112C1158.67 535.8 1158.48 535.608 1158.22 535.536C1157.93 535.464 1157.53 535.428 1157.03 535.428H1156.53V530.352H1157.03C1159.12 530.352 1160.75 530.52 1161.93 530.856C1163.1 531.168 1163.98 531.696 1164.55 532.44C1165.08 533.112 1165.42 534.012 1165.56 535.14C1165.73 536.244 1165.81 537.816 1165.81 539.856C1165.81 541.752 1165.75 543.228 1165.63 544.284C1165.54 545.316 1165.29 546.168 1164.88 546.84C1164.42 547.584 1163.74 548.148 1162.83 548.532C1161.91 548.892 1160.65 549.12 1159.05 549.216V539.856ZM1157.03 549.288C1154.94 549.288 1153.31 549.132 1152.13 548.82C1150.96 548.508 1150.08 547.98 1149.51 547.236C1148.98 546.564 1148.63 545.676 1148.46 544.572C1148.32 543.468 1148.25 541.896 1148.25 539.856C1148.25 537.984 1148.31 536.52 1148.43 535.464C1148.55 534.408 1148.81 533.532 1149.22 532.836C1149.65 532.068 1150.32 531.504 1151.23 531.144C1152.15 530.76 1153.41 530.52 1155.01 530.424V539.856C1155.01 541.08 1155.03 541.884 1155.05 542.268C1155.07 542.844 1155.15 543.276 1155.27 543.564C1155.39 543.852 1155.59 544.032 1155.88 544.104C1156.12 544.176 1156.5 544.212 1157.03 544.212H1157.53V549.288H1157.03ZM1174.54 549.252C1172.38 549.252 1170.92 548.592 1170.18 547.272C1169.84 546.696 1169.62 546 1169.5 545.184C1169.38 544.344 1169.32 543.324 1169.32 542.124V530.64H1175.98V539.316C1175.98 540.588 1175.99 541.428 1176.01 541.836C1176.06 542.436 1176.13 542.868 1176.23 543.132C1176.32 543.396 1176.48 543.564 1176.7 543.636C1176.91 543.684 1177.3 543.708 1177.85 543.708H1178.21V548.208C1177.27 548.904 1176.05 549.252 1174.54 549.252ZM1179.72 530.64H1186.38V549H1179.72V530.64ZM1198.65 531.684C1199.16 531.204 1199.75 530.868 1200.42 530.676C1201.11 530.46 1201.97 530.352 1202.97 530.352V536.364C1201.89 536.364 1201.01 536.436 1200.31 536.58C1199.64 536.724 1199.09 536.976 1198.65 537.336V531.684ZM1190.48 530.64H1197.14V549H1190.48V530.64ZM1225.53 540.324C1225.53 539.052 1225.52 538.212 1225.49 537.804C1225.45 537.132 1225.39 536.688 1225.31 536.472C1225.22 536.232 1225.05 536.088 1224.81 536.04C1224.57 535.968 1224.19 535.932 1223.66 535.932H1223.3V531.432C1224.23 530.736 1225.46 530.388 1226.97 530.388C1229.13 530.388 1230.58 531.048 1231.33 532.368C1231.66 532.944 1231.89 533.652 1232.01 534.492C1232.13 535.308 1232.19 536.316 1232.19 537.516V549H1225.53V540.324ZM1215.13 530.64H1221.79V549H1215.13V530.64ZM1243.89 538.02H1246.41C1246.41 536.676 1246.27 535.812 1246.01 535.428C1245.87 535.212 1245.67 535.08 1245.43 535.032C1245.19 534.96 1244.85 534.924 1244.39 534.924H1243.89V530.352H1244.39C1246.45 530.352 1248.04 530.52 1249.14 530.856C1250.27 531.192 1251.1 531.744 1251.63 532.512C1252.11 533.184 1252.39 534.048 1252.49 535.104C1252.61 536.16 1252.67 537.744 1252.67 539.856V541.296H1243.89V538.02ZM1245.11 549.288C1242.9 549.288 1241.16 549.108 1239.89 548.748C1238.64 548.364 1237.71 547.764 1237.08 546.948C1236.53 546.228 1236.17 545.34 1236 544.284C1235.83 543.204 1235.75 541.728 1235.75 539.856C1235.75 538.128 1235.81 536.76 1235.93 535.752C1236.05 534.72 1236.3 533.844 1236.69 533.124C1237.12 532.332 1237.78 531.72 1238.67 531.288C1239.58 530.832 1240.81 530.544 1242.37 530.424V541.296C1242.37 542.112 1242.41 542.7 1242.48 543.06C1242.55 543.396 1242.72 543.648 1242.99 543.816C1243.27 544.008 1243.72 544.116 1244.32 544.14C1245.09 544.188 1245.9 544.212 1246.77 544.212C1248.3 544.212 1249.42 544.176 1250.11 544.104L1251.95 543.96V548.604C1250.99 548.892 1249.67 549.084 1247.99 549.18C1247.17 549.252 1246.21 549.288 1245.11 549.288ZM1254.39 530.64H1261.67L1274.05 549H1266.78L1254.39 530.64ZM1265.45 533.52L1266.96 530.64H1273.8L1268.87 538.596L1265.45 533.52ZM1259.33 540.684L1262.75 545.76L1261.02 549H1254.18L1259.33 540.684ZM1274.96 530.64H1278.35V525.312H1285.01V530.64H1289.04V535.716H1274.96V530.64ZM1278.35 537.156H1285.01V549H1278.35V537.156ZM1309.26 531.684C1309.76 531.204 1310.35 530.868 1311.02 530.676C1311.72 530.46 1312.57 530.352 1313.58 530.352V536.364C1312.5 536.364 1311.61 536.436 1310.91 536.58C1310.24 536.724 1309.69 536.976 1309.26 537.336V531.684ZM1301.08 530.64H1307.74V549H1301.08V530.64ZM1316.38 522.252H1323.04V527.436H1316.38V522.252ZM1316.38 530.64H1323.04V549H1316.38V530.64ZM1337.18 522.252H1343.84V549H1337.18V522.252ZM1331.99 549.252C1331.03 549.252 1330.21 549.096 1329.51 548.784C1328.84 548.472 1328.3 547.968 1327.89 547.272C1327.43 546.552 1327.1 545.592 1326.88 544.392C1326.69 543.192 1326.59 541.692 1326.59 539.892C1326.59 536.364 1327.03 533.892 1327.89 532.476C1328.71 531.084 1330.07 530.388 1331.99 530.388C1332.86 530.388 1333.57 530.46 1334.12 530.604C1334.67 530.724 1335.19 530.976 1335.67 531.36V535.932H1335.27C1334.74 535.932 1334.36 535.968 1334.12 536.04C1333.9 536.088 1333.73 536.22 1333.61 536.436C1333.49 536.7 1333.42 537.084 1333.4 537.588C1333.37 537.948 1333.36 538.692 1333.36 539.82C1333.36 540.948 1333.37 541.692 1333.4 542.052C1333.42 542.556 1333.49 542.94 1333.61 543.204C1333.73 543.444 1333.93 543.588 1334.19 543.636C1334.53 543.684 1334.89 543.708 1335.27 543.708H1335.67V548.28C1335.19 548.64 1334.65 548.892 1334.05 549.036C1333.47 549.18 1332.79 549.252 1331.99 549.252ZM1355.54 538.02H1358.06C1358.06 536.676 1357.93 535.812 1357.67 535.428C1357.52 535.212 1357.33 535.08 1357.09 535.032C1356.85 534.96 1356.5 534.924 1356.05 534.924H1355.54V530.352H1356.05C1358.11 530.352 1359.69 530.52 1360.8 530.856C1361.93 531.192 1362.75 531.744 1363.28 532.512C1363.76 533.184 1364.05 534.048 1364.15 535.104C1364.27 536.16 1364.33 537.744 1364.33 539.856V541.296H1355.54V538.02ZM1356.77 549.288C1354.56 549.288 1352.82 549.108 1351.55 548.748C1350.3 548.364 1349.36 547.764 1348.74 546.948C1348.19 546.228 1347.83 545.34 1347.66 544.284C1347.49 543.204 1347.41 541.728 1347.41 539.856C1347.41 538.128 1347.47 536.76 1347.59 535.752C1347.71 534.72 1347.96 533.844 1348.34 533.124C1348.77 532.332 1349.43 531.72 1350.32 531.288C1351.23 530.832 1352.47 530.544 1354.03 530.424V541.296C1354.03 542.112 1354.07 542.7 1354.14 543.06C1354.21 543.396 1354.38 543.648 1354.64 543.816C1354.93 544.008 1355.37 544.116 1355.97 544.14C1356.74 544.188 1357.56 544.212 1358.42 544.212C1359.96 544.212 1361.07 544.176 1361.77 544.104L1363.61 543.96V548.604C1362.65 548.892 1361.33 549.084 1359.65 549.18C1358.83 549.252 1357.87 549.288 1356.77 549.288ZM1368.24 543.132H1375.51V549H1368.24V543.132ZM1380.12 543.132H1387.39V549H1380.12V543.132Z" fill="white"/>
</g>
<defs>
<clipPath id="clip0">
<rect width="1524" height="656" fill="white"/>
</clipPath>
<clipPath id="clip1">
<rect width="86" height="66" fill="white" transform="translate(160 328)"/>
</clipPath>
</defs>
</svg>
