<svg width="23876" height="6896" viewBox="0 0 23876 6896" fill="none" xmlns="http://www.w3.org/2000/svg">
<path d="M5660.56 3322.23C5607.37 3251.95 5584.89 3163.74 5600.94 3074.91L5632.92 2897.84L5497.38 2772.46C5495.32 2770.56 5493.48 2768.52 5491.48 2766.58C4454.26 3587.74 4336.29 4904.02 4347.6 5550.21C4348 5573.78 4367.06 5593.24 4391.78 5595.42C4416.47 5597.59 4438.95 5581.79 4443.96 5558.7C4730.06 4236.3 5271.15 3611.27 5660.56 3322.23Z" fill="#FDF7F7"/>
<path d="M3626.49 2439.18L3313.5 2505.67L3193.78 2788.07C3191.6 2793.2 3189.15 2798.17 3186.73 2803.15C3675.22 3459.03 3929.66 4798.1 4031.37 5472.63C4033.76 5488.46 4048.62 5499.82 4065.4 5498.76C4082.19 5497.67 4095.29 5484.49 4095.44 5468.52C4107.8 4013.62 3873.3 3042.88 3636.61 2436.7C3633.22 2437.5 3629.9 2438.46 3626.49 2439.18Z" fill="#FDF7F7"/>
<path d="M5767.1 4794.91L5722.73 4737.01C5686.85 4690.16 5665.45 4636.81 5658.59 4582C5317.14 4668.41 4803.55 4889.53 4639.45 5448.84C4630.59 5479.05 4646.03 5510.9 4675.95 5524.19C4705.86 5537.48 4741.56 5528.32 4760.32 5502.53C4939.36 5256.06 5261.25 4930.6 5741.27 4864.52C5741.54 4863.82 5741.73 4863.09 5742.01 4862.37L5767.1 4794.91Z" fill="#FDF7F7"/>
<path d="M3325.6 4230.12C3294.38 4271.55 3252.85 4306.39 3202.89 4331.05L3135.99 4364.07L3126.72 4435.1C3123.93 4456.49 3118.9 4477.18 3112.08 4497.11C3398.75 4804.42 3610.01 5226.56 3737.67 5529.65C3746.22 5549.95 3769.59 5560.84 3791.79 5554.92C3813.95 5548.97 3827.88 5528.14 3824.04 5506.56C3710.98 4873.1 3513.28 4476.39 3325.6 4230.12Z" fill="#FDF7F7"/>
<path d="M5966.55 2794.97L5906.96 3124.73C5904.6 3137.84 5910.25 3151.1 5921.63 3158.92C5928.03 3163.34 5935.62 3165.6 5943.28 3165.6C5949.15 3165.6 5955.02 3164.27 5960.4 3161.58L6272.45 3005.88L6584.5 3161.58C6589.89 3164.27 6595.76 3165.6 6601.63 3165.6C6609.29 3165.6 6616.88 3163.34 6623.31 3158.92C6634.65 3151.1 6640.34 3137.84 6637.94 3124.73L6578.36 2794.97L6830.79 2561.42C6840.84 2552.13 6844.47 2538.23 6840.13 2525.57C6835.8 2512.92 6824.27 2503.69 6810.37 2501.78L6461.52 2453.67L6305.48 2153.65C6299.26 2141.71 6286.47 2134.16 6272.45 2134.16C6258.43 2134.16 6245.61 2141.71 6239.4 2153.65L6083.39 2453.67L5734.5 2501.78C5720.64 2503.69 5709.11 2512.92 5704.77 2525.57C5700.44 2538.23 5704.03 2552.13 5714.09 2561.42L5966.55 2794.97Z" fill="#FDF7F7"/>
<path d="M3558.69 2151.62C3572.38 2148.72 3583.14 2138.68 3586.46 2125.75C3589.75 2112.81 3585.04 2099.23 3574.28 2090.68L3203.09 1795.93L3248.5 1338.64C3249.82 1325.39 3243.08 1312.57 3231.16 1305.59C3225.23 1302.13 3218.52 1300.39 3211.83 1300.39C3205.03 1300.39 3198.25 1302.17 3192.27 1305.72L2782.18 1549.68L2337.93 1367.4C2333.23 1365.47 2328.26 1364.53 2323.32 1364.53C2314.74 1364.53 2306.25 1367.37 2299.46 1372.84C2288.76 1381.45 2284.17 1395.08 2287.59 1407.99L2405.34 1853.51L2085.37 2198.14C2076.11 2208.13 2073.61 2222.24 2078.95 2234.54C2084.29 2246.86 2096.52 2255.23 2110.51 2256.13L2593.36 2287.53L2839.85 2682.82C2846.51 2693.5 2858.61 2699.98 2871.55 2699.98C2872.49 2699.98 2873.42 2699.95 2874.36 2699.88C2888.35 2698.88 2900.51 2690.42 2905.76 2678.07L3086.42 2251.96L3558.69 2151.62Z" fill="#FDF7F7"/>
<path d="M6768.58 4656.49C6766.59 4643.34 6756.84 4632.4 6743.5 4628.29L6516.52 4558.38L6448.54 4341.28C6444.54 4328.53 6433.26 4319.03 6419.45 4316.8C6417.36 4316.44 6415.3 4316.3 6413.21 4316.3C6401.56 4316.3 6390.43 4321.55 6383.42 4330.7L6243.21 4513.99L6004.65 4508.27C6004.34 4508.27 6004.03 4508.24 6003.72 4508.24C5990.07 4508.24 5977.5 4515.45 5971.13 4526.95C5964.61 4538.73 5965.69 4553.02 5973.93 4563.77L6114.26 4746.95L6034.81 4960.53C6030.13 4973.07 6033.36 4987.03 6043.17 4996.58C6050.21 5003.42 6059.77 5007.13 6069.55 5007.13C6073.36 5007.13 6077.21 5006.57 6080.96 5005.4L6307.9 4935.35L6497.37 5073.05C6503.91 5077.82 6511.82 5080.25 6519.75 5080.25C6525.31 5080.25 6530.88 5079.08 6536.08 5076.65C6548.65 5070.76 6556.61 5058.62 6556.58 5045.3L6556.52 4818.82L6753.06 4690.36C6764.59 4682.79 6770.61 4669.67 6768.58 4656.49Z" fill="#FDF7F7"/>
<path d="M3059.62 4069.63C3072.06 4063.49 3079.76 4051.18 3079.46 4037.86C3079.17 4024.57 3070.94 4012.56 3058.23 4006.92L2842.04 3910.99L2802.75 3687.61C2800.43 3674.49 2790.48 3663.77 2777.05 3659.91C2773.54 3658.91 2769.96 3658.41 2766.42 3658.41C2756.37 3658.41 2746.56 3662.31 2739.5 3669.52L2576.58 3835L2340.57 3801.44C2338.74 3801.19 2336.92 3801.05 2335.1 3801.05C2323.15 3801.05 2311.8 3806.57 2304.86 3816.07C2296.85 3827.01 2296.09 3841.31 2302.88 3852.95L2418.37 4051.15L2311.8 4253.79C2305.55 4265.71 2306.94 4279.95 2315.42 4290.56C2322.47 4299.38 2333.37 4304.38 2344.76 4304.38C2347.09 4304.38 2349.44 4304.18 2351.76 4303.73L2586.07 4260.77L2756.22 4419.54C2763.22 4426.1 2772.55 4429.59 2782.07 4429.59C2786.13 4429.59 2790.22 4428.95 2794.18 4427.64C2807.42 4423.26 2816.89 4412.12 2818.61 4398.94L2847.94 4174.16L3059.62 4069.63Z" fill="#FDF7F7"/>
<path d="M4625.74 2174.07L4597.08 2107.87L4523.38 2092.74C4468.34 2081.44 4418.63 2058.22 4377.03 2026.05C4258.25 2325.89 4175.08 2789.66 4262.55 3487.23C4267.26 3524.78 4324.94 3524.33 4328.72 3486.7C4361.04 3163.12 4444.39 2639.9 4657.16 2230.35C4644.99 2212.81 4634.38 2194.05 4625.74 2174.07Z" fill="#FDF7F7"/>
<path d="M4730.83 1372.01L4754.9 1597.33L4573 1743.9C4562.3 1752.53 4557.69 1766.14 4561.11 1779.06C4564.49 1791.97 4575.34 1801.93 4589.05 1804.74L4822.3 1852.63L4912.94 2062.13C4918.29 2074.44 4930.53 2082.81 4944.49 2083.73C4945.35 2083.79 4946.21 2083.81 4947.04 2083.81C4960.08 2083.81 4972.25 2077.24 4978.87 2066.44L5098.93 1870.72L5336.91 1853.63C5350.9 1852.63 5363.08 1844.17 5368.31 1831.82C5373.53 1819.48 5370.95 1805.37 5361.6 1795.46L5202.55 1626.61L5258.97 1406.54C5262.29 1393.61 5257.56 1380.01 5246.79 1371.46C5240.06 1366.1 5231.64 1363.3 5223.15 1363.3C5218.11 1363.3 5213.06 1364.27 5208.3 1366.28L4989.93 1457.64L4786.82 1338.72C4780.89 1335.25 4774.18 1333.52 4767.48 1333.52C4760.68 1333.52 4753.89 1335.31 4747.92 1338.86C4736.03 1345.91 4729.42 1358.76 4730.83 1372.01Z" fill="#FDF7F7"/>
<path d="M8454.84 2210.74C8525.41 2211.55 8596.01 2231.13 8666.59 2269.46C8737.19 2307.79 8801.61 2371.41 8859.88 2460.31C8918.12 2548.39 8964.92 2668.69 9000.2 2821.21C9035.5 2973.72 9053.15 3164.99 9053.15 3394.96C9053.15 3617.63 9038.59 3815.42 9009.44 3988.32C8980.88 4160.41 8939.42 4305.59 8885.08 4423.85C8831.29 4542.12 8765.76 4631.81 8688.44 4692.97C8611.69 4754.17 8524.86 4784.73 8427.94 4784.73C8331.56 4784.73 8245.59 4757.01 8169.95 4701.57C8094.86 4645.27 8033.26 4567.37 7985.06 4467.87C7937.46 4367.56 7906.92 4251.36 7893.47 4119.23H8098.51C8117 4234.21 8153.69 4329.22 8208.59 4404.28C8264.08 4478.49 8337.19 4515.61 8427.94 4515.61C8560.71 4515.61 8665.48 4431.19 8742.23 4262.34C8819.54 4093.53 8858.18 3854.97 8858.18 3546.66H8844.74C8813.36 3615.2 8776.11 3674.33 8732.99 3724.06C8689.84 3773.83 8641.95 3812.13 8589.28 3839.05C8536.63 3865.96 8480.59 3879.45 8421.21 3879.45C8322.6 3879.45 8232.14 3843.95 8149.79 3772.98C8068 3701.24 8002.44 3602.96 7953.13 3478.17C7904.41 3352.56 7880.02 3209.01 7880.02 3047.53C7880.02 2894.2 7903.55 2753.92 7950.63 2626.69C7998.23 2498.64 8064.91 2396.69 8150.63 2320.84C8236.91 2244.99 8338.3 2208.29 8454.84 2210.74ZM8454.84 2479.88C8384.23 2479.88 8320.65 2505.57 8264.08 2556.96C8208.04 2607.52 8163.52 2676.03 8130.45 2762.48C8097.96 2848.12 8081.73 2943.14 8081.73 3047.53C8081.73 3151.94 8097.4 3246.94 8128.77 3332.58C8160.71 3417.41 8204.11 3485.1 8259.04 3535.68C8314.5 3585.41 8377.53 3610.29 8448.1 3610.29C8501.33 3610.29 8550.91 3595.22 8596.85 3565.02C8642.79 3534.02 8682.85 3492.03 8717.01 3439.01C8751.75 3385.19 8778.92 3324.44 8798.52 3256.75C8818.12 3188.21 8827.95 3116.86 8827.95 3042.64C8827.95 2944.77 8811.69 2853.02 8779.2 2767.38C8747.27 2681.74 8703 2612.42 8646.43 2559.4C8590.39 2506.39 8526.53 2479.88 8454.84 2479.88ZM9585.28 3620.06V4750.49H9386.98V2244.99H9585.28V3164.99H9602.1C9632.36 3067.92 9677.74 2990.85 9738.24 2933.76C9799.29 2875.85 9880.53 2846.9 9981.95 2846.9C10069.9 2846.9 10146.9 2872.59 10213 2923.97C10279.1 2974.54 10330.4 3052.43 10366.8 3157.65C10403.8 3262.02 10422.3 3394.96 10422.3 3556.47V4750.49H10224V3576.05C10224 3426.77 10197.3 3311.39 10144.1 3229.8C10091.5 3147.44 10018.4 3106.25 9924.79 3106.25C9859.82 3106.25 9801.55 3126.24 9750.01 3166.21C9699.01 3206.17 9658.7 3264.49 9628.99 3341.13C9599.87 3417.82 9585.28 3510.79 9585.28 3620.06ZM10785.1 4750.49V2871.37H10983.4V4750.49H10785.1ZM10885.9 2558.18C10847.3 2558.18 10814 2539.01 10785.9 2500.68C10758.5 2462.35 10744.8 2416.27 10744.8 2362.44C10744.8 2308.61 10758.5 2262.53 10785.9 2224.2C10814 2185.86 10847.3 2166.7 10885.9 2166.7C10924.6 2166.7 10957.7 2185.86 10985.1 2224.2C11013.1 2262.53 11027.1 2308.61 11027.1 2362.44C11027.1 2416.27 11013.1 2462.35 10985.1 2500.68C10957.7 2539.01 10924.6 2558.18 10885.9 2558.18ZM11545 2244.99V4750.49H11346.7V2244.99H11545ZM12106.5 2244.99V4750.49H11908.2V2244.99H12106.5ZM13384.1 3292.21L13205.9 3365.61C13194.7 3322.37 13178.2 3280.38 13156.3 3239.61C13135 3198.02 13105.9 3163.73 13068.9 3136.82C13032 3109.93 12984.6 3096.47 12926.9 3096.47C12847.9 3096.47 12782.1 3122.97 12729.4 3175.97C12677.3 3228.18 12651.3 3294.65 12651.3 3375.38C12651.3 3447.16 12669.2 3503.86 12705.1 3545.45C12740.9 3587.03 12796.9 3621.72 12873.1 3649.45L13064.7 3717.94C13180.1 3758.72 13266.1 3821.13 13322.7 3905.11C13379.3 3988.32 13407.6 4095.56 13407.6 4226.88C13407.6 4334.53 13386.3 4430.78 13343.7 4515.61C13301.7 4600.4 13242.9 4667.28 13167.3 4716.24C13091.6 4765.16 13003.7 4789.64 12903.4 4789.64C12771.7 4789.64 12662.8 4748.05 12576.5 4664.85C12490.2 4581.68 12435.6 4460.13 12412.6 4300.28L12600.9 4231.78C12618.8 4332.9 12652.7 4408.74 12702.5 4459.32C12753 4509.9 12818.8 4535.19 12900 4535.19C12992.5 4535.19 13065.9 4506.62 13120.2 4449.55C13175.1 4391.63 13202.5 4322.29 13202.5 4241.55C13202.5 4176.3 13186.9 4121.66 13155.5 4077.61C13124.1 4032.78 13076 3999.34 13011 3977.29L12795.8 3903.89C12677.6 3863.12 12590.8 3799.93 12535.3 3714.29C12480.4 3627.84 12453 3519.75 12453 3390.09C12453 3284.07 12473.4 3190.24 12514.3 3108.7C12555.8 3027.14 12612.1 2963.12 12683.2 2916.63C12754.9 2870.14 12836.2 2846.9 12926.9 2846.9C13054.7 2846.9 13154.9 2887.68 13227.8 2969.23C13301.2 3050.79 13353.2 3158.47 13384.1 3292.21ZM14912.9 4789.64C14788.5 4789.64 14681.2 4749.68 14591 4669.75C14501.4 4589.01 14432.2 4476.46 14383.4 4332.09C14335.3 4186.92 14311.2 4018.07 14311.2 3825.59C14311.2 3633.11 14335.3 3463.49 14383.4 3316.69C14432.2 3169.04 14500 3054.06 14586.8 2971.68C14674.2 2888.49 14776.2 2846.9 14892.7 2846.9C14959.9 2846.9 15026.3 2863.21 15091.9 2895.83C15157.4 2928.46 15217.1 2981.47 15270.8 3054.87C15324.6 3127.46 15367.5 3223.72 15399.4 3343.61C15431.4 3463.49 15447.3 3611.11 15447.3 3786.44V3908.8H14452.3V3659.21H15245.6C15245.6 3553.19 15231.1 3458.59 15201.9 3375.38C15173.4 3292.21 15132.5 3226.56 15079.2 3178.45C15026.6 3130.3 14964.4 3106.25 14892.7 3106.25C14813.7 3106.25 14745.4 3134.8 14687.6 3191.9C14630.5 3248.16 14586.5 3321.56 14555.7 3412.1C14524.9 3502.65 14509.5 3599.68 14509.5 3703.27V3869.65C14509.5 4011.54 14526.3 4131.88 14559.9 4230.57C14594.1 4328.41 14641.4 4403.06 14701.9 4454.41C14762.5 4505 14832.8 4530.29 14912.9 4530.29C14965 4530.29 15012 4519.67 15054.1 4498.47C15096.6 4476.46 15133.3 4443.84 15164.1 4400.59C15195 4356.57 15218.8 4301.9 15235.6 4236.65L15427.2 4314.95C15407 4409.59 15373.1 4492.76 15325.5 4564.53C15277.9 4635.5 15219 4690.95 15149 4730.91C15079 4770.06 15000.3 4789.64 14912.9 4789.64ZM16765.2 2871.37L16287.9 4750.49H16086.2L15608.9 2871.37H15824L16180.3 4368.77H16193.8L16550.1 2871.37H16765.2ZM17521.9 4789.64C17397.5 4789.64 17290.3 4749.68 17200.1 4669.75C17110.4 4589.01 17041.2 4476.46 16992.5 4332.09C16944.3 4186.92 16920.2 4018.07 16920.2 3825.59C16920.2 3633.11 16944.3 3463.49 16992.5 3316.69C17041.2 3169.04 17109 3054.06 17195.9 2971.68C17283.3 2888.49 17385.2 2846.9 17501.8 2846.9C17569 2846.9 17635.4 2863.21 17700.9 2895.83C17766.5 2928.46 17826.1 2981.47 17879.9 3054.87C17933.7 3127.46 17976.5 3223.72 18008.5 3343.61C18040.4 3463.49 18056.4 3611.11 18056.4 3786.44V3908.8H17061.4V3659.21H17854.7C17854.7 3553.19 17840.1 3458.59 17811 3375.38C17782.4 3292.21 17741.5 3226.56 17688.3 3178.45C17635.6 3130.3 17573.5 3106.25 17501.8 3106.25C17422.8 3106.25 17354.4 3134.8 17296.7 3191.9C17239.6 3248.16 17195.6 3321.56 17164.8 3412.1C17134 3502.65 17118.6 3599.68 17118.6 3703.27V3869.65C17118.6 4011.54 17135.4 4131.88 17169 4230.57C17203.1 4328.41 17250.5 4403.06 17311 4454.41C17371.5 4505 17441.8 4530.29 17521.9 4530.29C17574 4530.29 17621.1 4519.67 17663.1 4498.47C17705.7 4476.46 17742.4 4443.84 17773.2 4400.59C17804 4356.57 17827.8 4301.9 17844.6 4236.65L18036.2 4314.95C18016 4409.59 17982.2 4492.76 17934.5 4564.53C17886.9 4635.5 17828.1 4690.95 17758 4730.91C17688 4770.06 17609.3 4789.64 17521.9 4789.64ZM18556.4 3620.06V4750.49H18358.1V2871.37H18549.7V3164.99H18566.5C18596.7 3069.55 18642.7 2992.89 18704.3 2934.98C18765.9 2876.26 18845.5 2846.9 18943 2846.9C19030.3 2846.9 19106.8 2873 19172.4 2925.19C19237.9 2976.57 19288.9 3054.87 19325.3 3160.09C19361.7 3264.49 19379.9 3396.62 19379.9 3556.47V4750.49H19181.6V3576.05C19181.6 3428.4 19155.3 3313.41 19102.6 3231.05C19049.9 3147.85 18977.7 3106.25 18885.8 3106.25C18822.5 3106.25 18765.9 3126.24 18716.1 3166.21C18666.7 3206.17 18627.8 3264.49 18599.2 3341.13C18570.7 3417.82 18556.4 3510.79 18556.4 3620.06ZM20303.7 2871.37V3116.04H19634.7V2871.37H20303.7ZM19829.7 2421.16H20028V4212.21C20028 4293.75 20036.1 4354.91 20052.4 4395.69C20069.2 4435.65 20090.5 4462.6 20116.3 4476.46C20142.6 4489.51 20170.3 4496.04 20199.5 4496.04C20221.3 4496.04 20239.2 4494.38 20253.2 4491.13C20267.2 4487.04 20278.5 4483.8 20286.9 4481.33L20327.2 4740.72C20313.7 4748.05 20295 4755.39 20270.9 4762.73C20246.8 4770.87 20216.3 4774.97 20179.3 4774.97C20123.3 4774.97 20068.4 4757.42 20014.6 4722.36C19961.4 4687.26 19917.1 4633.84 19881.8 4562.1C19847.1 4490.32 19829.7 4399.78 19829.7 4290.51V2421.16ZM21493.2 3292.21L21315 3365.61C21303.8 3322.37 21287.3 3280.38 21265.5 3239.61C21244.2 3198.02 21215 3163.73 21178 3136.82C21141.1 3109.93 21093.7 3096.47 21036 3096.47C20957 3096.47 20891.2 3122.97 20838.6 3175.97C20786.4 3228.18 20760.4 3294.65 20760.4 3375.38C20760.4 3447.16 20778.3 3503.86 20814.2 3545.45C20850 3587.03 20906.1 3621.72 20982.2 3649.45L21173.8 3717.94C21289.3 3758.72 21375.3 3821.13 21431.8 3905.11C21488.4 3988.32 21516.7 4095.56 21516.7 4226.88C21516.7 4334.53 21495.4 4430.78 21452.8 4515.61C21410.8 4600.4 21352 4667.28 21276.4 4716.24C21200.7 4765.16 21112.8 4789.64 21012.5 4789.64C20880.8 4789.64 20771.9 4748.05 20685.6 4664.85C20599.3 4581.68 20544.7 4460.13 20521.7 4300.28L20710 4231.78C20727.9 4332.9 20761.8 4408.74 20811.7 4459.32C20862.1 4509.9 20927.9 4535.19 21009.1 4535.19C21101.6 4535.19 21175 4506.62 21229.3 4449.55C21284.2 4391.63 21311.7 4322.29 21311.7 4241.55C21311.7 4176.3 21296 4121.66 21264.6 4077.61C21233.2 4032.78 21185.1 3999.34 21120.1 3977.29L20904.9 3903.89C20786.7 3863.12 20699.9 3799.93 20644.4 3714.29C20589.5 3627.84 20562.1 3519.75 20562.1 3390.09C20562.1 3284.07 20582.5 3190.24 20623.4 3108.7C20664.9 3027.14 20721.2 2963.12 20792.3 2916.63C20864 2870.14 20945.3 2846.9 21036 2846.9C21163.8 2846.9 21264 2887.68 21336.9 2969.23C21410.2 3050.79 21462.4 3158.47 21493.2 3292.21Z" fill="white"/>
</svg>
