<svg width="237" height="67" viewBox="0 0 237 67" fill="none" xmlns="http://www.w3.org/2000/svg">
<rect width="237" height="67" fill="black"/>
<g filter="url(#filter0_i_24_53)">
<path d="M37.2641 12.1833C36.5947 12.4689 36.516 13.2921 37.0869 13.8129C37.4413 14.1489 37.4806 14.4513 37.52 17.9457C37.5594 21.6249 37.5397 21.7089 37.1263 21.9441C36.6144 22.2465 36.5554 23.1537 37.0672 23.5233C37.6972 24.0105 38.2484 24.0441 38.9768 23.6577C39.8234 23.2041 39.8627 22.7673 39.0753 21.9777L38.4847 21.4065V17.9457V14.4849L39.0753 13.9977C39.8037 13.3929 39.8234 12.9729 39.1343 12.3681C38.5634 11.8473 38.0909 11.7969 37.2641 12.1833Z" fill="white"/>
<path d="M31.5352 13.5441C31.0824 13.9641 31.1218 14.8041 31.5942 15.1737C31.9683 15.4593 31.988 15.6945 31.988 19.2057C31.988 22.7169 31.9683 22.9521 31.5942 23.2377C31.3777 23.4057 31.2005 23.7417 31.2005 23.9937C31.2005 24.5145 31.9289 25.1697 32.4998 25.1697C33.0117 25.1529 33.7204 24.6489 33.7795 24.2457C33.8779 23.7081 33.5826 22.9857 33.2676 22.9857C33.0117 22.9857 32.9723 22.4313 32.9723 19.2057C32.9723 16.0137 33.0117 15.4257 33.2676 15.4257C33.4251 15.4257 33.7007 15.1569 33.8779 14.8209C34.2126 14.2329 34.2126 14.2329 33.6614 13.7289C32.992 13.1577 32.0274 13.0737 31.5352 13.5441Z" fill="white"/>
<path d="M42.7174 13.7289C42.1858 14.2161 42.1858 14.2497 42.4811 14.8041C42.6583 15.1233 42.9339 15.4761 43.1111 15.5937C43.3473 15.7617 43.4064 16.3665 43.4064 19.1385V22.4649L42.8158 23.0361C42.0874 23.7417 42.0874 23.9937 42.737 24.6489C43.4064 25.3377 44.1545 25.3545 44.7451 24.6657C45.2767 24.0441 45.2964 23.6913 44.7648 23.2209C44.3711 22.8681 44.3711 22.6833 44.3908 19.1889C44.4104 15.7785 44.4301 15.4929 44.7845 15.1737C45.001 14.9721 45.1782 14.5857 45.1782 14.3001C45.1782 13.2081 43.7017 12.8721 42.7174 13.7289Z" fill="white"/>
<path d="M26.2985 14.5017C26.0425 14.6193 25.7079 14.9553 25.5307 15.2577C25.2354 15.7617 25.2551 15.7953 25.8654 16.3161L26.4757 16.8705V20.3817L26.456 23.9097L25.9047 24.4641C25.3732 25.0017 25.3535 25.0353 25.6488 25.5897C25.826 25.9257 26.2 26.2449 26.515 26.3625C27.0269 26.5473 27.145 26.5137 27.6569 26.0937C28.3459 25.5225 28.405 24.9345 27.8537 24.3297C27.4994 23.9433 27.46 23.6241 27.46 20.3649C27.46 17.0385 27.4797 16.8033 27.8537 16.5177C28.4443 16.0641 28.3656 15.2577 27.6962 14.7033C27.086 14.1993 26.9875 14.1825 26.2985 14.5017Z" fill="white"/>
<path d="M48.6825 14.5353C48.21 14.7369 48.1313 14.8713 48.1313 15.4929C48.1313 15.9969 48.2494 16.2993 48.525 16.5177C48.8991 16.8033 48.9188 17.0385 48.9188 20.3817C48.9188 23.7249 48.8991 23.9601 48.525 24.2457C48.2691 24.4473 48.1313 24.7665 48.1313 25.1865C48.1313 25.6905 48.2494 25.8921 48.7022 26.1609C49.4109 26.5977 49.4109 26.5977 50.1197 26.1609C50.8284 25.7409 50.9071 24.8841 50.2969 24.4137C49.9228 24.1281 49.9031 23.8929 49.9031 20.4657C49.9031 17.0385 49.9228 16.8033 50.2969 16.5177C50.5725 16.2993 50.6906 15.9969 50.6906 15.4929C50.6906 14.8545 50.6118 14.7537 50.0606 14.5185C49.3519 14.2161 49.3913 14.2161 48.6825 14.5353Z" fill="white"/>
<path d="M52.9546 19.2729C52.738 19.3569 52.423 19.6089 52.2852 19.8441C52.049 20.2137 52.049 20.3649 52.3443 20.8689C52.5215 21.2049 52.8168 21.5241 52.994 21.6081C53.2105 21.7257 53.2696 21.8601 53.1514 22.0785C53.053 22.2633 53.0136 22.4649 53.0333 22.5321C53.053 22.5993 53.0727 26.1945 53.0924 30.4953C53.1121 36.9969 53.053 38.3577 52.8365 38.5089C52.679 38.6097 52.4427 38.8785 52.3049 39.0969C52.0884 39.4161 52.0884 39.5673 52.364 40.0545C52.6396 40.5753 52.7577 40.6257 53.5255 40.6257C54.2145 40.6257 54.4508 40.5417 54.7067 40.2057C55.1398 39.6513 55.1005 39.0297 54.6083 38.7609C54.2145 38.5257 54.2145 38.4249 54.2145 30.0585C54.2342 21.8097 54.2342 21.5745 54.628 21.2217C55.6517 20.2977 54.3524 18.7857 52.9546 19.2729Z" fill="white"/>
<path d="M21.6917 19.5921C21.2389 20.0121 21.2783 20.8521 21.7508 21.2217C22.1248 21.5241 22.1445 21.7425 22.1445 29.9745C22.1445 35.1489 22.0658 38.4585 21.9476 38.5257C21.8492 38.5761 21.5933 38.8449 21.357 39.1137L20.9436 39.6009L21.7508 40.2897L22.5579 40.9785L23.1485 40.6089C23.4635 40.4241 23.877 40.0713 24.0541 39.8529C24.3494 39.4497 24.3494 39.4161 23.7392 38.8953L23.1289 38.3409V29.9409V21.5409L23.7195 21.0537C24.4479 20.4657 24.4479 20.3145 23.7588 19.7433C23.1092 19.2057 22.1642 19.1385 21.6917 19.5921Z" fill="white"/>
<path d="M17.9512 24.7665C17.8725 24.8337 17.8134 25.7241 17.8134 26.7321C17.8134 28.4625 17.7937 28.5969 17.3015 29.0841C16.7109 29.6721 16.77 30.3609 17.4197 30.9657C17.7347 31.2513 17.8134 31.6041 17.8528 33.2337L17.9118 35.1657H18.5024H19.0931L19.1521 33.2169C19.1915 31.5201 19.2505 31.2177 19.5852 30.9657C20.0971 30.5625 20.0971 29.6553 19.5852 29.0337C19.2702 28.6641 19.1915 28.2441 19.1521 26.6649C19.0931 24.7497 19.0931 24.7497 18.6009 24.6993C18.3253 24.6657 18.03 24.6993 17.9512 24.7665Z" fill="white"/>
<path d="M57.3251 24.7665C57.2464 24.8337 57.1873 25.7241 57.1873 26.7321C57.1873 28.4457 57.1479 28.5969 56.6951 29.0673C56.1242 29.6553 56.1636 30.3609 56.8132 30.9657C57.1085 31.2513 57.1873 31.6377 57.2267 33.2337L57.2857 35.1657H57.8763H58.4669L58.526 33.2505C58.5654 31.6545 58.6441 31.2681 58.9591 30.9153C59.4513 30.3945 59.4513 29.8737 58.9591 29.1345C58.6638 28.6641 58.5654 28.1601 58.526 26.6481C58.4669 24.7497 58.4669 24.7497 57.9748 24.6993C57.6992 24.6657 57.4038 24.6993 57.3251 24.7665Z" fill="white"/>
<path d="M26.2984 28.5129C25.9638 29.0337 26.0425 29.9577 26.4363 30.2601C26.7119 30.4785 27.1647 30.5457 28.1884 30.5457C29.3105 30.5457 29.6255 30.6129 29.9208 30.8817C30.413 31.3521 31.7911 31.3521 32.2833 30.8817C32.5786 30.5961 32.8542 30.5457 33.6417 30.5793C34.5079 30.6297 34.6457 30.6801 34.7442 31.0497C34.8229 31.3521 35.0001 31.4865 35.3938 31.5201C35.6891 31.5537 35.9451 31.5201 35.9451 31.4361C36.2994 29.7393 35.9451 29.3697 34.0157 29.3697C32.8148 29.3697 32.5195 29.3193 32.2439 29.0337C32.0077 28.7985 31.6533 28.6977 31.0824 28.6977C30.5311 28.6977 30.1768 28.7985 29.9208 29.0337C29.4484 29.4873 27.6962 29.5209 27.5387 29.0673C27.2237 28.2105 26.6528 27.9417 26.2984 28.5129Z" fill="white"/>
<path d="M48.9779 28.3953C48.8597 28.5129 48.7416 28.7649 48.6826 28.9497C48.6235 29.2353 48.4463 29.3025 47.5604 29.3361C46.6745 29.3865 46.4579 29.3361 46.2217 29.0505C45.8476 28.5801 44.5877 28.5633 44.0955 29.0337C43.8002 29.3193 43.4852 29.3697 42.2252 29.3697C41.3196 29.3697 40.6306 29.4537 40.4928 29.5713C40.0991 29.9073 40.1975 31.3521 40.6109 31.5369C41.1031 31.7553 41.6346 31.4529 41.6346 30.9657C41.6346 30.5793 41.6937 30.5457 42.678 30.5457C43.4852 30.5457 43.8199 30.6297 44.0955 30.8817C44.5877 31.3353 45.8476 31.3353 46.2217 30.8817C46.4382 30.6129 46.7532 30.5457 48.1313 30.5121C49.7457 30.4617 49.8047 30.4449 49.9819 30.0081C50.3756 29.0505 49.5685 27.7569 48.9779 28.3953Z" fill="white"/>
<path d="M26.4757 33.6873C25.4322 34.0233 25.2157 34.7961 25.9835 35.4177L26.4757 35.8041V41.9194C26.4757 47.1442 26.4363 48.0346 26.1804 48.1186C26.0229 48.169 25.7669 48.4546 25.5897 48.7402C25.3141 49.2274 25.3141 49.2778 25.8063 49.8154C26.1804 50.2522 26.4363 50.3698 26.9481 50.3698C28.09 50.3698 28.6806 49.0762 27.8537 48.4378C27.4797 48.1522 27.46 47.917 27.46 41.9698C27.46 36.0225 27.4797 35.7873 27.8537 35.5017C28.4247 35.0649 28.3656 34.3425 27.7356 33.9225C27.2041 33.5697 26.9875 33.5193 26.4757 33.6873Z" fill="white"/>
<path d="M48.6629 33.8553C47.9935 34.1409 47.9147 35.0313 48.525 35.5017C48.8991 35.7873 48.9188 36.0225 48.9188 41.8521V47.8834L48.4069 48.4042C47.8557 48.9586 47.8754 49.513 48.466 50.0674C48.8794 50.4706 49.9425 50.4538 50.3559 50.0674C50.8284 49.6138 50.789 48.5722 50.2969 48.3202C49.9228 48.1186 49.9031 47.917 49.9031 41.9529C49.9031 36.0225 49.9228 35.7873 50.2969 35.5017C51.419 34.6449 50.0212 33.2337 48.6629 33.8553Z" fill="white"/>
<path d="M31.7517 36.3081C31.1021 36.7617 31.0233 37.4169 31.5942 37.8537C31.9486 38.1393 31.988 38.3745 31.988 40.7434C31.988 43.0786 31.9486 43.3306 31.6533 43.2802C31.4761 43.2466 31.1414 42.9274 30.8855 42.5578C30.5312 42.0034 30.3343 41.869 29.7634 41.8354C28.6609 41.7514 28.0506 42.1882 28.0506 43.0618C28.0506 44.053 28.5034 44.3722 29.9209 44.3386C30.6296 44.3386 31.1808 44.4226 31.4958 44.5906C31.988 44.8594 31.988 44.8762 31.988 47.6818C31.988 50.269 31.9486 50.5042 31.5942 50.7898C31.358 50.9746 31.2005 51.3106 31.2005 51.6298C31.2005 52.7722 32.7361 53.125 33.6614 52.201C33.937 51.9154 34.1142 51.5794 34.0551 51.4786C33.9961 51.3778 33.8976 51.1594 33.8386 51.0082C33.7795 50.8402 33.5433 50.6722 33.3464 50.6218C32.992 50.521 32.9723 50.3194 32.9723 47.917C32.9723 46.489 33.0511 45.3298 33.1298 45.3298C33.3464 45.3298 37.0672 46.9426 37.3822 47.161C37.5397 47.2786 37.5988 48.1522 37.5594 50.0506C37.5003 52.5202 37.461 52.8226 37.1066 53.1418C36.6144 53.5954 36.5947 54.4354 37.0672 54.7882C37.4413 55.0738 38.6225 55.1746 38.9769 54.9394C39.095 54.8722 39.2918 54.637 39.4297 54.4354C39.6462 54.0994 39.6462 53.9482 39.3903 53.4778C39.2131 53.1754 38.9375 52.8898 38.78 52.8226C38.5437 52.7554 38.4847 52.285 38.4847 50.0674C38.4847 48.1186 38.5437 47.3458 38.7406 47.2114C39.2918 46.825 42.9339 45.3298 43.1505 45.397C43.3277 45.4642 43.3867 46.153 43.3867 47.7826L43.4064 50.0674L42.8158 50.6722C42.4811 51.0082 42.2252 51.4114 42.2252 51.5458C42.2252 51.9994 43.2686 52.7218 43.938 52.7218C45.0207 52.7218 45.572 51.5122 44.8042 50.8066C44.4695 50.5042 44.4104 50.101 44.3514 47.6986C44.253 45.1114 44.2726 44.9434 44.6467 44.641C45.0995 44.2882 45.7885 44.221 46.3201 44.5066C46.7729 44.7586 47.6194 44.3218 48.0328 43.633C48.2888 43.2466 48.2888 43.1122 48.0525 42.7258C47.7179 42.1714 47.1666 41.8186 46.6351 41.8018C46.1035 41.8018 45.257 42.3562 44.942 42.9274C44.3711 43.9186 44.253 43.549 44.2136 40.9114C44.1939 38.3577 44.1939 38.341 44.6861 37.9377C45.2964 37.4505 45.316 36.9297 44.7451 36.4761C43.9773 35.8545 43.0914 35.9553 42.5205 36.6945C42.2055 37.0977 42.2252 37.1481 42.7567 37.7361C43.308 38.3577 43.308 38.3913 43.3474 40.9618C43.367 42.7594 43.308 43.6498 43.1505 43.8178C43.0127 43.9522 42.3039 44.3386 41.5362 44.6578C40.7881 44.977 39.9021 45.3802 39.6068 45.5482C38.6225 46.1194 38.5241 45.9346 38.5044 43.2802C38.465 40.8946 38.4847 40.861 38.9769 40.4578C39.5675 39.9706 39.6068 39.4665 39.0556 38.8785C38.5437 38.3241 37.7169 38.3073 37.146 38.8281C36.575 39.3321 36.5947 39.7017 37.205 40.3234C37.6775 40.7938 37.6972 40.9114 37.6972 43.1626C37.6972 45.0778 37.6381 45.5314 37.4019 45.5986C37.1066 45.6994 34.5276 44.7082 33.5236 44.1034L32.9723 43.801V40.9618C32.9723 38.3577 33.0117 38.1057 33.3464 37.9545C33.9764 37.6521 33.9961 36.9297 33.3661 36.3921C32.6967 35.8209 32.4605 35.8209 31.7517 36.3081Z" fill="#FEFBFB"/>
</g>
<path d="M68 45.01V18.74H79.1C80.2347 18.74 81.2707 18.9743 82.208 19.443C83.1453 19.9117 83.9593 20.553 84.65 21.367C85.3653 22.1563 85.908 23.0443 86.278 24.031C86.6727 24.993 86.87 25.9797 86.87 26.991C86.87 28.249 86.6233 29.433 86.13 30.543C85.6613 31.653 84.983 32.5903 84.095 33.355C83.2317 34.1197 82.208 34.6253 81.024 34.872L87.462 45.01H84.539L78.36 35.316H70.59V45.01H68ZM70.59 33.022H79.174C80.21 33.022 81.1103 32.7383 81.875 32.171C82.6397 31.6037 83.2317 30.8637 83.651 29.951C84.0703 29.0137 84.28 28.027 84.28 26.991C84.28 25.9303 84.0333 24.956 83.54 24.068C83.0713 23.1553 82.43 22.4277 81.616 21.885C80.8267 21.3177 79.9387 21.034 78.952 21.034H70.59V33.022Z" fill="white"/>
<path d="M99.4017 45.38C98.0204 45.38 96.7377 45.121 95.5537 44.603C94.3697 44.0603 93.3461 43.3327 92.4827 42.42C91.6194 41.4827 90.9411 40.4097 90.4477 39.201C89.9791 37.9923 89.7447 36.6973 89.7447 35.316C89.7447 33.5153 90.1517 31.8627 90.9657 30.358C91.8044 28.8533 92.9514 27.657 94.4067 26.769C95.8621 25.8563 97.5147 25.4 99.3647 25.4C101.264 25.4 102.917 25.8563 104.323 26.769C105.753 27.6817 106.876 28.8903 107.69 30.395C108.504 31.875 108.911 33.503 108.911 35.279C108.911 35.4763 108.911 35.6737 108.911 35.871C108.911 36.0437 108.898 36.1793 108.874 36.278H92.3717C92.4951 37.6593 92.8774 38.8927 93.5187 39.978C94.1847 41.0387 95.0357 41.8897 96.0717 42.531C97.1324 43.1477 98.2794 43.456 99.5127 43.456C100.771 43.456 101.955 43.1353 103.065 42.494C104.199 41.8527 104.989 41.014 105.433 39.978L107.616 40.57C107.221 41.4827 106.617 42.309 105.803 43.049C104.989 43.789 104.027 44.3687 102.917 44.788C101.831 45.1827 100.66 45.38 99.4017 45.38ZM92.2977 34.465H106.543C106.444 33.059 106.062 31.8257 105.396 30.765C104.754 29.7043 103.903 28.878 102.843 28.286C101.807 27.6693 100.66 27.361 99.4017 27.361C98.1437 27.361 96.9967 27.6693 95.9607 28.286C94.9247 28.878 94.0737 29.7167 93.4077 30.802C92.7664 31.8627 92.3964 33.0837 92.2977 34.465Z" fill="white"/>
<path d="M119.12 45.38C117.541 45.38 116.073 45.121 114.717 44.603C113.36 44.085 112.188 43.2957 111.202 42.235L112.238 40.459C113.323 41.4703 114.408 42.2103 115.494 42.679C116.604 43.123 117.775 43.345 119.009 43.345C120.513 43.345 121.734 43.049 122.672 42.457C123.609 41.8403 124.078 40.9647 124.078 39.83C124.078 39.0653 123.843 38.4857 123.375 38.091C122.931 37.6717 122.277 37.3387 121.414 37.092C120.575 36.8207 119.564 36.537 118.38 36.241C117.048 35.871 115.925 35.4887 115.013 35.094C114.125 34.6747 113.446 34.1567 112.978 33.54C112.534 32.8987 112.312 32.0723 112.312 31.061C112.312 29.803 112.62 28.767 113.237 27.953C113.878 27.1143 114.741 26.4853 115.827 26.066C116.937 25.622 118.17 25.4 119.527 25.4C121.007 25.4 122.314 25.6343 123.449 26.103C124.583 26.5717 125.508 27.2253 126.224 28.064L125.003 29.766C124.312 28.9767 123.486 28.397 122.524 28.027C121.586 27.6323 120.538 27.435 119.379 27.435C118.589 27.435 117.837 27.546 117.122 27.768C116.406 27.9653 115.814 28.3107 115.346 28.804C114.902 29.2727 114.68 29.9263 114.68 30.765C114.68 31.4557 114.852 31.9983 115.198 32.393C115.543 32.763 116.061 33.0837 116.752 33.355C117.442 33.6017 118.293 33.873 119.305 34.169C120.76 34.5637 122.03 34.9707 123.116 35.39C124.201 35.7847 125.04 36.3027 125.632 36.944C126.224 37.5853 126.52 38.4857 126.52 39.645C126.52 41.4457 125.841 42.8517 124.485 43.863C123.128 44.8743 121.34 45.38 119.12 45.38Z" fill="white"/>
<path d="M139.003 45.38C137.622 45.38 136.339 45.121 135.155 44.603C133.971 44.0603 132.948 43.3327 132.084 42.42C131.221 41.4827 130.543 40.4097 130.049 39.201C129.581 37.9923 129.346 36.6973 129.346 35.316C129.346 33.5153 129.753 31.8627 130.567 30.358C131.406 28.8533 132.553 27.657 134.008 26.769C135.464 25.8563 137.116 25.4 138.966 25.4C140.866 25.4 142.518 25.8563 143.924 26.769C145.355 27.6817 146.477 28.8903 147.291 30.395C148.105 31.875 148.512 33.503 148.512 35.279C148.512 35.4763 148.512 35.6737 148.512 35.871C148.512 36.0437 148.5 36.1793 148.475 36.278H131.973C132.097 37.6593 132.479 38.8927 133.12 39.978C133.786 41.0387 134.637 41.8897 135.673 42.531C136.734 43.1477 137.881 43.456 139.114 43.456C140.372 43.456 141.556 43.1353 142.666 42.494C143.801 41.8527 144.59 41.014 145.034 39.978L147.217 40.57C146.823 41.4827 146.218 42.309 145.404 43.049C144.59 43.789 143.628 44.3687 142.518 44.788C141.433 45.1827 140.261 45.38 139.003 45.38ZM131.899 34.465H146.144C146.046 33.059 145.663 31.8257 144.997 30.765C144.356 29.7043 143.505 28.878 142.444 28.286C141.408 27.6693 140.261 27.361 139.003 27.361C137.745 27.361 136.598 27.6693 135.562 28.286C134.526 28.878 133.675 29.7167 133.009 30.802C132.368 31.8627 131.998 33.0837 131.899 34.465Z" fill="white"/>
<path d="M150.84 39.46C150.84 38.2513 151.185 37.2153 151.876 36.352C152.567 35.464 153.516 34.7857 154.725 34.317C155.958 33.8237 157.377 33.577 158.98 33.577C159.917 33.577 160.892 33.651 161.903 33.799C162.914 33.947 163.815 34.169 164.604 34.465V32.837C164.604 31.209 164.123 29.914 163.161 28.952C162.199 27.99 160.867 27.509 159.165 27.509C158.129 27.509 157.105 27.7063 156.094 28.101C155.107 28.471 154.071 29.026 152.986 29.766L152.024 27.99C153.282 27.1267 154.515 26.4853 155.724 26.066C156.933 25.622 158.166 25.4 159.424 25.4C161.792 25.4 163.667 26.0783 165.048 27.435C166.429 28.7917 167.12 30.6663 167.12 33.059V41.976C167.12 42.3213 167.194 42.5803 167.342 42.753C167.49 42.901 167.724 42.9873 168.045 43.012V45.01C167.774 45.0347 167.539 45.0593 167.342 45.084C167.145 45.1087 166.997 45.1087 166.898 45.084C166.281 45.0593 165.813 44.862 165.492 44.492C165.171 44.122 164.999 43.7273 164.974 43.308L164.937 41.902C164.074 43.012 162.951 43.8753 161.57 44.492C160.189 45.084 158.783 45.38 157.352 45.38C156.119 45.38 154.996 45.121 153.985 44.603C152.998 44.0603 152.221 43.345 151.654 42.457C151.111 41.5443 150.84 40.5453 150.84 39.46ZM163.753 40.94C164.024 40.5947 164.234 40.2617 164.382 39.941C164.53 39.6203 164.604 39.3367 164.604 39.09V36.278C163.765 35.9573 162.89 35.7107 161.977 35.538C161.089 35.3653 160.189 35.279 159.276 35.279C157.475 35.279 156.02 35.6367 154.91 36.352C153.8 37.0673 153.245 38.0417 153.245 39.275C153.245 39.9903 153.43 40.6687 153.8 41.31C154.17 41.9267 154.713 42.4447 155.428 42.864C156.143 43.2587 156.982 43.456 157.944 43.456C159.153 43.456 160.275 43.2217 161.311 42.753C162.372 42.2843 163.186 41.68 163.753 40.94Z" fill="white"/>
<path d="M182.176 27.953C180.499 28.0023 179.019 28.471 177.736 29.359C176.478 30.247 175.59 31.468 175.072 33.022V45.01H172.556V25.733H174.924V30.358C175.59 29.0013 176.466 27.9037 177.551 27.065C178.661 26.2263 179.833 25.7577 181.066 25.659C181.313 25.6343 181.523 25.622 181.695 25.622C181.893 25.622 182.053 25.6343 182.176 25.659V27.953Z" fill="white"/>
<path d="M193.276 45.38C191.87 45.38 190.575 45.121 189.391 44.603C188.231 44.0603 187.208 43.3203 186.32 42.383C185.456 41.4457 184.778 40.3727 184.285 39.164C183.816 37.9553 183.582 36.6727 183.582 35.316C183.582 33.4907 183.989 31.8257 184.803 30.321C185.617 28.8163 186.751 27.62 188.207 26.732C189.662 25.844 191.339 25.4 193.239 25.4C195.039 25.4 196.63 25.8193 198.012 26.658C199.393 27.472 200.417 28.582 201.083 29.988L198.641 30.765C198.098 29.7783 197.333 29.0137 196.347 28.471C195.385 27.9037 194.312 27.62 193.128 27.62C191.845 27.62 190.673 27.953 189.613 28.619C188.552 29.285 187.701 30.1977 187.06 31.357C186.443 32.5163 186.135 33.836 186.135 35.316C186.135 36.7713 186.455 38.091 187.097 39.275C187.738 40.459 188.589 41.4087 189.65 42.124C190.71 42.8147 191.882 43.16 193.165 43.16C194.003 43.16 194.805 43.012 195.57 42.716C196.359 42.42 197.037 42.0253 197.605 41.532C198.197 41.014 198.591 40.459 198.789 39.867L201.268 40.607C200.922 41.5197 200.343 42.346 199.529 43.086C198.739 43.8013 197.802 44.3687 196.717 44.788C195.656 45.1827 194.509 45.38 193.276 45.38Z" fill="white"/>
<path d="M221.426 45.01H218.91V34.243C218.91 32.0723 218.528 30.4443 217.763 29.359C216.999 28.249 215.901 27.694 214.47 27.694C213.533 27.694 212.596 27.9407 211.658 28.434C210.746 28.9027 209.932 29.5563 209.216 30.395C208.526 31.209 208.032 32.1463 207.736 33.207V45.01H205.22V18H207.736V30.099C208.501 28.6683 209.562 27.5337 210.918 26.695C212.3 25.8317 213.767 25.4 215.321 25.4C216.431 25.4 217.369 25.5973 218.133 25.992C218.923 26.3867 219.552 26.9663 220.02 27.731C220.514 28.471 220.871 29.3467 221.093 30.358C221.315 31.3447 221.426 32.467 221.426 33.725V45.01Z" fill="white"/>
<defs>
<filter id="filter0_i_24_53" x="13" y="11" width="51" height="49" filterUnits="userSpaceOnUse" color-interpolation-filters="sRGB">
<feFlood flood-opacity="0" result="BackgroundImageFix"/>
<feBlend mode="normal" in="SourceGraphic" in2="BackgroundImageFix" result="shape"/>
<feColorMatrix in="SourceAlpha" type="matrix" values="0 0 0 0 0 0 0 0 0 0 0 0 0 0 0 0 0 0 127 0" result="hardAlpha"/>
<feOffset dy="4"/>
<feGaussianBlur stdDeviation="2"/>
<feComposite in2="hardAlpha" operator="arithmetic" k2="-1" k3="1"/>
<feColorMatrix type="matrix" values="0 0 0 0 0 0 0 0 0 0 0 0 0 0 0 0 0 0 0.25 0"/>
<feBlend mode="normal" in2="shape" result="effect1_innerShadow_24_53"/>
</filter>
</defs>
</svg>
