<svg width="237" height="67" viewBox="0 0 237 67" fill="none" xmlns="http://www.w3.org/2000/svg">
<g filter="url(#filter0_d_122_2)">
<path d="M37.2641 12.1833C36.5948 12.4689 36.516 13.2921 37.0869 13.8129C37.4413 14.1489 37.4807 14.4513 37.52 17.9457C37.5594 21.6249 37.5397 21.7089 37.1263 21.9441C36.6144 22.2465 36.5554 23.1537 37.0672 23.5233C37.6972 24.0105 38.2485 24.0441 38.9769 23.6577C39.8234 23.2041 39.8628 22.7673 39.0753 21.9777L38.4847 21.4065V17.9457V14.4849L39.0753 13.9977C39.8037 13.3929 39.8234 12.9729 39.1344 12.3681C38.5634 11.8473 38.091 11.7969 37.2641 12.1833Z" fill="white"/>
<path d="M31.5352 13.5441C31.0824 13.9641 31.1218 14.8041 31.5943 15.1737C31.9683 15.4593 31.988 15.6945 31.988 19.2057C31.988 22.7169 31.9683 22.9521 31.5943 23.2377C31.3777 23.4057 31.2005 23.7417 31.2005 23.9937C31.2005 24.5145 31.9289 25.1697 32.4999 25.1697C33.0117 25.1529 33.7205 24.6489 33.7795 24.2457C33.878 23.7081 33.5827 22.9857 33.2677 22.9857C33.0117 22.9857 32.9724 22.4313 32.9724 19.2057C32.9724 16.0137 33.0117 15.4257 33.2677 15.4257C33.4252 15.4257 33.7008 15.1569 33.878 14.8209C34.2126 14.2329 34.2126 14.2329 33.6614 13.7289C32.992 13.1577 32.0274 13.0737 31.5352 13.5441Z" fill="white"/>
<path d="M42.7174 13.7289C42.1858 14.2161 42.1858 14.2497 42.4811 14.8041C42.6583 15.1233 42.9339 15.4761 43.1111 15.5937C43.3474 15.7617 43.4064 16.3665 43.4064 19.1385V22.4649L42.8158 23.0361C42.0874 23.7417 42.0874 23.9937 42.7371 24.6489C43.4064 25.3377 44.1545 25.3545 44.7451 24.6657C45.2767 24.0441 45.2964 23.6913 44.7648 23.2209C44.3711 22.8681 44.3711 22.6833 44.3908 19.1889C44.4105 15.7785 44.4302 15.4929 44.7845 15.1737C45.0011 14.9721 45.1783 14.5857 45.1783 14.3001C45.1783 13.2081 43.7017 12.8721 42.7174 13.7289Z" fill="white"/>
<path d="M26.2984 14.5017C26.0425 14.6193 25.7078 14.9553 25.5307 15.2577C25.2354 15.7617 25.255 15.7953 25.8653 16.3161L26.4756 16.8705V20.3817L26.4559 23.9097L25.9047 24.4641C25.3732 25.0017 25.3535 25.0353 25.6488 25.5897C25.826 25.9257 26.2 26.2449 26.515 26.3625C27.0269 26.5473 27.145 26.5137 27.6568 26.0937C28.3459 25.5225 28.4049 24.9345 27.8537 24.3297C27.4993 23.9433 27.46 23.6241 27.46 20.3649C27.46 17.0385 27.4797 16.8033 27.8537 16.5177C28.4443 16.0641 28.3656 15.2577 27.6962 14.7033C27.0859 14.1993 26.9875 14.1825 26.2984 14.5017Z" fill="white"/>
<path d="M48.6825 14.5353C48.21 14.7369 48.1313 14.8713 48.1313 15.4929C48.1313 15.9969 48.2494 16.2993 48.525 16.5177C48.8991 16.8033 48.9188 17.0385 48.9188 20.3817C48.9188 23.7249 48.8991 23.9601 48.525 24.2457C48.2691 24.4473 48.1313 24.7665 48.1313 25.1865C48.1313 25.6905 48.2494 25.8921 48.7022 26.1609C49.4109 26.5977 49.4109 26.5977 50.1197 26.1609C50.8284 25.7409 50.9071 24.8841 50.2969 24.4137C49.9228 24.1281 49.9031 23.8929 49.9031 20.4657C49.9031 17.0385 49.9228 16.8033 50.2969 16.5177C50.5725 16.2993 50.6906 15.9969 50.6906 15.4929C50.6906 14.8545 50.6118 14.7537 50.0606 14.5185C49.3519 14.2161 49.3913 14.2161 48.6825 14.5353Z" fill="white"/>
<path d="M52.9546 19.2729C52.738 19.3569 52.423 19.6089 52.2852 19.8441C52.049 20.2137 52.049 20.3649 52.3443 20.8689C52.5215 21.2049 52.8168 21.5241 52.994 21.6081C53.2105 21.7257 53.2696 21.8601 53.1514 22.0785C53.053 22.2633 53.0136 22.4649 53.0333 22.5321C53.053 22.5993 53.0727 26.1945 53.0924 30.4953C53.1121 36.9969 53.053 38.3577 52.8365 38.5089C52.679 38.6097 52.4427 38.8785 52.3049 39.0969C52.0884 39.4161 52.0884 39.5673 52.364 40.0545C52.6396 40.5753 52.7577 40.6257 53.5255 40.6257C54.2145 40.6257 54.4508 40.5417 54.7067 40.2057C55.1398 39.6513 55.1005 39.0297 54.6083 38.7609C54.2145 38.5257 54.2145 38.4249 54.2145 30.0585C54.2342 21.8097 54.2342 21.5745 54.628 21.2217C55.6517 20.2977 54.3524 18.7857 52.9546 19.2729Z" fill="white"/>
<path d="M21.6917 19.5921C21.2389 20.0121 21.2783 20.8521 21.7508 21.2217C22.1249 21.5241 22.1445 21.7425 22.1445 29.9745C22.1445 35.1489 22.0658 38.4585 21.9477 38.5257C21.8492 38.5761 21.5933 38.8449 21.3571 39.1137L20.9436 39.6009L21.7508 40.2897L22.558 40.9785L23.1486 40.6089C23.4636 40.4241 23.877 40.0713 24.0542 39.8529C24.3495 39.4497 24.3495 39.4161 23.7392 38.8953L23.1289 38.3409V29.9409V21.5409L23.7195 21.0537C24.4479 20.4657 24.4479 20.3145 23.7589 19.7433C23.1092 19.2057 22.1642 19.1385 21.6917 19.5921Z" fill="white"/>
<path d="M17.9512 24.7665C17.8725 24.8337 17.8134 25.7241 17.8134 26.7321C17.8134 28.4625 17.7937 28.5969 17.3015 29.0841C16.7109 29.6721 16.77 30.3609 17.4197 30.9657C17.7347 31.2513 17.8134 31.6041 17.8528 33.2337L17.9118 35.1657H18.5024H19.0931L19.1521 33.2169C19.1915 31.5201 19.2505 31.2177 19.5852 30.9657C20.0971 30.5625 20.0971 29.6553 19.5852 29.0337C19.2702 28.6641 19.1915 28.2441 19.1521 26.6649C19.0931 24.7497 19.0931 24.7497 18.6009 24.6993C18.3253 24.6657 18.03 24.6993 17.9512 24.7665Z" fill="white"/>
<path d="M57.3251 24.7665C57.2464 24.8337 57.1873 25.7241 57.1873 26.7321C57.1873 28.4457 57.1479 28.5969 56.6951 29.0673C56.1242 29.6553 56.1636 30.3609 56.8132 30.9657C57.1085 31.2513 57.1873 31.6377 57.2267 33.2337L57.2857 35.1657H57.8763H58.4669L58.526 33.2505C58.5654 31.6545 58.6441 31.2681 58.9591 30.9153C59.4513 30.3945 59.4513 29.8737 58.9591 29.1345C58.6638 28.6641 58.5654 28.1601 58.526 26.6481C58.4669 24.7497 58.4669 24.7497 57.9748 24.6993C57.6992 24.6657 57.4038 24.6993 57.3251 24.7665Z" fill="white"/>
<path d="M26.2985 28.5129C25.9638 29.0337 26.0425 29.9577 26.4363 30.2601C26.7119 30.4785 27.1647 30.5457 28.1884 30.5457C29.3106 30.5457 29.6256 30.6129 29.9209 30.8817C30.413 31.3521 31.7911 31.3521 32.2833 30.8817C32.5786 30.5961 32.8542 30.5457 33.6417 30.5793C34.5079 30.6297 34.6457 30.6801 34.7442 31.0497C34.8229 31.3521 35.0001 31.4865 35.3939 31.5201C35.6892 31.5537 35.9451 31.5201 35.9451 31.4361C36.2995 29.7393 35.9451 29.3697 34.0158 29.3697C32.8149 29.3697 32.5196 29.3193 32.2439 29.0337C32.0077 28.7985 31.6533 28.6977 31.0824 28.6977C30.5312 28.6977 30.1768 28.7985 29.9209 29.0337C29.4484 29.4873 27.6962 29.5209 27.5388 29.0673C27.2238 28.2105 26.6528 27.9417 26.2985 28.5129Z" fill="white"/>
<path d="M48.9778 28.3953C48.8597 28.5129 48.7416 28.7649 48.6825 28.9497C48.6235 29.2353 48.4463 29.3025 47.5604 29.3361C46.6745 29.3865 46.4579 29.3361 46.2217 29.0505C45.8476 28.5801 44.5876 28.5633 44.0955 29.0337C43.8002 29.3193 43.4852 29.3697 42.2252 29.3697C41.3196 29.3697 40.6306 29.4537 40.4928 29.5713C40.099 29.9073 40.1975 31.3521 40.6109 31.5369C41.1031 31.7553 41.6346 31.4529 41.6346 30.9657C41.6346 30.5793 41.6937 30.5457 42.678 30.5457C43.4852 30.5457 43.8199 30.6297 44.0955 30.8817C44.5876 31.3353 45.8476 31.3353 46.2217 30.8817C46.4382 30.6129 46.7532 30.5457 48.1313 30.5121C49.7456 30.4617 49.8047 30.4449 49.9819 30.0081C50.3756 29.0505 49.5684 27.7569 48.9778 28.3953Z" fill="white"/>
<path d="M26.4757 33.6873C25.4322 34.0233 25.2157 34.7961 25.9835 35.4177L26.4757 35.8041V41.9194C26.4757 47.1442 26.4363 48.0346 26.1804 48.1186C26.0229 48.169 25.7669 48.4546 25.5897 48.7402C25.3141 49.2274 25.3141 49.2778 25.8063 49.8154C26.1804 50.2522 26.4363 50.3698 26.9481 50.3698C28.09 50.3698 28.6806 49.0762 27.8537 48.4378C27.4797 48.1522 27.46 47.917 27.46 41.9698C27.46 36.0225 27.4797 35.7873 27.8537 35.5017C28.4247 35.0649 28.3656 34.3425 27.7356 33.9225C27.2041 33.5697 26.9875 33.5193 26.4757 33.6873Z" fill="white"/>
<path d="M48.6629 33.8553C47.9935 34.1409 47.9147 35.0313 48.525 35.5017C48.8991 35.7873 48.9188 36.0225 48.9188 41.8521V47.8834L48.4069 48.4042C47.8557 48.9586 47.8754 49.513 48.466 50.0674C48.8794 50.4706 49.9425 50.4538 50.3559 50.0674C50.8284 49.6138 50.789 48.5722 50.2969 48.3202C49.9228 48.1186 49.9031 47.917 49.9031 41.9529C49.9031 36.0225 49.9228 35.7873 50.2969 35.5017C51.419 34.6449 50.0212 33.2337 48.6629 33.8553Z" fill="white"/>
<path d="M31.7517 36.3081C31.1021 36.7617 31.0233 37.4169 31.5942 37.8537C31.9486 38.1393 31.988 38.3745 31.988 40.7434C31.988 43.0786 31.9486 43.3306 31.6533 43.2802C31.4761 43.2466 31.1414 42.9274 30.8855 42.5578C30.5312 42.0034 30.3343 41.869 29.7634 41.8354C28.6609 41.7514 28.0506 42.1882 28.0506 43.0618C28.0506 44.053 28.5034 44.3722 29.9209 44.3386C30.6296 44.3386 31.1808 44.4226 31.4958 44.5906C31.988 44.8594 31.988 44.8762 31.988 47.6818C31.988 50.269 31.9486 50.5042 31.5942 50.7898C31.358 50.9746 31.2005 51.3106 31.2005 51.6298C31.2005 52.7722 32.7361 53.125 33.6614 52.201C33.937 51.9154 34.1142 51.5794 34.0551 51.4786C33.9961 51.3778 33.8976 51.1594 33.8386 51.0082C33.7795 50.8402 33.5433 50.6722 33.3464 50.6218C32.992 50.521 32.9723 50.3194 32.9723 47.917C32.9723 46.489 33.0511 45.3298 33.1298 45.3298C33.3464 45.3298 37.0672 46.9426 37.3822 47.161C37.5397 47.2786 37.5988 48.1522 37.5594 50.0506C37.5003 52.5202 37.461 52.8226 37.1066 53.1418C36.6144 53.5954 36.5947 54.4354 37.0672 54.7882C37.4413 55.0738 38.6225 55.1746 38.9769 54.9394C39.095 54.8722 39.2918 54.637 39.4297 54.4354C39.6462 54.0994 39.6462 53.9482 39.3903 53.4778C39.2131 53.1754 38.9375 52.8898 38.78 52.8226C38.5437 52.7554 38.4847 52.285 38.4847 50.0674C38.4847 48.1186 38.5437 47.3458 38.7406 47.2114C39.2918 46.825 42.9339 45.3298 43.1505 45.397C43.3277 45.4642 43.3867 46.153 43.3867 47.7826L43.4064 50.0674L42.8158 50.6722C42.4811 51.0082 42.2252 51.4114 42.2252 51.5458C42.2252 51.9994 43.2686 52.7218 43.938 52.7218C45.0207 52.7218 45.572 51.5122 44.8042 50.8066C44.4695 50.5042 44.4105 50.101 44.3514 47.6986C44.253 45.1114 44.2726 44.9434 44.6467 44.641C45.0995 44.2882 45.7885 44.221 46.3201 44.5066C46.7729 44.7586 47.6194 44.3218 48.0328 43.633C48.2888 43.2466 48.2888 43.1122 48.0525 42.7258C47.7179 42.1714 47.1666 41.8186 46.6351 41.8018C46.1035 41.8018 45.257 42.3562 44.942 42.9274C44.3711 43.9186 44.253 43.549 44.2136 40.9114C44.1939 38.3577 44.1939 38.341 44.6861 37.9377C45.2964 37.4505 45.316 36.9297 44.7451 36.4761C43.9773 35.8545 43.0914 35.9553 42.5205 36.6945C42.2055 37.0977 42.2252 37.1481 42.7567 37.7361C43.308 38.3577 43.308 38.3913 43.3474 40.9618C43.367 42.7594 43.308 43.6498 43.1505 43.8178C43.0127 43.9522 42.3039 44.3386 41.5362 44.6578C40.7881 44.977 39.9021 45.3802 39.6068 45.5482C38.6225 46.1194 38.5241 45.9346 38.5044 43.2802C38.465 40.8946 38.4847 40.861 38.9769 40.4578C39.5675 39.9706 39.6068 39.4666 39.0556 38.8785C38.5437 38.3241 37.7169 38.3073 37.146 38.8281C36.575 39.3321 36.5947 39.7018 37.205 40.3234C37.6775 40.7938 37.6972 40.9114 37.6972 43.1626C37.6972 45.0778 37.6381 45.5314 37.4019 45.5986C37.1066 45.6994 34.5276 44.7082 33.5236 44.1034L32.9723 43.801V40.9618C32.9723 38.3577 33.0117 38.1057 33.3464 37.9545C33.9764 37.6521 33.9961 36.9297 33.3661 36.3921C32.6967 35.8209 32.4605 35.8209 31.7517 36.3081Z" fill="#FEFBFB"/>
</g>
<path d="M70.44 18.6L80.6 43.52L90.72 18.6H93.64L81.88 47H79.32L67.52 18.6H70.44ZM103.053 47.4C101.56 47.4 100.173 47.12 98.8931 46.56C97.6131 45.9733 96.5065 45.1867 95.5731 44.2C94.6398 43.1867 93.9065 42.0267 93.3731 40.72C92.8665 39.4133 92.6131 38.0133 92.6131 36.52C92.6131 34.5733 93.0531 32.7867 93.9331 31.16C94.8398 29.5333 96.0798 28.24 97.6531 27.28C99.2265 26.2933 101.013 25.8 103.013 25.8C105.066 25.8 106.853 26.2933 108.373 27.28C109.92 28.2667 111.133 29.5733 112.013 31.2C112.893 32.8 113.333 34.56 113.333 36.48C113.333 36.6933 113.333 36.9067 113.333 37.12C113.333 37.3067 113.32 37.4533 113.293 37.56H95.4531C95.5865 39.0533 95.9998 40.3867 96.6931 41.56C97.4131 42.7067 98.3331 43.6267 99.4531 44.32C100.6 44.9867 101.84 45.32 103.173 45.32C104.533 45.32 105.813 44.9733 107.013 44.28C108.24 43.5867 109.093 42.68 109.573 41.56L111.933 42.2C111.506 43.1867 110.853 44.08 109.973 44.88C109.093 45.68 108.053 46.3067 106.853 46.76C105.68 47.1867 104.413 47.4 103.053 47.4ZM95.3731 35.6H110.773C110.666 34.08 110.253 32.7467 109.533 31.6C108.84 30.4533 107.92 29.56 106.773 28.92C105.653 28.2533 104.413 27.92 103.053 27.92C101.693 27.92 100.453 28.2533 99.3331 28.92C98.2131 29.56 97.2931 30.4667 96.5731 31.64C95.8798 32.7867 95.4798 34.1067 95.3731 35.6ZM134.65 47H131.93V35.36C131.93 32.9067 131.57 31.12 130.85 30C130.13 28.8533 128.996 28.28 127.45 28.28C126.383 28.28 125.33 28.5467 124.29 29.08C123.25 29.5867 122.33 30.2933 121.53 31.2C120.756 32.08 120.196 33.0933 119.85 34.24V47H117.13V26.16H119.61V30.88C120.17 29.8667 120.903 28.9867 121.81 28.24C122.716 27.4667 123.743 26.8667 124.89 26.44C126.036 26.0133 127.223 25.8 128.45 25.8C129.596 25.8 130.57 26.0133 131.37 26.44C132.17 26.8667 132.81 27.48 133.29 28.28C133.77 29.0533 134.116 30 134.33 31.12C134.543 32.2133 134.65 33.44 134.65 34.8V47ZM148.41 47.28C146.997 47.28 145.69 46.9867 144.49 46.4C143.29 45.8133 142.25 45.0267 141.37 44.04C140.517 43.0267 139.85 41.88 139.37 40.6C138.89 39.32 138.65 38 138.65 36.64C138.65 35.1733 138.877 33.8 139.33 32.52C139.81 31.2133 140.477 30.0533 141.33 29.04C142.21 28.0267 143.237 27.24 144.41 26.68C145.583 26.0933 146.89 25.8 148.33 25.8C150.117 25.8 151.663 26.2533 152.97 27.16C154.303 28.0667 155.423 29.1867 156.33 30.52V26.16H158.77V47.08C158.77 49 158.303 50.6133 157.37 51.92C156.463 53.2533 155.223 54.2533 153.65 54.92C152.103 55.5867 150.41 55.92 148.57 55.92C146.197 55.92 144.277 55.4933 142.81 54.64C141.343 53.7867 140.143 52.64 139.21 51.2L140.89 49.88C141.717 51.1867 142.81 52.16 144.17 52.8C145.557 53.44 147.023 53.76 148.57 53.76C149.93 53.76 151.17 53.5067 152.29 53C153.437 52.52 154.343 51.7867 155.01 50.8C155.703 49.8133 156.05 48.5733 156.05 47.08V42.96C155.25 44.2667 154.157 45.32 152.77 46.12C151.383 46.8933 149.93 47.28 148.41 47.28ZM149.17 45C149.997 45 150.783 44.8533 151.53 44.56C152.303 44.2667 153.01 43.88 153.65 43.4C154.29 42.8933 154.823 42.3333 155.25 41.72C155.677 41.1067 155.943 40.48 156.05 39.84V33.4C155.65 32.3867 155.077 31.4933 154.33 30.72C153.583 29.92 152.73 29.3067 151.77 28.88C150.837 28.4267 149.863 28.2 148.85 28.2C147.677 28.2 146.623 28.4533 145.69 28.96C144.783 29.44 144.01 30.0933 143.37 30.92C142.757 31.72 142.277 32.6267 141.93 33.64C141.583 34.6533 141.41 35.6667 141.41 36.68C141.41 37.8 141.61 38.8667 142.01 39.88C142.41 40.8667 142.957 41.76 143.65 42.56C144.37 43.3333 145.197 43.9333 146.13 44.36C147.09 44.7867 148.103 45 149.17 45ZM164.377 47V26.16H167.097V47H164.377ZM164.377 21.8V17.8H167.097V21.8H164.377ZM173.328 26.16L179.448 34.32L179.768 34.92L180.088 34.32L186.168 26.16H189.248L181.328 36.64L189.248 47H186.168L180.088 38.88L179.768 38.32L179.448 38.88L173.368 47H170.288L178.168 36.64L170.288 26.16H173.328Z" fill="white"/>
<defs>
<filter id="filter0_d_122_2" x="9" y="11" width="59" height="53" filterUnits="userSpaceOnUse" color-interpolation-filters="sRGB">
<feFlood flood-opacity="0" result="BackgroundImageFix"/>
<feColorMatrix in="SourceAlpha" type="matrix" values="0 0 0 0 0 0 0 0 0 0 0 0 0 0 0 0 0 0 127 0" result="hardAlpha"/>
<feOffset dy="4"/>
<feGaussianBlur stdDeviation="2"/>
<feColorMatrix type="matrix" values="0 0 0 0 0 0 0 0 0 0 0 0 0 0 0 0 0 0 0.25 0"/>
<feBlend mode="normal" in2="BackgroundImageFix" result="effect1_dropShadow_122_2"/>
<feBlend mode="normal" in="SourceGraphic" in2="effect1_dropShadow_122_2" result="shape"/>
</filter>
</defs>
</svg>
