<svg width="506" height="253" viewBox="0 0 506 253" fill="none" xmlns="http://www.w3.org/2000/svg">
<g clip-path="url(#clip0_504_8)">
<rect width="506" height="253" fill="white"/>
<g filter="url(#filter0_d_504_8)">
<path d="M5.17843 247.368L0.703125 249.205V-2.16504H504.238L454.678 18.5249C453.961 18.8241 453.396 19.2405 453.011 19.721C452.408 20.4772 452.288 21.3302 452.575 22.1017C452.859 22.8685 453.559 23.5922 454.679 24.0594L500.101 42.9985C500.538 43.181 500.935 43.4408 501.245 43.7652L5.18054 247.367L5.17843 247.368ZM0.703125 250.051L2.85455 249.168C2.52107 249.764 2.4713 250.359 2.4283 250.872C2.4235 250.93 2.41877 250.986 2.41373 251.042C2.36221 251.608 2.2827 252.02 1.95524 252.296C1.80661 252.422 1.61142 252.513 1.33538 252.577C1.17238 252.615 0.966318 252.646 0.703125 252.667V250.051Z" fill="black"/>
<path d="M5.40015 247.818L5.36825 247.831L3.81968 248.466L3.29095 249.412C3.01646 249.903 2.96999 250.395 2.92656 250.914C2.92177 250.971 2.91691 251.029 2.91169 251.087L2.91167 251.087C2.86138 251.64 2.77885 252.255 2.27793 252.678C2.27789 252.678 2.27785 252.678 2.27781 252.678L1.95524 252.296C1.80661 252.422 1.61142 252.513 1.33538 252.577L5.40015 247.818ZM5.40015 247.818L5.40234 247.817L501.435 44.2277L502.114 43.9492L501.607 43.4193C501.242 43.0389 500.786 42.7424 500.294 42.5371L500.101 42.9985L500.294 42.537L454.872 23.5979C453.85 23.1716 453.27 22.5371 453.044 21.9281L453.044 21.9276C452.821 21.3288 452.903 20.6593 453.401 20.0337C453.726 19.6287 454.218 19.2587 454.871 18.9863L454.68 18.5301L454.871 18.9863L504.43 -1.70363L504.238 -2.66504H0.703125H0.203125V-2.16504V249.205V249.715V249.951L5.40015 247.818Z" stroke="black"/>
</g>
</g>
<defs>
<filter id="filter0_d_504_8" x="-4.29688" y="-3.16504" width="512.92" height="264.912" filterUnits="userSpaceOnUse" color-interpolation-filters="sRGB">
<feFlood flood-opacity="0" result="BackgroundImageFix"/>
<feColorMatrix in="SourceAlpha" type="matrix" values="0 0 0 0 0 0 0 0 0 0 0 0 0 0 0 0 0 0 127 0" result="hardAlpha"/>
<feOffset dy="4"/>
<feGaussianBlur stdDeviation="2"/>
<feComposite in2="hardAlpha" operator="out"/>
<feColorMatrix type="matrix" values="0 0 0 0 0 0 0 0 0 0 0 0 0 0 0 0 0 0 0.25 0"/>
<feBlend mode="normal" in2="BackgroundImageFix" result="effect1_dropShadow_504_8"/>
<feBlend mode="normal" in="SourceGraphic" in2="effect1_dropShadow_504_8" result="shape"/>
</filter>
<clipPath id="clip0_504_8">
<rect width="506" height="253" fill="white"/>
</clipPath>
</defs>
</svg>
