<svg width="506" height="350" viewBox="0 0 506 350" fill="none" xmlns="http://www.w3.org/2000/svg">
<g clip-path="url(#clip0_504_8)">
<rect width="506" height="350" fill="white"/>
<g filter="url(#filter0_d_504_8)">
<path d="M5.17843 342.209L0.703125 344.75V-2.99512H504.238L454.678 25.6274C453.961 26.0413 453.396 26.6173 453.011 27.282C452.408 28.3281 452.288 29.5082 452.575 30.5755C452.859 31.6363 453.559 32.6374 454.679 33.2837L500.101 59.4841C500.538 59.7365 500.935 60.096 501.245 60.5447L5.18054 342.208L5.17843 342.209ZM0.703125 345.92L2.85455 344.699C2.52107 345.524 2.4713 346.346 2.4283 347.056C2.4235 347.136 2.41877 347.214 2.41373 347.291C2.36221 348.075 2.2827 348.644 1.95524 349.026C1.80661 349.2 1.61142 349.326 1.33538 349.415C1.17238 349.467 0.966318 349.511 0.703125 349.539V345.92Z" fill="black"/>
<path d="M2.33506 349.351C2.78742 348.823 2.863 348.079 2.91265 347.324L2.41373 347.291L2.91266 347.323C2.9178 347.245 2.92259 347.166 2.92739 347.086C2.9708 346.369 3.01933 345.625 3.31811 344.886L3.85608 343.555L2.60774 344.264L0.456312 345.485L0.203125 345.629V345.92V349.539V350.095L0.756467 350.036C1.04564 350.005 1.286 349.956 1.48788 349.891L1.48881 349.891C1.83589 349.779 2.11577 349.608 2.33506 349.351ZM2.33506 349.351L1.95524 349.026L2.33516 349.351C2.33513 349.351 2.3351 349.351 2.33506 349.351ZM5.42528 342.644L5.42741 342.642L5.46048 342.624L5.46256 342.622L501.492 60.9795L501.968 60.7096L501.657 60.2601C501.304 59.7508 500.853 59.3406 500.351 59.0511L500.351 59.051L454.929 32.8506C453.928 32.2732 453.309 31.3839 453.058 30.4463L453.058 30.4458C452.805 29.5017 452.91 28.4587 453.444 27.5317C453.786 26.9428 454.287 26.4302 454.928 26.0603L454.678 25.6274L454.928 26.0603L504.488 -2.56214L506.103 -3.49512H504.238H0.703125H0.203125V-2.99512V344.75V345.609L0.949977 345.185L5.42528 342.644Z" stroke="black"/>
</g>
</g>
<defs>
<filter id="filter0_d_504_8" x="-4.29688" y="-3.99512" width="516.266" height="362.646" filterUnits="userSpaceOnUse" color-interpolation-filters="sRGB">
<feFlood flood-opacity="0" result="BackgroundImageFix"/>
<feColorMatrix in="SourceAlpha" type="matrix" values="0 0 0 0 0 0 0 0 0 0 0 0 0 0 0 0 0 0 127 0" result="hardAlpha"/>
<feOffset dy="4"/>
<feGaussianBlur stdDeviation="2"/>
<feComposite in2="hardAlpha" operator="out"/>
<feColorMatrix type="matrix" values="0 0 0 0 0 0 0 0 0 0 0 0 0 0 0 0 0 0 0.25 0"/>
<feBlend mode="normal" in2="BackgroundImageFix" result="effect1_dropShadow_504_8"/>
<feBlend mode="normal" in="SourceGraphic" in2="effect1_dropShadow_504_8" result="shape"/>
</filter>
<clipPath id="clip0_504_8">
<rect width="506" height="350" fill="white"/>
</clipPath>
</defs>
</svg>
