<svg width="434" height="265" viewBox="0 0 434 265" fill="none" xmlns="http://www.w3.org/2000/svg">
<g clip-path="url(#clip0_508_10)">
<rect width="434" height="265" fill="white"/>
<path d="M4.44104 259.101L0.602539 261.025V-2.26758H432.488L389.98 19.4037C389.365 19.7171 388.881 20.1532 388.55 20.6565C388.033 21.4486 387.931 22.342 388.177 23.1502C388.42 23.9534 389.02 24.7113 389.981 25.2007L428.94 45.0381C429.315 45.2292 429.655 45.5014 429.921 45.8411L4.44285 259.1L4.44104 259.101ZM0.602539 261.911L2.44783 260.986C2.1618 261.611 2.11912 262.234 2.08224 262.771C2.07811 262.832 2.07406 262.891 2.06974 262.949C2.02555 263.542 1.95735 263.973 1.67648 264.263C1.54901 264.394 1.38159 264.49 1.14483 264.557C1.00503 264.596 0.828282 264.63 0.602539 264.651V261.911Z" fill="black" stroke="black"/>
</g>
<defs>
<clipPath id="clip0_508_10">
<rect width="434" height="265" fill="white"/>
</clipPath>
</defs>
</svg>
