<svg width="4641" height="6125" viewBox="0 0 4641 6125" fill="none" xmlns="http://www.w3.org/2000/svg">
<g filter="url(#filter0_dd_503_3)">
<path d="M45.5151 5988.78L4.30518 6033.24V-52.9619H4641L4184.64 447.986C4178.04 455.231 4172.83 465.312 4169.29 476.946C4163.74 495.254 4162.64 515.908 4165.28 534.589C4167.89 553.154 4174.34 570.675 4184.65 581.987L4602.91 1040.54C4606.93 1044.96 4610.58 1051.25 4613.44 1059.11L2230 3616.5L45.5345 5988.75L45.5151 5988.78ZM4.30518 6053.72L24.1162 6032.34C21.0454 6046.78 20.587 6061.18 20.1911 6073.61C20.1469 6075 20.1034 6076.36 20.0569 6077.71C19.5826 6091.43 18.8504 6101.39 15.835 6108.08C14.4664 6111.12 12.6691 6113.33 10.1272 6114.88C8.62625 6115.8 6.72873 6116.56 4.30518 6117.06V6053.72Z" fill="url(#paint0_linear_503_3)"/>
<path d="M9.8672 6114.46C8.54565 6115.26 6.89288 6115.95 4.80518 6116.44M9.8672 6114.46L10.1272 6114.88M9.8672 6114.46C9.86674 6114.46 9.86638 6114.46 9.86593 6114.46L10.1272 6114.88M9.8672 6114.46C12.3074 6112.96 14.0439 6110.84 15.379 6107.88L15.835 6108.08M4.80518 6116.44L10.1272 6114.88M4.80518 6116.44V6053.91L23.2661 6034M4.80518 6116.44L23.2661 6034M10.1272 6114.88C12.6691 6113.33 14.4664 6111.12 15.835 6108.08M15.835 6108.08L15.3791 6107.88C18.3462 6101.29 19.0819 6091.44 19.5572 6077.69C19.6036 6076.35 19.6471 6074.98 19.6914 6073.59L19.692 6073.57C20.0716 6061.65 20.5101 6047.88 23.2661 6034M15.835 6108.08L23.2661 6034M45.1667 5988.41L45.1483 5988.44L45.1384 5988.44L45.1156 5988.47L45.0962 5988.5L4.80518 6031.97V-52.4619H4639.87L4184.27 447.649C4177.6 454.964 4172.37 465.118 4168.81 476.8C4163.23 495.186 4162.13 515.914 4164.78 534.659C4167.4 553.277 4173.87 570.909 4184.28 582.324L4602.54 1040.88C4606.46 1045.18 4610.04 1051.32 4612.87 1058.99L2229.63 3616.16L2229.63 3616.16L45.1667 5988.41Z" stroke="black"/>
</g>
<defs>
<filter id="filter0_dd_503_3" x="0.305176" y="-52.9619" width="4644.69" height="6178.02" filterUnits="userSpaceOnUse" color-interpolation-filters="sRGB">
<feFlood flood-opacity="0" result="BackgroundImageFix"/>
<feColorMatrix in="SourceAlpha" type="matrix" values="0 0 0 0 0 0 0 0 0 0 0 0 0 0 0 0 0 0 127 0" result="hardAlpha"/>
<feOffset dy="4"/>
<feGaussianBlur stdDeviation="2"/>
<feComposite in2="hardAlpha" operator="out"/>
<feColorMatrix type="matrix" values="0 0 0 0 0 0 0 0 0 0 0 0 0 0 0 0 0 0 0.25 0"/>
<feBlend mode="normal" in2="BackgroundImageFix" result="effect1_dropShadow_503_3"/>
<feColorMatrix in="SourceAlpha" type="matrix" values="0 0 0 0 0 0 0 0 0 0 0 0 0 0 0 0 0 0 127 0" result="hardAlpha"/>
<feOffset dy="4"/>
<feGaussianBlur stdDeviation="2"/>
<feComposite in2="hardAlpha" operator="out"/>
<feColorMatrix type="matrix" values="0 0 0 0 0 0 0 0 0 0 0 0 0 0 0 0 0 0 0.25 0"/>
<feBlend mode="normal" in2="effect1_dropShadow_503_3" result="effect2_dropShadow_503_3"/>
<feBlend mode="normal" in="SourceGraphic" in2="effect2_dropShadow_503_3" result="shape"/>
</filter>
<linearGradient id="paint0_linear_503_3" x1="1142.69" y1="2441.14" x2="2865.65" y2="1918.05" gradientUnits="userSpaceOnUse">
<stop/>
<stop offset="1"/>
</linearGradient>
</defs>
</svg>
