<svg width="716" height="1173" viewBox="0 0 716 1173" fill="none" xmlns="http://www.w3.org/2000/svg">
<g filter="url(#filter0_d_504_7)">
<path d="M7.32727 1146.89L0.994629 1155.4V-10.0381H713.506L643.378 85.8881C642.364 87.2753 641.564 89.2057 641.019 91.4336C640.166 94.9394 639.997 98.8943 640.402 102.472C640.804 106.027 641.795 109.382 643.38 111.548L707.653 199.356C708.271 200.202 708.832 201.407 709.272 202.911L7.33025 1146.88L7.32727 1146.89ZM0.994629 1159.33L4.03894 1155.23C3.56706 1158 3.49663 1160.75 3.43579 1163.13C3.42899 1163.4 3.42231 1163.66 3.41517 1163.92C3.34227 1166.55 3.22976 1168.45 2.76639 1169.74C2.55609 1170.32 2.27989 1170.74 1.88928 1171.04C1.65864 1171.21 1.36705 1171.36 0.994629 1171.45V1159.33Z" fill="black"/>
<path d="M7.32727 1146.89L0.994629 1155.4V-10.0381H713.506L643.378 85.8881C642.364 87.2753 641.564 89.2057 641.019 91.4336C640.166 94.9394 639.997 98.8943 640.402 102.472C640.804 106.027 641.795 109.382 643.38 111.548L707.653 199.356C708.271 200.202 708.832 201.407 709.272 202.911L7.33025 1146.88L7.32727 1146.89ZM0.994629 1159.33L4.03894 1155.23C3.56706 1158 3.49663 1160.75 3.43579 1163.13C3.42899 1163.4 3.42231 1163.66 3.41517 1163.92C3.34227 1166.55 3.22976 1168.45 2.76639 1169.74C2.55609 1170.32 2.27989 1170.74 1.88928 1171.04C1.65864 1171.21 1.36705 1171.36 0.994629 1171.45V1159.33Z" stroke="#CE4FD0"/>
</g>
<defs>
<filter id="filter0_d_504_7" x="-3.50537" y="-10.5381" width="721.996" height="1190.63" filterUnits="userSpaceOnUse" color-interpolation-filters="sRGB">
<feFlood flood-opacity="0" result="BackgroundImageFix"/>
<feColorMatrix in="SourceAlpha" type="matrix" values="0 0 0 0 0 0 0 0 0 0 0 0 0 0 0 0 0 0 127 0" result="hardAlpha"/>
<feOffset dy="4"/>
<feGaussianBlur stdDeviation="2"/>
<feComposite in2="hardAlpha" operator="out"/>
<feColorMatrix type="matrix" values="0 0 0 0 0 0 0 0 0 0 0 0 0 0 0 0 0 0 0.25 0"/>
<feBlend mode="normal" in2="BackgroundImageFix" result="effect1_dropShadow_504_7"/>
<feBlend mode="normal" in="SourceGraphic" in2="effect1_dropShadow_504_7" result="shape"/>
</filter>
</defs>
</svg>
