<svg width="180" height="350" viewBox="0 0 180 350" fill="none" xmlns="http://www.w3.org/2000/svg">
<g filter="url(#filter0_d_504_9)">
<mask id="path-1-outside-1_504_9" maskUnits="userSpaceOnUse" x="-0.75" y="-3.99512" width="182" height="355" fill="black">
<rect fill="white" x="-0.75" y="-3.99512" width="182" height="355"/>
<path d="M1.84201 342.209L0.25 344.75V-2.99512H179.373L161.743 25.6274C161.488 26.0413 161.287 26.6173 161.15 27.282C160.935 28.3281 160.893 29.5082 160.995 30.5755C161.096 31.6363 161.345 32.6374 161.743 33.2837L177.902 59.4841C178.057 59.7365 178.198 60.096 178.309 60.5447L1.84275 342.208L1.84201 342.209ZM0.25 345.92L1.01533 344.699C0.8967 345.524 0.878995 346.346 0.8637 347.056C0.86199 347.136 0.86031 347.214 0.858515 347.291C0.84019 348.075 0.811905 348.644 0.695415 349.026C0.642545 349.2 0.57311 349.326 0.474913 349.415C0.41693 349.467 0.343626 349.511 0.25 349.539V345.92Z"/>
</mask>
<path d="M1.84201 342.209L0.25 344.75V-2.99512H179.373L161.743 25.6274C161.488 26.0413 161.287 26.6173 161.15 27.282C160.935 28.3281 160.893 29.5082 160.995 30.5755C161.096 31.6363 161.345 32.6374 161.743 33.2837L177.902 59.4841C178.057 59.7365 178.198 60.096 178.309 60.5447L1.84275 342.208L1.84201 342.209ZM0.25 345.92L1.01533 344.699C0.8967 345.524 0.878995 346.346 0.8637 347.056C0.86199 347.136 0.86031 347.214 0.858515 347.291C0.84019 348.075 0.811905 348.644 0.695415 349.026C0.642545 349.2 0.57311 349.326 0.474913 349.415C0.41693 349.467 0.343626 349.511 0.25 349.539V345.92Z" fill="black"/>
<path d="M1.84201 342.209L2.68939 342.74L2.72762 342.679L2.75671 342.613L1.84201 342.209ZM0.25 344.75H-0.75V348.229L1.09739 345.281L0.25 344.75ZM0.25 -2.99512V-3.99512H-0.75V-2.99512H0.25ZM179.373 -2.99512L180.224 -2.47067L181.163 -3.99512H179.373V-2.99512ZM161.743 25.6274L162.594 26.1519L162.594 26.1518L161.743 25.6274ZM161.15 27.282L160.171 27.0802L160.17 27.0811L161.15 27.282ZM160.995 30.5755L161.99 30.4807L161.99 30.4804L160.995 30.5755ZM161.743 33.2837L160.892 33.8085L160.892 33.8086L161.743 33.2837ZM177.902 59.4841L178.753 58.9596L178.753 58.9592L177.902 59.4841ZM178.309 60.5447L179.156 61.0756L179.381 60.7167L179.279 60.3056L178.309 60.5447ZM1.84275 342.208L0.995334 341.677L0.957127 341.738L0.928047 341.803L1.84275 342.208ZM0.25 345.92L-0.597339 345.389L-0.75 345.632V345.92H0.25ZM1.01533 344.699L2.00515 344.841L0.167991 344.168L1.01533 344.699ZM0.8637 347.056L-0.136068 347.035L-0.136069 347.035L0.8637 347.056ZM0.858515 347.291L1.85824 347.314L1.85824 347.314L0.858515 347.291ZM0.695415 349.026L-0.261209 348.735L-0.261259 348.735L0.695415 349.026ZM0.474913 349.415L1.14399 350.158L1.14646 350.156L0.474913 349.415ZM0.25 349.539H-0.75V350.885L0.538772 350.496L0.25 349.539ZM0.994617 341.678L-0.597388 344.219L1.09739 345.281L2.68939 342.74L0.994617 341.678ZM1.25 344.75V-2.99512H-0.75V344.75H1.25ZM0.25 -1.99512H179.373V-3.99512H0.25V-1.99512ZM178.522 -3.51956L160.892 25.1029L162.594 26.1518L180.224 -2.47067L178.522 -3.51956ZM160.892 25.1028C160.553 25.653 160.32 26.3534 160.171 27.0802L162.129 27.4839C162.254 26.8812 162.423 26.4295 162.594 26.1519L160.892 25.1028ZM160.17 27.0811C159.933 28.2365 159.889 29.5173 160 30.6707L161.99 30.4804C161.897 29.499 161.938 28.4196 162.13 27.4829L160.17 27.0811ZM159.999 30.6703C160.106 31.7896 160.375 32.97 160.892 33.8085L162.595 32.7589C162.315 32.3047 162.086 31.483 161.99 30.4807L159.999 30.6703ZM160.892 33.8086L177.05 60.009L178.753 58.9592L162.595 32.7588L160.892 33.8086ZM177.05 60.0085C177.133 60.1429 177.242 60.3951 177.338 60.7838L179.279 60.3056C179.154 59.7969 178.981 59.3302 178.753 58.9596L177.05 60.0085ZM177.461 60.0138L0.995334 341.677L2.69018 342.739L179.156 61.0756L177.461 60.0138ZM0.928047 341.803L0.927297 341.805L2.75671 342.613L2.75746 342.612L0.928047 341.803ZM1.09734 346.451L1.86267 345.23L0.167991 344.168L-0.597339 345.389L1.09734 346.451ZM0.0255122 344.556C-0.103069 345.45 -0.120935 346.332 -0.136068 347.035L1.86347 347.078C1.87892 346.36 1.89647 345.597 2.00515 344.841L0.0255122 344.556ZM-0.136069 347.035C-0.137781 347.114 -0.139443 347.191 -0.141213 347.267L1.85824 347.314C1.86006 347.236 1.86176 347.157 1.86347 347.078L-0.136069 347.035ZM-0.141212 347.267C-0.160495 348.092 -0.192811 348.51 -0.261209 348.735L1.65204 349.317C1.81662 348.777 1.84087 348.057 1.85824 347.314L-0.141212 347.267ZM-0.261259 348.735C-0.272337 348.771 -0.277036 348.775 -0.268956 348.761C-0.259325 348.744 -0.236701 348.71 -0.196633 348.674L1.14646 350.156C1.42658 349.902 1.56932 349.589 1.65209 349.317L-0.261259 348.735ZM-0.194164 348.671C-0.142022 348.625 -0.0852674 348.595 -0.0387718 348.581L0.538772 350.496C0.772519 350.426 0.975882 350.309 1.14399 350.158L-0.194164 348.671ZM1.25 349.539V345.92H-0.75V349.539H1.25Z" fill="black" mask="url(#path-1-outside-1_504_9)"/>
</g>
<defs>
<filter id="filter0_d_504_9" x="-4.75" y="-3.99512" width="189.913" height="362.88" filterUnits="userSpaceOnUse" color-interpolation-filters="sRGB">
<feFlood flood-opacity="0" result="BackgroundImageFix"/>
<feColorMatrix in="SourceAlpha" type="matrix" values="0 0 0 0 0 0 0 0 0 0 0 0 0 0 0 0 0 0 127 0" result="hardAlpha"/>
<feOffset dy="4"/>
<feGaussianBlur stdDeviation="2"/>
<feComposite in2="hardAlpha" operator="out"/>
<feColorMatrix type="matrix" values="0 0 0 0 0 0 0 0 0 0 0 0 0 0 0 0 0 0 0.25 0"/>
<feBlend mode="normal" in2="BackgroundImageFix" result="effect1_dropShadow_504_9"/>
<feBlend mode="normal" in="SourceGraphic" in2="effect1_dropShadow_504_9" result="shape"/>
</filter>
</defs>
</svg>
