<svg width="14057" height="7394" viewBox="0 0 14057 7394" fill="none" xmlns="http://www.w3.org/2000/svg">
<g clip-path="url(#clip0)">
<g filter="url(#filter0_d)">
<path d="M3502.94 1562.26L1606.72 5137.78C1369.64 5584.84 1539.85 6139.45 1986.9 6376.54C2441.79 6617.77 3006.07 6436.94 3236.01 5976.24L4427.45 3589.02C4493.21 3457.26 4650.99 3400.55 4785.58 3460.3C4980.63 3546.89 5195.78 3388.31 5170.81 3176.38L5013.94 1845.26C4996.42 1696.66 4937.85 1555.88 4844.78 1438.71C4483.74 984.149 3774.91 1049.41 3502.94 1562.26Z" fill="#255EF0" fill-opacity="0.86" shape-rendering="crispEdges"/>
</g>
<g filter="url(#filter1_d)">
<path d="M4469.82 4473.43C4506.08 4286.38 4612.32 4120.2 4766.86 4008.76V4008.76C5114.83 3757.84 5602.06 3850.13 5834.17 4210.91L6640.09 5463.65C6847.61 5786.2 6754.34 6215.91 6431.79 6423.42V6423.42C6143.25 6609.05 5762.4 6556.15 5535.37 6298.92L4850.66 5523.1C4798.43 5463.91 4727.76 5424.07 4650.09 5410.01V5410.01C4457.73 5375.2 4330.92 5189.89 4368.13 4997.98L4469.82 4473.43Z" fill="#FFE600" fill-opacity="0.91" shape-rendering="crispEdges"/>
</g>
<g filter="url(#filter2_d)">
<path d="M7032.41 4245C7027.94 4245 7023.96 4243.51 7020.48 4240.52C7017.49 4237.04 7016 4233.06 7016 4228.59C7016 4226.6 7016.25 4224.86 7016.75 4223.37L7183.1 3747.42C7185.09 3740.95 7188.82 3735.23 7194.29 3730.26C7199.76 3725.29 7207.22 3722.8 7216.67 3722.8H7378.56C7388.01 3722.8 7395.47 3725.29 7400.94 3730.26C7406.41 3735.23 7410.14 3740.95 7412.13 3747.42L7578.48 4223.37C7578.98 4224.86 7579.23 4226.6 7579.23 4228.59C7579.23 4233.06 7577.49 4237.04 7574.01 4240.52C7571.02 4243.51 7567.29 4245 7562.82 4245H7424.81C7409.89 4245 7400.19 4238.78 7395.71 4226.35L7377.81 4177.11H7217.42L7199.52 4226.35C7195.04 4238.78 7185.34 4245 7170.42 4245H7032.41ZM7339.76 4031.64L7297.24 3892.89L7255.47 4031.64H7339.76ZM7849.19 4245C7843.72 4245 7839 4243.01 7835.02 4239.03C7831.04 4235.05 7829.05 4230.33 7829.05 4224.86V3735.48C7829.05 3730.01 7831.04 3725.29 7835.02 3721.31C7839 3717.33 7843.72 3715.34 7849.19 3715.34H7982.73C7988.2 3715.34 7992.92 3717.33 7996.9 3721.31C8000.88 3725.29 8002.87 3730.01 8002.87 3735.48V4224.86C8002.87 4230.33 8000.88 4235.05 7996.9 4239.03C7992.92 4243.01 7988.2 4245 7982.73 4245H7849.19ZM8306.67 4386.74C8301.2 4386.74 8296.48 4384.75 8292.5 4380.77C8288.52 4376.79 8286.53 4372.07 8286.53 4366.6V3877.22C8286.53 3871.75 8288.52 3867.03 8292.5 3863.05C8296.48 3859.07 8301.2 3857.08 8306.67 3857.08H8433.49C8438.96 3857.08 8443.69 3859.07 8447.67 3863.05C8451.65 3867.03 8453.64 3871.75 8453.64 3877.22V3899.6C8465.57 3884.18 8480.74 3872 8499.14 3863.05C8518.04 3854.1 8539.67 3849.62 8564.04 3849.62C8610.3 3849.62 8647.6 3863.55 8675.94 3891.4C8704.29 3919.25 8719.71 3962.76 8722.2 4021.95C8722.69 4029.41 8722.94 4039.1 8722.94 4051.04C8722.94 4063.47 8722.69 4073.42 8722.2 4080.88C8720.21 4137.08 8704.54 4179.85 8675.2 4209.19C8646.35 4238.04 8609.3 4252.46 8564.04 4252.46C8518.79 4252.46 8485.71 4237.54 8464.83 4207.7V4366.6C8464.83 4372.07 8462.84 4376.79 8458.86 4380.77C8454.88 4384.75 8450.15 4386.74 8444.68 4386.74H8306.67ZM8502.13 4118.93C8515.06 4118.93 8524.01 4115.44 8528.98 4108.48C8534.45 4101.52 8537.93 4090.58 8539.43 4075.66C8540.42 4065.71 8540.92 4057.51 8540.92 4051.04C8540.92 4044.57 8540.42 4036.37 8539.43 4026.42C8537.93 4011.5 8534.45 4000.56 8528.98 3993.6C8524.01 3986.64 8515.06 3983.15 8502.13 3983.15C8489.19 3983.15 8479.99 3986.88 8474.52 3994.34C8469.05 4001.31 8465.82 4012 8464.83 4026.42C8464.33 4033.88 8464.08 4043.08 8464.08 4054.02C8464.08 4064.97 8464.33 4074.17 8464.83 4081.63C8465.82 4094.06 8469.05 4103.51 8474.52 4109.97C8480.49 4115.94 8489.69 4118.93 8502.13 4118.93ZM9016.22 4245C9010.75 4245 9006.02 4243.01 9002.04 4239.03C8998.07 4235.05 8996.08 4230.33 8996.08 4224.86V3735.48C8996.08 3730.01 8998.07 3725.29 9002.04 3721.31C9006.02 3717.33 9010.75 3715.34 9016.22 3715.34H9161.69C9167.16 3715.34 9171.88 3717.33 9175.86 3721.31C9179.84 3725.29 9181.83 3730.01 9181.83 3735.48V3895.87C9195.26 3881.45 9211.67 3870.26 9231.07 3862.3C9250.96 3853.85 9272.35 3849.62 9295.22 3849.62C9321.58 3849.62 9345.95 3855.84 9368.33 3868.27C9390.71 3880.21 9408.86 3899.1 9422.79 3924.97C9436.71 3950.33 9443.68 3981.66 9443.68 4018.96V4224.86C9443.68 4230.33 9441.69 4235.05 9437.71 4239.03C9433.73 4243.01 9429.01 4245 9423.53 4245H9277.32C9271.85 4245 9267.12 4243.01 9263.14 4239.03C9259.17 4235.05 9257.18 4230.33 9257.18 4224.86V4024.18C9257.18 4010.76 9253.94 4000.56 9247.48 3993.6C9241.01 3986.64 9231.81 3983.15 9219.88 3983.15C9207.94 3983.15 9198.49 3986.64 9191.53 3993.6C9185.06 4000.56 9181.83 4010.76 9181.83 4024.18V4224.86C9181.83 4230.33 9179.84 4235.05 9175.86 4239.03C9171.88 4243.01 9167.16 4245 9161.69 4245H9016.22ZM9846.94 4252.46C9819.09 4252.46 9793.98 4247.24 9771.6 4236.79C9749.71 4226.35 9732.55 4212.18 9720.12 4194.27C9708.19 4176.37 9702.22 4156.23 9702.22 4133.85C9702.22 4066.71 9756.68 4023.69 9865.59 4004.79L9944.67 3992.11V3991.36C9944.67 3976.94 9943.42 3967.24 9940.94 3962.27C9938.45 3956.8 9932.23 3954.06 9922.29 3954.06C9916.82 3954.06 9912.09 3955.05 9908.11 3957.04C9904.13 3959.03 9899.91 3962.02 9895.43 3966C9890.96 3969.97 9886.98 3972.96 9883.5 3974.95C9880.51 3976.94 9876.28 3977.93 9870.81 3977.93H9743.99C9739.52 3977.93 9735.54 3976.69 9732.06 3974.2C9729.07 3971.22 9727.58 3967.49 9727.58 3963.01C9727.58 3948.59 9734.54 3932.43 9748.47 3914.52C9762.89 3896.62 9784.77 3881.45 9814.12 3869.02C9843.96 3856.09 9880.51 3849.62 9923.78 3849.62C9990.42 3849.62 10040.4 3863.55 10073.7 3891.4C10107 3919.25 10123.7 3959.03 10123.7 4010.76V4224.86C10123.7 4230.33 10121.7 4235.05 10117.7 4239.03C10113.8 4243.01 10109 4245 10103.6 4245H9973.02C9967.54 4245 9962.82 4243.01 9958.84 4239.03C9954.86 4235.05 9952.87 4230.33 9952.87 4224.86V4203.97C9941.93 4218.89 9927.26 4230.83 9908.86 4239.78C9890.46 4248.23 9869.82 4252.46 9846.94 4252.46ZM9898.42 4142.05C9913.34 4142.05 9925.02 4137.33 9933.48 4127.88C9942.43 4118.43 9946.91 4104.01 9946.91 4084.61V4083.86L9902.89 4093.56C9881.01 4098.54 9870.07 4107.74 9870.07 4121.16C9870.07 4127.13 9872.55 4132.11 9877.53 4136.08C9882.5 4140.06 9889.46 4142.05 9898.42 4142.05ZM10976.8 4409.12C10925.1 4409.12 10882.6 4400.67 10849.3 4383.76C10816.5 4367.34 10792.6 4348.45 10777.7 4327.06C10762.7 4305.67 10755.3 4288.02 10755.3 4274.09C10755.3 4269.12 10757.3 4264.64 10761.3 4260.67C10765.2 4257.18 10770 4255.44 10775.4 4255.44H10920.9C10926.4 4255.44 10930.6 4256.69 10933.6 4259.17C10936.6 4261.66 10939.3 4265.39 10941.8 4270.36C10945.3 4277.33 10949.2 4282.05 10953.7 4284.54C10958.2 4287.52 10964.7 4289.01 10973.1 4289.01C10994.5 4289.01 11005.2 4274.34 11005.2 4245V4195.76C10980.8 4217.15 10947.8 4227.84 10906 4227.84C10856.7 4227.84 10818.9 4214.91 10792.6 4189.05C10766.2 4162.69 10751.3 4119.42 10747.8 4059.25L10747.1 4039.85C10747.1 3976.19 10760.8 3928.7 10788.1 3897.36C10816 3865.53 10855.2 3849.62 10906 3849.62C10929.4 3849.62 10950.5 3854.34 10969.4 3863.79C10988.3 3872.75 11004 3884.93 11016.4 3900.35V3877.22C11016.4 3871.75 11018.4 3867.03 11022.4 3863.05C11026.3 3859.07 11031.1 3857.08 11036.5 3857.08H11167.1C11172.5 3857.08 11177.3 3859.07 11181.3 3863.05C11185.2 3867.03 11187.2 3871.75 11187.2 3877.22L11188 4232.32C11188 4292 11168.6 4336.26 11129.8 4365.11C11091 4394.45 11040 4409.12 10976.8 4409.12ZM10967.9 4098.04C10980.3 4098.04 10989.3 4095.05 10994.8 4089.09C11000.7 4082.62 11004.2 4073.17 11005.2 4060.74C11005.7 4058.25 11005.9 4051.54 11005.9 4040.6C11005.9 4020.7 11003.2 4006.28 10997.7 3997.33C10992.8 3987.88 10982.8 3983.15 10967.9 3983.15C10955 3983.15 10945.8 3986.88 10940.3 3994.34C10934.8 4001.31 10931.6 4012 10930.6 4026.42L10929.8 4040.6C10929.8 4059.99 10932.3 4074.41 10937.3 4083.86C10942.8 4093.31 10953 4098.04 10967.9 4098.04ZM11491.6 4245C11486.1 4245 11481.4 4243.01 11477.4 4239.03C11473.4 4235.05 11471.5 4230.33 11471.5 4224.86V3877.22C11471.5 3871.75 11473.4 3867.03 11477.4 3863.05C11481.4 3859.07 11486.1 3857.08 11491.6 3857.08H11622.1C11627.6 3857.08 11632.3 3859.07 11636.3 3863.05C11640.3 3867.03 11642.3 3871.75 11642.3 3877.22V3903.33C11658.7 3888.91 11676.9 3877.72 11696.7 3869.76C11716.6 3861.31 11737.3 3857.08 11758.7 3857.08H11794.5C11799.9 3857.08 11804.7 3859.07 11808.6 3863.05C11812.6 3867.03 11814.6 3871.75 11814.6 3877.22V3993.6C11814.6 3999.07 11812.6 4003.79 11808.6 4007.77C11804.7 4011.75 11799.9 4013.74 11794.5 4013.74H11698.2C11668.4 4013.74 11653.5 4028.66 11653.5 4058.5V4224.86C11653.5 4230.33 11651.5 4235.05 11647.5 4239.03C11643.5 4243.01 11638.8 4245 11633.3 4245H11491.6ZM12191.2 4252.46C12163.3 4252.46 12138.2 4247.24 12115.8 4236.79C12094 4226.35 12076.8 4212.18 12064.4 4194.27C12052.4 4176.37 12046.5 4156.23 12046.5 4133.85C12046.5 4066.71 12100.9 4023.69 12209.8 4004.79L12288.9 3992.11V3991.36C12288.9 3976.94 12287.7 3967.24 12285.2 3962.27C12282.7 3956.8 12276.5 3954.06 12266.5 3954.06C12261.1 3954.06 12256.3 3955.05 12252.4 3957.04C12248.4 3959.03 12244.2 3962.02 12239.7 3966C12235.2 3969.97 12231.2 3972.96 12227.7 3974.95C12224.8 3976.94 12220.5 3977.93 12215.1 3977.93H12088.2C12083.8 3977.93 12079.8 3976.69 12076.3 3974.2C12073.3 3971.22 12071.8 3967.49 12071.8 3963.01C12071.8 3948.59 12078.8 3932.43 12092.7 3914.52C12107.1 3896.62 12129 3881.45 12158.4 3869.02C12188.2 3856.09 12224.8 3849.62 12268 3849.62C12334.7 3849.62 12384.7 3863.55 12418 3891.4C12451.3 3919.25 12468 3959.03 12468 4010.76V4224.86C12468 4230.33 12466 4235.05 12462 4239.03C12458 4243.01 12453.3 4245 12447.8 4245H12317.3C12311.8 4245 12307.1 4243.01 12303.1 4239.03C12299.1 4235.05 12297.1 4230.33 12297.1 4224.86V4203.97C12286.2 4218.89 12271.5 4230.83 12253.1 4239.78C12234.7 4248.23 12214.1 4252.46 12191.2 4252.46ZM12242.7 4142.05C12257.6 4142.05 12269.3 4137.33 12277.7 4127.88C12286.7 4118.43 12291.2 4104.01 12291.2 4084.61V4083.86L12247.1 4093.56C12225.3 4098.54 12214.3 4107.74 12214.3 4121.16C12214.3 4127.13 12216.8 4132.11 12221.8 4136.08C12226.7 4140.06 12233.7 4142.05 12242.7 4142.05ZM12767.9 4245C12762.4 4245 12757.7 4243.01 12753.7 4239.03C12749.7 4235.05 12747.8 4230.33 12747.8 4224.86V3877.22C12747.8 3871.75 12749.7 3867.03 12753.7 3863.05C12757.7 3859.07 12762.4 3857.08 12767.9 3857.08H12891C12896.5 3857.08 12901.2 3859.07 12905.2 3863.05C12909.1 3867.03 12911.1 3871.75 12911.1 3877.22V3901.84C12921.6 3887.91 12936.7 3875.73 12956.6 3865.29C12976.5 3854.84 12998.9 3849.62 13023.8 3849.62C13077 3849.62 13113.3 3870.01 13132.7 3910.79C13144.6 3893.39 13161 3878.96 13181.9 3867.52C13202.8 3855.59 13224.5 3849.62 13246.8 3849.62C13287.1 3849.62 13319.9 3863.55 13345.3 3891.4C13371.2 3918.75 13384.1 3960.28 13384.1 4015.98V4224.86C13384.1 4230.33 13382.1 4235.05 13378.1 4239.03C13374.1 4243.01 13369.4 4245 13364 4245H13232.7C13227.2 4245 13222.5 4243.01 13218.5 4239.03C13214.5 4235.05 13212.5 4230.33 13212.5 4224.86V4019.71C13212.5 4007.77 13209.8 3998.82 13204.3 3992.85C13199.3 3986.39 13192.1 3983.15 13182.7 3983.15C13173.2 3983.15 13166 3986.39 13161 3992.85C13156.1 3998.82 13153.6 4007.77 13153.6 4019.71V4224.86C13153.6 4230.33 13151.6 4235.05 13147.6 4239.03C13143.6 4243.01 13138.9 4245 13133.4 4245H13002.1C12996.7 4245 12991.9 4243.01 12988 4239.03C12984 4235.05 12982 4230.33 12982 4224.86V4019.71C12982 4007.77 12979.3 3998.82 12973.8 3992.85C12968.8 3986.39 12961.6 3983.15 12952.2 3983.15C12942.7 3983.15 12935.3 3986.39 12929.8 3992.85C12924.8 3999.32 12922.3 4008.27 12922.3 4019.71V4224.86C12922.3 4230.33 12920.3 4235.05 12916.4 4239.03C12912.4 4243.01 12907.6 4245 12902.2 4245H12767.9Z" fill="white"/>
</g>
</g>
<defs>
<filter id="filter0_d" x="1173.44" y="850.125" width="4724.53" height="6172.88" filterUnits="userSpaceOnUse" color-interpolation-filters="sRGB">
<feFlood flood-opacity="0" result="BackgroundImageFix"/>
<feColorMatrix in="SourceAlpha" type="matrix" values="0 0 0 0 0 0 0 0 0 0 0 0 0 0 0 0 0 0 127 0" result="hardAlpha"/>
<feOffset dy="4"/>
<feGaussianBlur stdDeviation="2"/>
<feComposite in2="hardAlpha" operator="out"/>
<feColorMatrix type="matrix" values="0 0 0 0 0 0 0 0 0 0 0 0 0 0 0 0 0 0 0.25 0"/>
<feBlend mode="normal" in2="BackgroundImageFix" result="effect1_dropShadow"/>
<feBlend mode="normal" in="SourceGraphic" in2="effect1_dropShadow" result="shape"/>
</filter>
<filter id="filter1_d" x="3948.31" y="3581.39" width="3071.51" height="3424.41" filterUnits="userSpaceOnUse" color-interpolation-filters="sRGB">
<feFlood flood-opacity="0" result="BackgroundImageFix"/>
<feColorMatrix in="SourceAlpha" type="matrix" values="0 0 0 0 0 0 0 0 0 0 0 0 0 0 0 0 0 0 127 0" result="hardAlpha"/>
<feOffset dy="4"/>
<feGaussianBlur stdDeviation="2"/>
<feComposite in2="hardAlpha" operator="out"/>
<feColorMatrix type="matrix" values="0 0 0 0 0 0 0 0 0 0 0 0 0 0 0 0 0 0 0.25 0"/>
<feBlend mode="normal" in2="BackgroundImageFix" result="effect1_dropShadow"/>
<feBlend mode="normal" in="SourceGraphic" in2="effect1_dropShadow" result="shape"/>
</filter>
<filter id="filter2_d" x="7012" y="3715.34" width="6376.09" height="701.779" filterUnits="userSpaceOnUse" color-interpolation-filters="sRGB">
<feFlood flood-opacity="0" result="BackgroundImageFix"/>
<feColorMatrix in="SourceAlpha" type="matrix" values="0 0 0 0 0 0 0 0 0 0 0 0 0 0 0 0 0 0 127 0" result="hardAlpha"/>
<feOffset dy="4"/>
<feGaussianBlur stdDeviation="2"/>
<feComposite in2="hardAlpha" operator="out"/>
<feColorMatrix type="matrix" values="0 0 0 0 0 0 0 0 0 0 0 0 0 0 0 0 0 0 0.25 0"/>
<feBlend mode="normal" in2="BackgroundImageFix" result="effect1_dropShadow"/>
<feBlend mode="normal" in="SourceGraphic" in2="effect1_dropShadow" result="shape"/>
</filter>
<clipPath id="clip0">
<rect width="14057" height="7394" fill="white"/>
</clipPath>
</defs>
</svg>
